<svg xmlns="http://www.w3.org/2000/svg" width="14" height="15" viewBox="0 0 14 15">
  <g id="Group_1600" data-name="Group 1600" transform="translate(14 15) rotate(180)">
    <path id="Icon_ionic-ios-arrow-down" data-name="Icon ionic-ios-arrow-down" d="M7,5.588,12.3.294a1,1,0,0,1,1.413,0,1.008,1.008,0,0,1,0,1.416l-6,6a1,1,0,0,1-1.38.029L.292,1.714A1,1,0,0,1,1.7.3Z" transform="translate(14 15) rotate(180)" fill="#707070"/>
    <path id="Icon_ionic-ios-arrow-down-2" data-name="Icon ionic-ios-arrow-down" d="M7,5.588,12.3.294a1,1,0,0,1,1.413,0,1.008,1.008,0,0,1,0,1.416l-6,6a1,1,0,0,1-1.38.029L.292,1.714A1,1,0,0,1,1.7.3Z" transform="translate(14 8) rotate(180)" fill="#707070"/>
  </g>
</svg>
