<svg xmlns="http://www.w3.org/2000/svg" width="87" height="87" viewBox="0 0 87 87">
  <g id="Group_2674" data-name="Group 2674" transform="translate(0 0.156)">
    <circle id="Ellipse_229" data-name="Ellipse 229" cx="43.5" cy="43.5" r="43.5" transform="translate(0 -0.156)" fill="#437495"/>
    <g id="Group_2681" data-name="Group 2681" transform="translate(18.935 14.202)">
      <path id="Path_774" data-name="Path 774" d="M56.19,23.809H48.429A16.529,16.529,0,0,0,43.4,18.4l4.5-4.5L44.01,10l-5.993,5.993a16.752,16.752,0,0,0-3.922-.47,16.345,16.345,0,0,0-3.894.47L24.18,10l-3.894,3.894,4.474,4.5a16.743,16.743,0,0,0-5,5.413H12v5.524h5.772a18.333,18.333,0,0,0-.249,2.762v2.762H12v5.524h5.524v2.762a18.333,18.333,0,0,0,.249,2.762H12v5.524h7.761a16.542,16.542,0,0,0,28.668,0H56.19V45.9H50.418a18.333,18.333,0,0,0,.249-2.762V40.381H56.19V34.857H50.666V32.1a18.333,18.333,0,0,0-.249-2.762H56.19ZM45.142,34.857v8.286a11.759,11.759,0,0,1-.193,1.933l-.276,1.8-1.022,1.8a11.028,11.028,0,0,1-19.112,0L23.517,46.9l-.276-1.8a11.792,11.792,0,0,1-.193-1.961V32.1a11.189,11.189,0,0,1,.193-1.933l.276-1.8,1.022-1.8a11.323,11.323,0,0,1,3.342-3.618l1.574-1.077,2.044-.5a10.458,10.458,0,0,1,2.6-.331,10.676,10.676,0,0,1,2.624.331l1.878.442,1.685,1.16A10.757,10.757,0,0,1,43.623,26.6l1.05,1.8.276,1.8a11.148,11.148,0,0,1,.193,1.906ZM28.571,40.381H39.619V45.9H28.571Zm0-11.048H39.619v5.524H28.571Z" transform="translate(-9.935 -5.358)" fill="#fff"/>
    </g>
  </g>
</svg>
