<svg xmlns="http://www.w3.org/2000/svg" width="16" height="16" viewBox="0 0 16 16">
  <g id="person-with-a-huge-clock-outlines-in-a-circle-svgrepo-com" transform="translate(-11 -63.044)">
    <g id="Group_1640" data-name="Group 1640" transform="translate(11 63.044)">
      <path id="Path_737" data-name="Path 737" d="M8.383,5.745A1.269,1.269,0,0,0,9.546,4.395,1.268,1.268,0,0,0,8.383,3.044,1.268,1.268,0,0,0,7.221,4.395,1.269,1.269,0,0,0,8.383,5.745Zm0-1.851a.47.47,0,0,1,.43.5.435.435,0,1,1-.86,0A.47.47,0,0,1,8.383,3.895Z" transform="translate(-4.577 -3.044)" fill="#383838"/>
      <path id="Path_738" data-name="Path 738" d="M9.11,10.683V13.7a.37.37,0,1,0,.732,0v-3.02a.37.37,0,1,0-.732,0Z" transform="translate(-5.775 -7.189)" fill="#383838"/>
      <path id="Path_739" data-name="Path 739" d="M12.764,10.291a.317.317,0,0,0-.28,0,.4.4,0,0,0-.2.23.481.481,0,0,0-.028.162V21.01a.37.37,0,1,0,.732,0V15.477a.337.337,0,0,0,.186-.108l1.739-2.021a.475.475,0,0,0,0-.6l-2.033-2.362A.36.36,0,0,0,12.764,10.291Zm.226,4.091V11.711l1.149,1.336Z" transform="translate(-7.77 -7.19)" fill="#383838"/>
      <path id="Path_740" data-name="Path 740" d="M.107,13.347l1.739,2.021a.337.337,0,0,0,.187.108V21.01a.4.4,0,0,0,.366.425.4.4,0,0,0,.366-.425V10.684a.481.481,0,0,0-.028-.162.4.4,0,0,0-.2-.23.317.317,0,0,0-.28,0,.364.364,0,0,0-.119.092L.107,12.746A.475.475,0,0,0,.107,13.347Zm.777-.3,1.15-1.336v2.672Z" transform="translate(0 -7.19)" fill="#383838"/>
      <path id="Path_741" data-name="Path 741" d="M22.516,14.725c-2.618,0-4.748,2.474-4.748,5.516s2.129,5.516,4.748,5.516,4.747-2.474,4.747-5.516S25.133,14.725,22.516,14.725Zm.366,10.159v-.747a.37.37,0,1,0-.732,0v.747a4.387,4.387,0,0,1-3.631-4.218h.643a.43.43,0,0,0,0-.851h-.643A4.387,4.387,0,0,1,22.15,15.6v.747a.37.37,0,1,0,.732,0V15.6a4.386,4.386,0,0,1,3.63,4.218h-.643a.43.43,0,0,0,0,.851h.643A4.386,4.386,0,0,1,22.882,24.884Z" transform="translate(-11.263 -9.756)" fill="#383838"/>
      <path id="Path_742" data-name="Path 742" d="M30.94,23.83h-.472V22.136a.37.37,0,1,0-.732,0v2.119a.4.4,0,0,0,.366.425h.838a.43.43,0,0,0,0-.851Z" transform="translate(-18.849 -13.771)" fill="#383838"/>
    </g>
  </g>
</svg>
