<svg xmlns="http://www.w3.org/2000/svg" width="16" height="16" viewBox="0 0 16 16">
  <path id="column-triple-svgrepo-com" d="M5.383,3a1.483,1.483,0,0,1,1.4,1.555V17.444A1.483,1.483,0,0,1,5.383,19h-2a1.483,1.483,0,0,1-1.4-1.555V4.556A1.5,1.5,0,0,1,3.27,3.005L3.385,3ZM16.589,3a1.483,1.483,0,0,1,1.4,1.555V17.444A1.483,1.483,0,0,1,16.589,19h-2a1.483,1.483,0,0,1-1.4-1.555V4.556A1.483,1.483,0,0,1,14.591,3ZM10.975,3a1.483,1.483,0,0,1,1.4,1.555V17.443A1.483,1.483,0,0,1,10.975,19h-2a1.483,1.483,0,0,1-1.4-1.555V4.555A1.483,1.483,0,0,1,8.978,3Z" transform="translate(-1.987 -3)" fill="#079fff"/>
</svg>
