<svg xmlns="http://www.w3.org/2000/svg" width="20" height="18.381" viewBox="0 0 20 18.381">
  <path id="comment-svgrepo-com" d="M3,11.092c0-2.482,0-3.723.484-4.672A4.438,4.438,0,0,1,5.427,4.483C6.377,4,7.622,4,10.111,4h5.778c2.489,0,3.734,0,4.684.483A4.439,4.439,0,0,1,22.516,6.42C23,7.368,23,8.609,23,11.092v1.33c0,2.482,0,3.723-.484,4.672a4.439,4.439,0,0,1-1.942,1.937c-.951.483-2.2.483-4.684.483H7.9a1.113,1.113,0,0,0-.786.325L4.9,22.054A1.111,1.111,0,0,1,3,21.27V11.092ZM9.667,8.432a1.108,1.108,0,1,0,0,2.216h6.667a1.108,1.108,0,1,0,0-2.216Zm0,4.432a1.108,1.108,0,1,0,0,2.216H13a1.108,1.108,0,1,0,0-2.216Z" transform="translate(-3 -4)" fill="#707070" fill-rule="evenodd"/>
</svg>
