<svg id="database-svgrepo-com" xmlns="http://www.w3.org/2000/svg" width="20" height="19.999" viewBox="0 0 20 19.999">
  <path id="Path_729" data-name="Path 729" d="M36.227,1.848V3.932a1.825,1.825,0,0,0,1.1,1.609c1.246.431,3.84.947,9.152.988,5.158.04,7.572-.468,8.7-.925A1.915,1.915,0,0,0,56.157,3.9V1.848C56.157.827,51.695,0,46.192,0S36.227.827,36.227,1.848Z" transform="translate(-36.221)" fill="#707070"/>
  <path id="Path_730" data-name="Path 730" d="M56.048,84.383a.958.958,0,0,1,.058.368V86.7a1.792,1.792,0,0,1-1.175,1.543,29.881,29.881,0,0,1-8.79.976c-4.884.016-7.493-.527-8.8-.965a1.812,1.812,0,0,1-1.17-1.555c0-.377,0-.84.005-1.354a6.359,6.359,0,0,1,.033-.649c.038-.358.553-.173,1.232.082,1.155.433,3.652.916,9.042.916,4.905,0,7.2-.433,8.277-.839C55.437,84.595,55.967,84.187,56.048,84.383Z" transform="translate(-36.17 -78.221)" fill="#707070"/>
  <path id="Path_731" data-name="Path 731" d="M36.851,147.575c-.017.166-.03.378-.033.649,0,.515-.006.978-.005,1.355a1.813,1.813,0,0,0,1.17,1.554c1.307.437,3.917.98,8.8.964a29.878,29.878,0,0,0,8.79-.976,1.79,1.79,0,0,0,1.175-1.542v-1.945a.971.971,0,0,0-.058-.368c-.081-.2-.615.209-1.3.462-1.079.4-3.376.828-8.274.828-5.38,0-7.876-.476-9.033-.9C37.406,147.4,36.89,147.217,36.851,147.575Z" transform="translate(-36.75 -136.545)" fill="#707070"/>
  <path id="Path_732" data-name="Path 732" d="M56.075,208.66a.943.943,0,0,1,.058.367v1.944a1.792,1.792,0,0,1-1.175,1.543,29.876,29.876,0,0,1-8.79.976c-4.884.016-7.494-.527-8.8-.965a1.812,1.812,0,0,1-1.169-1.555c0-.377,0-.84,0-1.355,0-.271.015-.483.033-.649.039-.357.553-.172,1.224.093,1.164.46,3.69.983,9.169.983,4.908,0,7.17-.455,8.213-.882C55.508,208.889,55.994,208.464,56.075,208.66Z" transform="translate(-36.193 -193.492)" fill="#707070"/>
</svg>
