<svg xmlns="http://www.w3.org/2000/svg" xmlns:xlink="http://www.w3.org/1999/xlink" width="72" height="72" viewBox="0 0 72 72">
  <defs>
    <filter id="Ellipse_185" x="0" y="0" width="72" height="72" filterUnits="userSpaceOnUse">
      <feOffset dy="3" input="SourceAlpha"/>
      <feGaussianBlur stdDeviation="3" result="blur"/>
      <feFlood flood-opacity="0.161"/>
      <feComposite operator="in" in2="blur"/>
      <feComposite in="SourceGraphic"/>
    </filter>
    <clipPath id="clip-path">
      <rect id="Rectangle_1345" data-name="Rectangle 1345" width="30.025" height="30.025" fill="#4472c4"/>
    </clipPath>
    <clipPath id="clip-path-2">
      <rect id="Rectangle_1383" data-name="Rectangle 1383" width="22.515" height="22.515" fill="#4472c4"/>
    </clipPath>
  </defs>
  <g id="Group_2651" data-name="Group 2651" transform="translate(9 6)">
    <g id="Group_2626" data-name="Group 2626" transform="translate(0 0)">
      <g transform="matrix(1, 0, 0, 1, -9, -6)" filter="url(#Ellipse_185)">
        <g id="Ellipse_185-2" data-name="Ellipse 185" transform="translate(9 6)" fill="#fff" stroke="#4472c4" stroke-width="0.5" opacity="1">
          <circle cx="27" cy="27" r="27" stroke="none"/>
          <circle cx="27" cy="27" r="26.75" fill="none"/>
        </g>
      </g>
      <g id="Group_2604" data-name="Group 2604" transform="translate(9.297 3.377)" opacity="0.5">
        <g id="Group_2581" data-name="Group 2581" clip-path="url(#clip-path)">
          <path id="Path_741" data-name="Path 741" d="M10.785,18.191,5.168,12.575l5.616-5.616L9.075,5.25,1.75,12.575,9.075,19.9Zm6.349,0,5.616-5.616L17.133,6.959,18.842,5.25l7.325,7.325L18.842,19.9l-1.709-1.709Z" transform="translate(0.692 2.179)" fill="#4472c4"/>
        </g>
      </g>
    </g>
    <g id="Group_2638" data-name="Group 2638" transform="translate(24.64 25.092)" opacity="0.5">
      <g id="Group_2635" data-name="Group 2635" clip-path="url(#clip-path-2)">
        <path id="Path_765" data-name="Path 765" d="M11.729,2a9.738,9.738,0,1,0,9.748,9.738A9.734,9.734,0,0,0,11.729,2Zm.01,17.529a7.791,7.791,0,1,1,7.791-7.791A7.789,7.789,0,0,1,11.738,19.529Zm.487-12.66H10.765v5.843l5.113,3.068.73-1.2-4.382-2.6Z" transform="translate(-0.052 -0.052)" fill="#4472c4"/>
      </g>
    </g>
  </g>
</svg>
