<svg xmlns="http://www.w3.org/2000/svg" xmlns:xlink="http://www.w3.org/1999/xlink" width="72" height="72" viewBox="0 0 72 72">
  <defs>
    <filter id="Ellipse_185" x="0" y="0" width="72" height="72" filterUnits="userSpaceOnUse">
      <feOffset dy="3" input="SourceAlpha"/>
      <feGaussianBlur stdDeviation="3" result="blur"/>
      <feFlood flood-opacity="0.161"/>
      <feComposite operator="in" in2="blur"/>
      <feComposite in="SourceGraphic"/>
    </filter>
    <clipPath id="clip-path">
      <rect id="Rectangle_1383" data-name="Rectangle 1383" width="22.515" height="22.515" fill="#4472c4"/>
    </clipPath>
  </defs>
  <g id="Group_2650" data-name="Group 2650" transform="translate(9 6)" opacity="0.5">
    <g id="Group_2634" data-name="Group 2634" transform="translate(0 0)">
      <g transform="matrix(1, 0, 0, 1, -9, -6)" filter="url(#Ellipse_185)">
        <g id="Ellipse_185-2" data-name="Ellipse 185" transform="translate(9 6)" fill="#fff" stroke="#4472c4" stroke-width="0.5">
          <circle cx="27" cy="27" r="27" stroke="none"/>
          <circle cx="27" cy="27" r="26.75" fill="none"/>
        </g>
      </g>
    </g>
    <g id="Group_2635" data-name="Group 2635" transform="translate(24.64 25.092)" clip-path="url(#clip-path)">
      <path id="Path_765" data-name="Path 765" d="M11.729,2a9.738,9.738,0,1,0,9.748,9.738A9.734,9.734,0,0,0,11.729,2Zm.01,17.529a7.791,7.791,0,1,1,7.791-7.791A7.789,7.789,0,0,1,11.738,19.529Zm.487-12.66H10.765v5.843l5.113,3.068.73-1.2-4.382-2.6Z" transform="translate(-0.052 -0.052)" fill="#4472c4"/>
    </g>
    <g id="Group_2633" data-name="Group 2633" transform="translate(9.427 9.517)">
      <path id="Path_743" data-name="Path 743" d="M15.873,14.329H15.06l-.288-.278a6.7,6.7,0,1,0-.721.721l.278.288v.814l5.149,5.139,1.535-1.535-5.139-5.149Zm-6.179,0a4.634,4.634,0,1,1,4.634-4.634A4.628,4.628,0,0,1,9.694,14.329Z" transform="translate(-3 -3)" fill="#4472c4"/>
    </g>
  </g>
</svg>
