<svg width="25" height="24" viewBox="0 0 25 24" fill="none" xmlns="http://www.w3.org/2000/svg">
<mask id="mask0_9435_42117" style="mask-type:alpha" maskUnits="userSpaceOnUse" x="0" y="0" width="25" height="24">
<rect x="0.5" width="24" height="24" fill="#CCD0D5" style="fill:#CCD0D5;fill:color(display-p3 0.8000 0.8157 0.8353);fill-opacity:1;"/>
</mask>
<g mask="url(#mask0_9435_42117)">
<path d="M12 14.5H13V11.5H16V10.5H13V7.5H12V10.5H9V11.5H12V14.5ZM9.5 20V18H5.11538C4.65513 18 4.27083 17.8458 3.9625 17.5375C3.65417 17.2292 3.5 16.8449 3.5 16.3846V5.61537C3.5 5.15512 3.65417 4.77083 3.9625 4.4625C4.27083 4.15417 4.65513 4 5.11538 4H19.8846C20.3449 4 20.7292 4.15417 21.0375 4.4625C21.3458 4.77083 21.5 5.15512 21.5 5.61537V16.3846C21.5 16.8449 21.3458 17.2292 21.0375 17.5375C20.7292 17.8458 20.3449 18 19.8846 18H15.5V20H9.5ZM5.11538 17H19.8846C20.0385 17 20.1795 16.9359 20.3077 16.8077C20.4359 16.6795 20.5 16.5385 20.5 16.3846V5.61537C20.5 5.46154 20.4359 5.32052 20.3077 5.1923C20.1795 5.0641 20.0385 5 19.8846 5H5.11538C4.96154 5 4.82052 5.0641 4.6923 5.1923C4.5641 5.32052 4.5 5.46154 4.5 5.61537V16.3846C4.5 16.5385 4.5641 16.6795 4.6923 16.8077C4.82052 16.9359 4.96154 17 5.11538 17Z" fill="#49535E" style="fill:#49535E;fill:color(display-p3 0.2863 0.3255 0.3686);fill-opacity:1;"/>
</g>
</svg>
