<svg xmlns="http://www.w3.org/2000/svg" width="30" height="30" viewBox="0 0 30 30">
  <g id="Group_1693" data-name="Group 1693" transform="translate(-1846.5 -589)">
    <g id="Path_499" data-name="Path 499" transform="translate(1846.5 589)" fill="#fff">
      <path d="M 25 29.5 L 5 29.5 C 2.51869010925293 29.5 0.5 27.48130989074707 0.5 25 L 0.5 5 C 0.5 2.51869010925293 2.51869010925293 0.5 5 0.5 L 25 0.5 C 27.48130989074707 0.5 29.5 2.51869010925293 29.5 5 L 29.5 25 C 29.5 27.48130989074707 27.48130989074707 29.5 25 29.5 Z" stroke="none"/>
      <path d="M 5 1 C 2.794389724731445 1 1 2.794389724731445 1 5 L 1 25 C 1 27.20561027526855 2.794389724731445 29 5 29 L 25 29 C 27.20561027526855 29 29 27.20561027526855 29 25 L 29 5 C 29 2.794389724731445 27.20561027526855 1 25 1 L 5 1 M 5 0 L 25 0 C 27.76141929626465 0 30 2.238580703735352 30 5 L 30 25 C 30 27.76141929626465 27.76141929626465 30 25 30 L 5 30 C 2.238580703735352 30 0 27.76141929626465 0 25 L 0 5 C 0 2.238580703735352 2.238580703735352 0 5 0 Z" stroke="none" fill="#707070"/>
    </g>
    <g id="popup-svgrepo-com" transform="translate(1852.5 595)">
      <path id="Path_621" data-name="Path 621" d="M19.25,4H9.125A1.128,1.128,0,0,0,8,5.125V13a1.128,1.128,0,0,0,1.125,1.125H19.25A1.128,1.128,0,0,0,20.375,13V5.125A1.128,1.128,0,0,0,19.25,4Zm0,9H9.125V5.125H19.25Z" transform="translate(-3.5 -1.75)" fill="#707070"/>
      <path id="Path_622" data-name="Path 622" d="M11,20.75H3.125V15.125H4.25V14H3.125A1.128,1.128,0,0,0,2,15.125V20.75a1.128,1.128,0,0,0,1.125,1.125H11a1.128,1.128,0,0,0,1.125-1.125V19.625H11Z" transform="translate(-0.875 -6.125)" fill="#707070"/>
      <rect id="_Transparent_Rectangle_" data-name="&lt;Transparent Rectangle&gt;" width="18" height="18" fill="none"/>
    </g>
  </g>
</svg>
