<svg xmlns="http://www.w3.org/2000/svg" xmlns:xlink="http://www.w3.org/1999/xlink" width="48" height="48" viewBox="0 0 48 48">
  <defs>
    <filter id="Ellipse_187" x="0" y="0" width="48" height="48" filterUnits="userSpaceOnUse">
      <feOffset dy="3" input="SourceAlpha"/>
      <feGaussianBlur stdDeviation="3" result="blur"/>
      <feFlood flood-opacity="0.161"/>
      <feComposite operator="in" in2="blur"/>
      <feComposite in="SourceGraphic"/>
    </filter>
    <clipPath id="clip-path">
      <rect id="Rectangle_1369" data-name="Rectangle 1369" width="16" height="16" fill="#fff"/>
    </clipPath>
  </defs>
  <g id="Group_2619" data-name="Group 2619" transform="translate(-6763.92 -1670.806)">
    <g transform="matrix(1, 0, 0, 1, 6763.92, 1670.81)" filter="url(#Ellipse_187)">
      <circle id="Ellipse_187-2" data-name="Ellipse 187" cx="15" cy="15" r="15" transform="translate(9 6)" fill="#437495"/>
    </g>
    <g id="Group_2603" data-name="Group 2603" transform="translate(6779.76 1684.306)" clip-path="url(#clip-path)">
      <path id="Path_755" data-name="Path 755" d="M13.632,2.329h-.664V1H11.638V2.329H6.322V1H4.993V2.329H4.329A1.333,1.333,0,0,0,3,3.658v9.3A1.333,1.333,0,0,0,4.329,14.29h9.3a1.333,1.333,0,0,0,1.329-1.329v-9.3A1.333,1.333,0,0,0,13.632,2.329Zm0,10.632h-9.3V6.316h9.3Zm-9.3-7.974V3.658h9.3V4.987ZM6.475,11.24l.7.7L8.8,10.323l1.621,1.621.7-.7L9.505,9.618,11.127,8l-.7-.7L8.8,8.914,7.18,7.293l-.7.7L8.1,9.618Z" transform="translate(-1.007 -0.336)" fill="#fff"/>
    </g>
  </g>
</svg>
