<svg width="16" height="19" viewBox="0 0 16 19" fill="none" xmlns="http://www.w3.org/2000/svg">
<path d="M6.95 15.619L4.0923 12.7614L4.81155 12.0421L6.95 14.1806L11.1885 9.94212L11.9077 10.6614L6.95 15.619ZM1.61538 18.9998C1.15513 18.9998 0.770833 18.8457 0.4625 18.5373C0.154167 18.229 0 17.8447 0 17.3844V4.61519C0 4.15494 0.154167 3.77065 0.4625 3.46232C0.770833 3.15399 1.15513 2.99982 1.61538 2.99982H3.3846V0.769043H4.46152V2.99982H11.6154V0.769043H12.6154V2.99982H14.3846C14.8449 2.99982 15.2292 3.15399 15.5375 3.46232C15.8458 3.77065 16 4.15494 16 4.61519V17.3844C16 17.8447 15.8458 18.229 15.5375 18.5373C15.2292 18.8457 14.8449 18.9998 14.3846 18.9998H1.61538ZM1.61538 17.9998H14.3846C14.5385 17.9998 14.6795 17.9357 14.8077 17.8075C14.9359 17.6793 15 17.5383 15 17.3844V8.61519H1V17.3844C1 17.5383 1.0641 17.6793 1.1923 17.8075C1.32052 17.9357 1.46154 17.9998 1.61538 17.9998ZM1 7.61519H15V4.61519C15 4.46136 14.9359 4.32034 14.8077 4.19212C14.6795 4.06392 14.5385 3.99982 14.3846 3.99982H1.61538C1.46154 3.99982 1.32052 4.06392 1.1923 4.19212C1.0641 4.32034 1 4.46136 1 4.61519V7.61519Z" fill="#49535E" style="fill:#49535E;fill:color(display-p3 0.2863 0.3255 0.3686);fill-opacity:1;"/>
</svg>
