<svg width="20" height="20" viewBox="0 0 20 20" fill="none" xmlns="http://www.w3.org/2000/svg">
<mask id="mask0_3616_1260" style="mask-type:alpha" maskUnits="userSpaceOnUse" x="0" y="0" width="20" height="20">
<rect width="20" height="20" fill="#202429"/>
</mask>
<g mask="url(#mask0_3616_1260)">
<path d="M2.5 16.7308V3.84615C2.5 3.4626 2.62847 3.14236 2.88542 2.88542C3.14236 2.62847 3.4626 2.5 3.84615 2.5H16.1539C16.5374 2.5 16.8576 2.62847 17.1146 2.88542C17.3715 3.14236 17.5 3.4626 17.5 3.84615V12.8205C17.5 13.2041 17.3715 13.5243 17.1146 13.7812C16.8576 14.0382 16.5374 14.1667 16.1539 14.1667H5.0641L2.5 16.7308ZM4.70833 13.3333H16.1539C16.282 13.3333 16.3996 13.2799 16.5064 13.1731C16.6132 13.0662 16.6667 12.9487 16.6667 12.8205V3.84615C16.6667 3.71795 16.6132 3.60043 16.5064 3.49358C16.3996 3.38675 16.282 3.33333 16.1539 3.33333H3.84615C3.71795 3.33333 3.60043 3.38675 3.49358 3.49358C3.38675 3.60043 3.33333 3.71795 3.33333 3.84615V14.7035L4.70833 13.3333Z" fill="#49535E"/>
</g>
</svg>
