<svg xmlns="http://www.w3.org/2000/svg" width="19.5" height="19.986" viewBox="0 0 19.5 19.986">
  <g id="list-message-svgrepo-com" transform="translate(-0.75 -0.73)">
    <line id="Line_383" data-name="Line 383" x1="7.64" transform="translate(8.136 5.764)" fill="none" stroke="#383838" stroke-width="1.5"/>
    <line id="Line_384" data-name="Line 384" x1="7.64" transform="translate(8.136 9.196)" fill="none" stroke="#383838" stroke-width="1.5"/>
    <line id="Line_385" data-name="Line 385" x1="7.64" transform="translate(8.136 12.627)" fill="none" stroke="#383838" stroke-width="1.5"/>
    <line id="Line_386" data-name="Line 386" x2="1.91" transform="translate(5.51 5.764)" fill="none" stroke="#383838" stroke-width="1.5"/>
    <line id="Line_387" data-name="Line 387" x2="1.91" transform="translate(5.51 9.196)" fill="none" stroke="#383838" stroke-width="1.5"/>
    <line id="Line_388" data-name="Line 388" x2="1.91" transform="translate(5.51 12.627)" fill="none" stroke="#383838" stroke-width="1.5"/>
    <path id="Path_732" data-name="Path 732" d="M1.5,4.911V13.48a3.352,3.352,0,0,0,3.267,3.431H6.4V19.48l4.934-2.569h4.9A3.352,3.352,0,0,0,19.5,13.48V4.911A3.352,3.352,0,0,0,16.233,1.48H4.767A3.352,3.352,0,0,0,1.5,4.911Z" fill="none" stroke="#383838" stroke-width="1.5"/>
  </g>
</svg>
