<svg xmlns="http://www.w3.org/2000/svg" width="12" height="12" viewBox="0 0 12 12">
  <path id="filter-funnel-sort-filtering-filters-svgrepo-com" d="M7.817,12.68a1.175,1.175,0,0,1-.4-.071H7.371l-2.012-.981a1.167,1.167,0,0,1-.751-1.07V7.693a.26.26,0,0,0-.093-.2L1.231,4.929A1.17,1.17,0,0,1,.8,4.037V1.843A1.167,1.167,0,0,1,1.971.68h9.657A1.167,1.167,0,0,1,12.8,1.843V4.037a1.159,1.159,0,0,1-.4.878L9.063,7.5a.27.27,0,0,0-.075.189v3.82a1.159,1.159,0,0,1-.342.825A1.176,1.176,0,0,1,7.817,12.68Zm-.075-.9a.275.275,0,0,0,.249-.039.27.27,0,0,0,.111-.225V7.693a1.156,1.156,0,0,1,.4-.874l3.338-2.593a.27.27,0,0,0,.072-.189V1.843a.272.272,0,0,0-.273-.271H1.971a.272.272,0,0,0-.273.271V4.037a.274.274,0,0,0,.093.207L5.09,6.8a1.174,1.174,0,0,1,.417.892v2.832a.278.278,0,0,0,.183.257l.043.018Z" transform="translate(-0.8 -0.68)" fill="#4a4a4a"/>
</svg>
