<svg id="Group_13" data-name="Group 13" xmlns="http://www.w3.org/2000/svg" xmlns:xlink="http://www.w3.org/1999/xlink" width="36.129" height="29.992" viewBox="0 0 36.129 29.992">
  <defs>
    <clipPath id="clip-path">
      <rect id="Rectangle_90" data-name="Rectangle 90" width="36.129" height="29.992" fill="#fff"/>
    </clipPath>
  </defs>
  <g id="Group_12" data-name="Group 12" clip-path="url(#clip-path)">
    <path id="Path_1" data-name="Path 1" d="M115.276,80.295l-2.656,3.278-.6.736-1.667-1.331,1.322-1.664H111.2q-6.86,0-13.721,0a12.163,12.163,0,0,1-12.131-10.07,12.059,12.059,0,0,1,6.216-12.7c.061-.031.125-.057.224-.1l.969,1.886a9.931,9.931,0,0,0-2.692,2.006A9.637,9.637,0,0,0,87.4,70.364,9.882,9.882,0,0,0,95.455,79a8.34,8.34,0,0,0,1.609.165q7.142.019,14.285.009h.328l-1.321-1.661,1.668-1.334,1.816,2.262c.4.5.8,1.009,1.212,1.51a1.99,1.99,0,0,0,.224.2Z" transform="translate(-79.146 -54.317)" fill="#fff"/>
    <path id="Path_2" data-name="Path 2" d="M241.562,0l1.526,1.527-1.6,1.414c5.066,1.307,8.336,4.291,9.573,9.256a11.8,11.8,0,0,1-2.521,10.446l-.8-.667-.8-.665c2.564-3.482,3.1-7.174,1.118-11.061a9.415,9.415,0,0,0-6.629-5.011l1.087,1.69-1.79,1.164-2.846-4.367c.9-.928,1.8-1.842,2.689-2.759.31-.319.612-.645.918-.967Z" transform="translate(-221.099)" fill="#fff"/>
    <path id="Path_3" data-name="Path 3" d="M0,352.174H7.787v2.15H7.365q-3.473,0-6.947,0c-.14,0-.279.02-.418.031v-2.182" transform="translate(0 -327.323)" fill="#fff"/>
    <path id="Path_4" data-name="Path 4" d="M191.942,153.3v2.144H189.93c-.318.362-.233.616.084.882.393.329.748.7,1.1,1.041l-1.555,1.543c-.387-.393-.811-.81-1.217-1.244a.346.346,0,0,0-.458-.087.351.351,0,0,0-.265.385c.013.584,0,1.168,0,1.772h-2.142c0-.573-.009-1.144,0-1.713a.4.4,0,0,0-.269-.451.364.364,0,0,0-.478.13c-.394.416-.8.823-1.184,1.219l-1.523-1.546c.369-.366.781-.777,1.2-1.185.127-.124.248-.219.137-.441-.1-.2-.182-.311-.433-.3-.572.023-1.147.007-1.744.007V153.3c.591,0,1.164-.014,1.737.007a.4.4,0,0,0,.439-.294c.1-.22-.006-.317-.135-.443-.412-.4-.819-.806-1.2-1.185l1.527-1.522c.322.324.714.675,1.052,1.071a.542.542,0,0,0,.886.086v-2.008h2.133c0,.59.009,1.162,0,1.733a.393.393,0,0,0,.282.444c.234.1.342.005.479-.136.4-.411.807-.816,1.185-1.2l1.535,1.529c-.409.4-.833.822-1.266,1.234a.28.28,0,0,0-.085.391c.084.156.116.306.36.3.6-.022,1.195-.007,1.83-.007m-5.372-.246a1.34,1.34,0,0,0-1.362,1.321,1.362,1.362,0,0,0,1.352,1.342,1.331,1.331,0,0,0,1.329-1.316,1.307,1.307,0,0,0-1.319-1.348" transform="translate(-168.406 -138.492)" fill="#fff"/>
  </g>
</svg>
