<svg xmlns="http://www.w3.org/2000/svg" width="13.523" height="13.5" viewBox="0 0 13.523 13.5">
  <path id="triangle-exclaimation-svgrepo-com" d="M8.2,1.719a1.11,1.11,0,0,0-2.014,0L.832,12.234a1.244,1.244,0,0,0,1.007,1.841h10.7a1.244,1.244,0,0,0,1.007-1.841Zm-1.007.6,5.349,10.515H1.839Zm0,3.06A.6.6,0,0,1,7.763,6V9.1a.576.576,0,1,1-1.149,0V6A.6.6,0,0,1,7.189,5.377Zm.718,6.057a.72.72,0,1,1-.718-.777A.749.749,0,0,1,7.907,11.435Z" transform="translate(-0.427 -0.825)" fill="#eb3d4b" stroke="#eb3d4c" stroke-width="0.5" fill-rule="evenodd"/>
</svg>
