<svg xmlns="http://www.w3.org/2000/svg" width="14" height="14" viewBox="0 0 14 14">
  <g id="Icon_ionic-ios-checkmark-circle-outline" data-name="Icon ionic-ios-checkmark-circle-outline" transform="translate(0.5 0.5)">
    <path id="Path_708" data-name="Path 708" d="M17.128,12.809l-.55-.566a.118.118,0,0,0-.087-.037h0a.113.113,0,0,0-.087.037l-3.813,3.841L11.2,14.7a.121.121,0,0,0-.175,0l-.556.556a.125.125,0,0,0,0,.178l1.75,1.75a.553.553,0,0,0,.366.178.58.58,0,0,0,.363-.172h0l4.178-4.2A.134.134,0,0,0,17.128,12.809Z" transform="translate(-7.297 -8.281)" fill="#63bf63" stroke="#63bf64" stroke-width="1"/>
    <path id="Path_709" data-name="Path 709" d="M9.875,4.25A5.623,5.623,0,1,1,5.9,5.9,5.588,5.588,0,0,1,9.875,4.25m0-.875a6.5,6.5,0,1,0,6.5,6.5,6.5,6.5,0,0,0-6.5-6.5Z" transform="translate(-3.375 -3.375)" fill="#63bf63" stroke="#63bf64" stroke-width="1"/>
  </g>
</svg>
