<svg xmlns="http://www.w3.org/2000/svg" width="20.042" height="20" viewBox="0 0 20.042 20">
  <g id="notification-alarm-bell-svgrepo-com" transform="translate(-2.984 -2)">
    <path id="Path_641" data-name="Path 641" d="M21.857,16.985l-.825-1.177a11.059,11.059,0,0,1-2.176-6.577,5.521,5.521,0,0,0-4.2-5.192A1.719,1.719,0,0,0,13,3a1.719,1.719,0,0,0-1.651,1.038,5.521,5.521,0,0,0-4.2,5.192,11.059,11.059,0,0,1-2.176,6.577l-.825,1.177a.8.8,0,0,0,.75,1.246H21.106A.8.8,0,0,0,21.857,16.985Z" transform="translate(0)" fill="none" stroke="#383838" stroke-linecap="round" stroke-linejoin="round" stroke-width="2"/>
    <path id="Path_642" data-name="Path 642" d="M18,25a2.9,2.9,0,0,1-3,2.769A2.9,2.9,0,0,1,12,25" transform="translate(-1.997 -6.769)" fill="none" stroke="#383838" stroke-linecap="round" stroke-linejoin="round" stroke-width="2"/>
  </g>
</svg>
