<svg xmlns="http://www.w3.org/2000/svg" width="13.5" height="13.5" viewBox="0 0 13.5 13.5">
  <path id="Icon_weather-time-3" data-name="Icon weather-time-3" d="M4.488,10.34a6.374,6.374,0,0,1,.877-3.267A6.5,6.5,0,0,1,7.738,4.7a6.488,6.488,0,0,1,5.778-.358,6.558,6.558,0,0,1,2.072,1.385,6.365,6.365,0,0,1,1.385,2.078,6.455,6.455,0,0,1-3.458,8.509,6.478,6.478,0,0,1-5.057,0A6.4,6.4,0,0,1,5,12.862,6.256,6.256,0,0,1,4.488,10.34Zm1.432,0a4.906,4.906,0,0,0,1.5,3.567,5.04,5.04,0,0,0,6.113.814,5.121,5.121,0,0,0,1.853-1.847,5.029,5.029,0,0,0,0-5.074,5.093,5.093,0,0,0-1.853-1.853,5.055,5.055,0,0,0-5.068,0A5.2,5.2,0,0,0,6.6,7.8,4.888,4.888,0,0,0,5.92,10.34Zm4.572,0V6.495a.479.479,0,1,1,.958,0v3.36h2.182a.473.473,0,0,1,.479.479.485.485,0,0,1-.139.341.45.45,0,0,1-.341.144H11.069a.443.443,0,0,1-.1.006.464.464,0,0,1-.473-.485Z" transform="translate(-4.238 -3.578)" fill="#cdba38" stroke="#cdba38" stroke-width="0.5"/>
</svg>
