<svg width="24" height="24" viewBox="0 0 24 24" fill="none" xmlns="http://www.w3.org/2000/svg">
<g id="Info">
<path id="Vector" d="M11.4885 16.75H12.623V11H11.4885V16.75ZM11.9995 9.4C12.1915 9.4 12.353 9.33695 12.4841 9.21085C12.6152 9.08477 12.6807 8.92603 12.6807 8.73463C12.6807 8.53546 12.6153 8.36964 12.4846 8.23718C12.3538 8.10471 12.1924 8.03848 12.0004 8.03848C11.8021 8.03848 11.6389 8.10471 11.5111 8.23718C11.3832 8.36964 11.3192 8.53546 11.3192 8.73463C11.3192 8.92603 11.3846 9.08477 11.5154 9.21085C11.6462 9.33695 11.8076 9.4 11.9995 9.4ZM12.0083 21.5C10.6924 21.5 9.45991 21.2506 8.31088 20.752C7.16184 20.2533 6.15555 19.5724 5.292 18.7092C4.42843 17.846 3.74721 16.8395 3.24833 15.6898C2.74944 14.54 2.5 13.3065 2.5 11.9892C2.5 10.6782 2.74933 9.44603 3.248 8.29255C3.74667 7.13907 4.42758 6.13472 5.29075 5.2795C6.15393 4.42427 7.16041 3.74721 8.31017 3.24833C9.45994 2.74944 10.6935 2.5 12.0108 2.5C13.3217 2.5 14.5539 2.74933 15.7074 3.248C16.8609 3.74667 17.8652 4.42342 18.7205 5.27825C19.5757 6.1331 20.2527 7.13834 20.7516 8.29398C21.2505 9.44959 21.5 10.6822 21.5 11.9917C21.5 13.3076 21.2506 14.54 20.752 15.6891C20.2533 16.8381 19.5765 17.8429 18.7217 18.7034C17.8669 19.5638 16.8616 20.2451 15.706 20.747C14.5504 21.249 13.3178 21.5 12.0083 21.5ZM12.0125 20.3654C14.3323 20.3654 16.3045 19.5506 17.9288 17.9211C19.5532 16.2916 20.3654 14.3138 20.3654 11.9875C20.3654 9.66761 19.5547 7.69549 17.9335 6.07113C16.3123 4.44678 14.3344 3.6346 12 3.6346C9.68203 3.6346 7.70831 4.44522 6.07883 6.06645C4.44934 7.68768 3.6346 9.66553 3.6346 12C3.6346 14.3179 4.44934 16.2916 6.07883 17.9211C7.70831 19.5506 9.68619 20.3654 12.0125 20.3654Z" fill="#49535E"/>
</g>
</svg>
