<svg xmlns="http://www.w3.org/2000/svg" xmlns:xlink="http://www.w3.org/1999/xlink" viewBox="0 0 2232.19 2232.19"><defs><style>.cls-1{fill:#2684ff;}.cls-2{fill:url(#linear-gradient);}.cls-3{fill:url(#linear-gradient-2);}</style><linearGradient id="linear-gradient" x1="156.83" y1="1552.8" x2="156.44" y2="1552.4" gradientTransform="matrix(1168.16, 0, 0, -1161.32, -181523.69, 1803842.09)" gradientUnits="userSpaceOnUse"><stop offset="0.18" stop-color="#0052cc"/><stop offset="1" stop-color="#2684ff"/></linearGradient><linearGradient id="linear-gradient-2" x1="156.86" y1="1552.8" x2="156.4" y2="1552.36" gradientTransform="matrix(1168.17, 0, 0, -1161.32, -182057.23, 1804377.16)" xlink:href="#linear-gradient"/></defs><g id="Layer_2" data-name="Layer 2"><g id="Layer_1-2" data-name="Layer 1"><path class="cls-1" d="M2139,0H1064c0,268,217.25,485.23,485.24,485.23h198V676.41c.17,267.75,217.17,484.75,484.91,484.93V93.25A93.24,93.24,0,0,0,2139,0Z"/><path class="cls-2" d="M1607.08,535.59H532.18c.17,267.74,217.17,484.75,484.92,484.92h198v191.8c.34,267.74,217.49,484.6,485.23,484.6V628.85a93.26,93.26,0,0,0-93.26-93.25Z"/><path class="cls-3" d="M1074.91,1070.87H0c0,268,217.25,485.23,485.23,485.23H683.86v191.18c.18,267.49,216.8,484.41,484.31,484.91V1164.13a93.27,93.27,0,0,0-93.26-93.26Z"/></g></g></svg>