<svg xmlns="http://www.w3.org/2000/svg" width="428.203" height="415.6" viewBox="0 0 428.203 415.6">
  <g id="Hidden-cuate" transform="translate(-36.47 -49.97)">
    <g id="freepik--background-complete--inject-17">
      <rect id="Rectangle_1181" data-name="Rectangle 1181" width="29.15" height="12.32" transform="translate(97.41 80.9) rotate(180)" fill="#ebebeb"/>
      <rect id="Rectangle_1182" data-name="Rectangle 1182" width="29.15" height="12.32" transform="translate(113.67 65.36) rotate(180)" fill="#ebebeb"/>
      <path id="Path_596" data-name="Path 596" d="M52,53.05l14.46-.28,7.32-.11c2.45,0,4.91,0,7.37-.06h.44v.45l.06,12.32v.5h-.5L66.58,65.8c-4.86,0-9.71-.11-14.57-.16h-.28v-.27c0-2.09.09-4.17.14-6.22Zm0,0,.14,6.22c0,2,.11,4.08.13,6.1L52,65.09c4.86,0,9.71-.16,14.57-.16l14.58-.06-.5.5V53.05l.45.44c-2.41,0-4.81,0-7.22-.05l-7.24-.11Z" fill="#ebebeb"/>
      <path id="Path_597" data-name="Path 597" d="M378,62.42l14.46-.28,7.33-.11c2.45-.05,4.91,0,7.36-.05h.45v.45l.05,12.32v.5h-.5l-14.57-.06c-4.86,0-9.72-.12-14.58-.17h-.27v-.27c0-2.09.09-4.16.13-6.22Zm0,0,.15,6.22c0,2,.11,4.08.13,6.1l-.28-.27c4.86-.06,9.72-.16,14.58-.17l14.57-.06-.5.5.06-12.32.44.45c-2.4,0-4.8,0-7.21-.06l-7.25-.11Z" fill="#ebebeb"/>
      <rect id="Rectangle_1183" data-name="Rectangle 1183" width="29.15" height="12.32" transform="translate(81.15 314.72) rotate(180)" fill="#ebebeb"/>
      <rect id="Rectangle_1184" data-name="Rectangle 1184" width="29.15" height="12.32" transform="translate(448 320.18) rotate(180)" fill="#ebebeb"/>
      <path id="Path_598" data-name="Path 598" d="M402.58,292.33l14.46-.27,7.33-.12c2.45,0,4.91,0,7.36-.05h.45v.45l.05,12.32v.5h-.5l-14.57-.06c-4.86,0-9.72-.11-14.58-.17h-.27v-.27c0-2.09.09-4.16.13-6.22Zm0,0,.15,6.22c0,2.05.11,4.08.13,6.1l-.28-.27c4.86-.05,9.72-.16,14.58-.17l14.57-.06-.5.5.06-12.32.44.45c-2.4,0-4.8,0-7.21-.06l-7.25-.11Z" fill="#ebebeb"/>
      <rect id="Rectangle_1185" data-name="Rectangle 1185" width="29.15" height="12.32" transform="translate(283.52 120.92) rotate(180)" fill="#ebebeb"/>
      <path id="Path_599" data-name="Path 599" d="M238.11,136.45l14.69-.28,7.25-.11c2.41-.05,4.81,0,7.21-.06l-.44.45-.06-12.32.5.5-14.57-.06c-4.86,0-9.72-.11-14.58-.16l.28-.28c0,2-.09,4.05-.13,6.1Zm0,0-.14-6.1c0-2-.11-4.13-.13-6.22v-.27h.27c4.86,0,9.72-.16,14.58-.16l14.57-.07h.51v.5l-.05,12.32v.45h-.45c-2.45,0-4.91,0-7.36-.06l-7.33-.11Z" fill="#ebebeb"/>
      <path id="Path_600" data-name="Path 600" d="M226.35,361l14.69-.28,7.25-.11c2.41,0,4.8,0,7.21-.05l-.45.44L255,348.65l.5.5-14.58-.07c-4.85,0-9.71-.11-14.57-.16l.27-.27c0,2-.08,4.05-.13,6.1Zm0,0-.14-6.1c-.05-2.05-.11-4.13-.13-6.21v-.27h.28c4.86-.05,9.72-.16,14.57-.16l14.58-.06h.5v.51L255.94,361v.45h-.44c-2.46,0-4.92,0-7.36-.06l-7.33-.11Z" fill="#ebebeb"/>
      <path id="Path_601" data-name="Path 601" d="M327.51,377.98l92.59,8,5.28-61.92-92.58-8.01Z" fill="#fff"/>
      <path id="Path_602" data-name="Path 602" d="M328.48,378.44l-1.37-.12.12-1.37.75.06-.06.63.62.05Z" fill="#dbdbdb"/>
      <path id="Path_603" data-name="Path 603" d="M417.06,386.1l-2-.18.07-.75,2,.18Zm-4-.35-2-.18.06-.74,2,.17Zm-4-.35-2-.17.07-.75,2,.17Zm-4-.35-2-.17.06-.75,2,.17Zm-4-.35-2-.17.06-.75,2,.18Zm-4-.34-2-.18.07-.75,2,.18Zm-4-.35-2-.18.06-.75,2,.18Zm-4-.35-2-.17.06-.75,2,.17Zm-4-.35-2-.17.07-.75,2,.17Zm-4-.35-2-.17.06-.75,2,.17Zm-4-.34-2-.18.07-.75,2,.18Zm-4-.35-2-.18.07-.75,2,.18Zm-4-.35-2-.17.06-.75,2,.17Zm-4-.35-2-.17.07-.75,2,.17Zm-4-.35-2-.17.06-.75,2,.17Zm-4-.34-2-.18.06-.75,2,.18Zm-4-.35-2-.18.07-.75,2,.18Zm-4-.35-2-.18.06-.74,2,.17Zm-4-.35-2-.17.07-.75,2,.17Zm-4-.35-2-.17.07-.75,2,.17Zm-4-.35-2-.17.06-.75,2,.18Zm-4-.34-2-.18.07-.75,2,.18Z" fill="#dbdbdb"/>
      <path id="Path_604" data-name="Path 604" d="M420.44,386.39l-1.37-.12.07-.75.62.06.05-.63.75.07Z" fill="#dbdbdb"/>
      <path id="Path_605" data-name="Path 605" d="M420.72,383.08,420,383l.16-1.93.75.06Zm.33-3.86-.74-.07.16-1.93.75.07Zm.33-3.87-.74-.06.16-1.94.75.07Zm.33-3.87-.74-.06.16-1.93.75.06Zm.33-3.86-.74-.07.16-1.93.75.06Zm.33-3.87-.75-.06.17-1.94.75.07Zm.33-3.87-.74-.06.16-1.93.75.06ZM423,356l-.74-.07.16-1.93.75.06Zm.33-3.87-.74-.06.16-1.94.75.07Zm.33-3.87-.74-.06.16-1.93.75.06Zm.33-3.86-.74-.07.16-1.93.75.06Zm.33-3.87-.74-.06.16-1.94.75.07Zm.33-3.87-.74-.06.16-1.93.75.06Zm.33-3.86-.74-.07.16-1.93.75.06Zm.33-3.87-.74-.06.16-1.94.75.07Z" fill="#dbdbdb"/>
      <path id="Path_606" data-name="Path 606" d="M425.67,325.08l-.74-.06.05-.62-.62-.06.06-.74,1.37.11Z" fill="#dbdbdb"/>
      <path id="Path_607" data-name="Path 607" d="M422.34,324.17l-2-.17.06-.75,2,.17Zm-4-.35-2-.17.07-.75,2,.17Zm-4-.35-2-.17.06-.75,2,.17Zm-4-.35-2-.17.07-.75,2,.18Zm-4-.34-2-.18.07-.75,2,.18Zm-4-.35-2-.18.06-.74,2,.17Zm-4-.35-2-.17.07-.75,2,.17Zm-4-.35-2-.17.06-.75,2,.17Zm-4-.35-2-.17.06-.75,2,.18Zm-4-.34-2-.18.07-.75,2,.18Zm-4-.35-2-.18.06-.74,2,.17Zm-4-.35-2-.17.06-.75,2,.17Zm-4-.35-2-.17.07-.75,2,.17Zm-4-.35-2-.17.06-.75,2,.18Zm-4-.34-2-.18.07-.75,2,.18Zm-4-.35-2-.18L360,318l2,.17Zm-4-.35-2-.18.06-.74,2,.17Zm-4-.35-2-.17.07-.75,2,.17Zm-4-.35-2-.17.06-.75,2,.18Zm-4-.35-2-.17.06-.75,2,.18Zm-4-.34-2-.18.07-.74,2,.17Zm-4-.35-2-.18.06-.74,2,.17Z" fill="#dbdbdb"/>
      <path id="Path_608" data-name="Path 608" d="M333.09,317.08l-.75-.07.12-1.37,1.37.12-.07.75-.62-.05Z" fill="#dbdbdb"/>
      <path id="Path_609" data-name="Path 609" d="M328.14,375.08l-.75-.06.17-1.94.74.07Zm.33-3.87-.75-.06.17-1.94.74.07Zm.33-3.86-.75-.07.17-1.93.74.06Zm.33-3.87-.75-.06.17-1.94.74.07Zm.33-3.87-.75-.06.17-1.93.74.06Zm.33-3.86-.75-.07.17-1.93.74.06Zm.33-3.87-.75-.07.17-1.93.74.07Zm.33-3.87-.75-.06.17-1.94.74.07Zm.33-3.86-.75-.07.17-1.93.74.06Zm.33-3.87-.75-.07.17-1.93.74.07Zm.33-3.87-.75-.06.17-1.94.74.07Zm.33-3.87-.75-.06.17-1.93.74.06Zm.33-3.86-.75-.07.17-1.93.74.07Zm.33-3.87-.75-.06.17-1.94.74.07Zm.33-3.86-.75-.07.17-1.93.74.06Z" fill="#dbdbdb"/>
      <path id="Path_610" data-name="Path 610" d="M331.69,374.45l84.9,7.34,4.62-54.21-84.9-7.34Z" fill="#ebebeb"/>
      <path id="Path_611" data-name="Path 611" d="M375.22,357.8a7.23,7.23,0,1,1,7.76-6.65A7.23,7.23,0,0,1,375.22,357.8Zm.95-12.38a5.19,5.19,0,1,0,3.58,1.782,5.19,5.19,0,0,0-3.58-1.782Z" fill="#dbdbdb"/>
      <path id="Path_612" data-name="Path 612" d="M375.14,360.62c-6.57-.51-12.77-4.13-18.44-10.78l-.66-.77.77-.67c7-6,14-8.6,20.92-7.71,10.59,1.35,16.92,10.35,17.18,10.73l.47.68-.57.61c-.32.33-7.95,8.25-18.62,8Zm-16.21-11.33c5.39,6,11.21,9.18,17.32,9.35,8.12.21,14.5-4.95,16.46-6.74-1.67-2.07-7.2-8.17-15.25-9.19-6.05-.77-12.28,1.44-18.53,6.58Z" fill="#dbdbdb"/>
      <rect id="Rectangle_1186" data-name="Rectangle 1186" width="40.27" height="2.04" transform="translate(359.817 362.951) rotate(-40.58)" fill="#dbdbdb"/>
      <path id="Path_613" data-name="Path 613" d="M150.85,167.24l120.19-26.68L248.17,58.47,127.99,85.14Z" fill="#dbdbdb"/>
      <path id="Path_614" data-name="Path 614" d="M203.34,59.39l42.47-9.42,2.36,8.5-44.9,9.96Z" fill="#dbdbdb"/>
      <path id="Path_615" data-name="Path 615" d="M150.95,167.22l120.18-26.68-8.09-80.25L142.86,86.96Z" fill="#ebebeb"/>
      <path id="Path_616" data-name="Path 616" d="M219.74,61.4l42.47-9.42.83,8.31-44.9,9.96Z" fill="#ebebeb"/>
      <path id="Path_617" data-name="Path 617" d="M206.78,121.2a7.23,7.23,0,1,1,5.49-8.62A7.23,7.23,0,0,1,206.78,121.2Zm-2.69-12.12a5.19,5.19,0,1,0,6.19,3.94A5.19,5.19,0,0,0,204.09,109.08Z" fill="#fff"/>
      <path id="Path_618" data-name="Path 618" d="M207.53,123.93c-6.44,1.43-13.42-.23-20.78-5l-.86-.54.55-.86c4.92-7.78,10.9-12.32,17.77-13.48,10.52-1.78,19.19,5,19.56,5.27l.65.52-.37.74c-.21.41-5.21,10.21-15.5,13.05Zm-18.81-6.12c6.92,4.21,13.4,5.52,19.29,3.9,7.83-2.16,12.43-9,13.79-11.24-2.2-1.49-9.27-5.72-17.27-4.35C198.52,107.14,193.2,111.07,188.72,117.81Z" fill="#fff"/>
      <rect id="Rectangle_1187" data-name="Rectangle 1187" width="40.27" height="2.04" transform="matrix(0.537, -0.843, 0.843, 0.537, 193.55, 130.595)" fill="#fff"/>
      <path id="Path_619" data-name="Path 619" d="M408.9,317.49l-72.35-28.02,35.97-92.88,53.72,20.81,11.78,24.91Z" fill="#fff"/>
      <path id="Path_620" data-name="Path 620" d="M408.77,317.84l-1.87-.73.27-.7,1.87.73Zm.83-1.12-.7-.27.72-1.86.7.27Zm-4.56-.33-1.87-.72.27-.7,1.87.72ZM401.31,315l-1.87-.73.27-.69,1.87.72Zm-3.73-1.45-1.87-.72.27-.7,1.87.72ZM411,313l-.69-.27.72-1.86.7.27Zm-17.19-.93-1.87-.73.27-.69,1.87.72Zm-3.73-1.45-1.87-.72.27-.7,1.87.72Zm22.37-1.35-.7-.27.72-1.86.7.27Zm-26.1-.09-1.87-.72.27-.7,1.87.72Zm-3.73-1.45-1.87-.72.27-.7,1.87.72Zm-3.73-1.44-1.87-.72.27-.7,1.87.72Zm35-.75-.7-.27.73-1.86.7.27Zm-38.73-.7-1.87-.72.27-.7,1.87.72Zm-3.73-1.44-1.87-.72.27-.7,1.87.72Zm-3.69-1.4-1.87-.73.27-.7,1.87.73Zm47.64-.15-.7-.27.72-1.86.7.27ZM364,300.5l-1.87-.72.27-.7,1.87.72Zm-3.73-1.44-1.87-.73.27-.7,1.87.73Zm56.54-1-.7-.27.73-1.86.7.27Zm-60.27-.46-1.87-.72.27-.7,1.87.72Zm-3.73-1.44-1.87-.73.27-.69,1.87.72Zm-3.73-1.45-1.87-.72.27-.7,1.87.72Zm69.18-.38-.7-.27.72-1.86.7.27Zm-72.91-1.06-1.87-.72.27-.7,1.87.72Zm-3.73-1.45-1.87-.72.27-.7,1.87.72Zm78.08-1.22-.7-.27.73-1.86.69.27Zm-81.81-.22-1.83-.71.28-.74.7.28h0l1.13.44Zm-.13-3-.69-.27.72-1.87.7.28Zm83.39-.47-.7-.27.72-1.86.7.27Zm-81.94-3.26-.7-.27.72-1.87.7.28Zm83.38-.47-.7-.27.72-1.86.7.27Zm-81.94-3.26-.7-.27.73-1.87.7.28Zm83.39-.47-.7-.27.72-1.86.7.27Zm-81.94-3.26-.7-.27.72-1.87.7.28Zm83.38-.47-.7-.27.72-1.86.7.27Zm-81.94-3.26-.7-.27.73-1.87.7.28Zm83.39-.47-.7-.27.72-1.86.7.27ZM345,268.7l-.7-.27.72-1.87.7.28Zm83.38-.47-.7-.27.72-1.86.7.27ZM346.44,265l-.7-.27.72-1.87.7.28Zm83.39-.47-.7-.27.72-1.86.7.27Zm-81.94-3.26-.7-.27.72-1.87.7.28Zm83.38-.47-.7-.27.72-1.86.7.27Zm-81.94-3.26-.7-.27.72-1.87.7.28Zm83.38-.47-.7-.27.73-1.86.7.27Zm-81.93-3.26-.7-.27.72-1.87.7.28Zm83.38-.47-.7-.27.72-1.86.7.27Zm-81.94-3.26-.7-.27.72-1.87.7.28Zm83.38-.47-.7-.27.73-1.86.7.27Zm-81.93-3.26-.7-.27.72-1.87.7.28Zm83.38-.47-.7-.27.72-1.86.7.27Zm-81.94-3.26-.7-.27.72-1.87.7.28Zm82.42-.43-.85-1.81.68-.32.85,1.81Zm-81-3.3-.69-.27.72-1.87.7.27Zm79.27-.32-.85-1.81.68-.32.85,1.81ZM358,235.13l-.7-.27L358,233l.7.27Zm76.11-.21-.85-1.8.68-.32.85,1.8Zm-74.67-3.52-.7-.27.73-1.87.7.27Zm73-.09-.85-1.81.68-.32.85,1.81Zm-1.71-3.62-.85-1.81.68-.32.85,1.81Zm-69.8,0-.7-.27.72-1.87.7.27ZM429,224.08l-.85-1.81.68-.32.85,1.81Zm-66.65-.14-.7-.27.73-1.87.69.27Zm64.94-3.48-.85-1.81.68-.32.85,1.81Zm-63.49-.25-.7-.27.72-1.87.7.27Zm61.59-2.75-1.87-.72.28-.7,1.86.72Zm-60.15-1-.7-.27.73-1.87.69.27Zm56.42-.46-1.87-.73.28-.69,1.86.72Zm-3.73-1.45-1.87-.72.28-.7,1.86.72Zm-3.73-1.44-1.87-.72.28-.7,1.86.72Zm-47.51-.38-.7-.27.72-1.87.7.27Zm43.78-1.07-1.87-.72.28-.7,1.86.72Zm-3.73-1.44-1.87-.72.28-.7,1.86.72ZM368.11,209l-.7-.27.72-1.87.7.27Zm34.88-.23-1.87-.72.28-.7,1.86.72Zm-3.73-1.44-1.87-.72.28-.7,1.86.72Zm-3.73-1.45-1.87-.72.28-.7,1.86.73Zm-26-.61-.7-.27.72-1.87.7.28Zm22.24-.83-1.87-.72.28-.7,1.86.72Zm-3.7-1.44-1.87-.73.28-.7,1.86.73Zm-3.73-1.45-1.87-.72.28-.7,1.86.72Zm-13.34,0-.7-.27.72-1.87.7.28Zm9.61-1.43-1.87-.73.28-.7,1.86.73Zm-3.73-1.45L375,198l.28-.7,1.86.72Zm-4.43-.85-.7-.27.56-1.45,1.11.43-.27.7-.41-.16Z" fill="#dbdbdb"/>
      <path id="Path_621" data-name="Path 621" d="M426.24,217.4l11.78,24.91-18.63-7.22Z" fill="#dbdbdb"/>
      <path id="Path_622" data-name="Path 622" d="M386.77,264.05a7.23,7.23,0,1,1,9.32-4.19,7.23,7.23,0,0,1-9.32,4.19Zm4.41-11.61a5.19,5.19,0,1,0,3,6.69,5.19,5.19,0,0,0-3-6.69Z" fill="#dbdbdb"/>
      <path id="Path_623" data-name="Path 623" d="M385.9,266.73c-6.17-2.34-11.09-7.56-14.65-15.54l-.41-.93.92-.42c8.39-3.79,15.88-4.3,22.25-1.5,9.77,4.29,13.31,14.71,13.45,15.15l.26.79-.72.41c-.4.24-10,5.68-20.11,2.39A7.3,7.3,0,0,1,385.9,266.73Zm-12.36-15.44c3.47,7.31,8.17,12,14,13.85,7.73,2.5,15.31-.65,17.69-1.81-1-2.46-4.6-9.87-12-13.13-5.64-2.44-12.23-2.08-19.69,1.09Z" fill="#dbdbdb"/>
      <rect id="Rectangle_1188" data-name="Rectangle 1188" width="40.27" height="2.04" transform="matrix(0.912, -0.41, 0.41, 0.912, 370.55, 264.614)" fill="#dbdbdb"/>
    </g>
    <g id="freepik--Shadow--inject-17">
      <ellipse id="Ellipse_76" data-name="Ellipse 76" cx="173.48" cy="11.97" rx="173.48" ry="11.97" transform="translate(76.52 441.63)" fill="#ebebeb"/>
    </g>
    <g id="freepik--Plant--inject-17">
      <path id="Path_624" data-name="Path 624" d="M417.59,309.89a40.641,40.641,0,0,1-.8,15.65,43.088,43.088,0,0,1-2.39,6.91c-1.25,2.86-2.55,5.66-2.23,8.79.3.2-.74.17-.77-.14-8.37-4.76-19.1-5.63-25.54-13.42-3.05-3.69-4.59-8.37-5.32-13-.79-5.1-1-10.73.3-15.75,1.11-4.25,3.59-8.34,7.58-10.42s9.51-2,13.84-.62C411.61,290.76,416.26,300.85,417.59,309.89Z" fill="#ffc727"/>
      <path id="Path_625" data-name="Path 625" d="M421.88,371.84c-1.14-3.8-2.28-7.61-3.45-11.41-2.3-7.44-4.69-14.85-7.33-22.17q-2.37-6.58-5-13a79.409,79.409,0,0,1,1-8.09c.7-3.24,1.72-6.38,2.66-9.55.06-.2-.25-.3-.33-.12-1.88,4.38-4.34,10-4.4,15.16q-3.06-7.31-6.57-14.4a61.71,61.71,0,0,1,.36-12,.143.143,0,1,0-.28-.06,42.581,42.581,0,0,0-.82,10.59c-1.8-3.55-3.69-7.06-5.71-10.52-.18-.31-.61,0-.45.32,3.15,6.05,6.06,12.24,8.8,18.5a40.25,40.25,0,0,0-13.12-7.6c-.21-.07-.37.23-.15.32a47.789,47.789,0,0,1,14.19,9.39q2.94,6.88,5.62,13.87c-5.23-5.13-12.4-8.51-19.33-10.32-.24-.06-.3.3-.07.37,8,2.42,14.25,7,20.35,12.43.71,1.88,1.4,3.77,2.09,5.66q3.87,10.76,7.38,21.64,1.69,5.22,3.32,10.45c1.17,3.75,2.09,7.72,3.61,11.34.15.35.77.27.69-.15C424.24,378.88,422.93,375.35,421.88,371.84Z" fill="#263238"/>
      <path id="Path_626" data-name="Path 626" d="M408,302.57a20.71,20.71,0,0,0-3,7.51.06.06,0,0,0,.12,0,66.264,66.264,0,0,1,3.26-7.37C408.5,302.51,408.14,302.35,408,302.57Z" fill="#263238"/>
      <path id="Path_627" data-name="Path 627" d="M393.07,320a21.941,21.941,0,0,0-7.51-2.52c-.07,0-.11.09,0,.12,1.21.5,2.48.85,3.7,1.32s2.42,1,3.66,1.47a.22.22,0,0,0,.15-.39Z" fill="#263238"/>
      <path id="Path_628" data-name="Path 628" d="M388.87,299a14.71,14.71,0,0,0-2.42-1.49.13.13,0,0,0-.14.21,13.839,13.839,0,0,0,2.38,1.54C388.85,299.39,389,299.13,388.87,299Z" fill="#263238"/>
      <path id="Path_629" data-name="Path 629" d="M445.8,338.32c-6,1.79-12.09,3.44-18.11,5.21-.53.16-10.72-19.37-7-29.43a32.83,32.83,0,0,1,20.48-19.44c4.31-1.46,9.6-2.69,14.14-1.68,4.05.89,6.9,4.2,8.21,8,1.79,5.17,1.2,11.33.22,16.61a28.91,28.91,0,0,1-5.93,13.55C454.58,334.94,450.5,336.92,445.8,338.32Z" fill="#ffc727"/>
      <path id="Path_630" data-name="Path 630" d="M454.54,319.76a79.466,79.466,0,0,1-11.82,4.65,50.412,50.412,0,0,0-7.89,2.86c2.55-5.68,5.34-11.23,8.3-16.74,3.9-1.12,8-2.88,10.93-5.64.16-.15-.05-.37-.22-.25-3.21,2.27-6.76,3.63-10.31,5.17q1.2-2.22,2.44-4.44c.23-.41-.34-.82-.61-.42a127.138,127.138,0,0,0-8.57,14.38,66.622,66.622,0,0,1-.62-13.18.09.09,0,0,0-.17,0,43.71,43.71,0,0,0,.15,14.48c-2.12,4.22-4,8.54-5.77,12.92-.69-2.63-1.59-5.22-2.18-7.87a36.232,36.232,0,0,1-.87-11.6c0-.12-.15-.12-.17,0a40.79,40.79,0,0,0,2.53,21.29c-1,2.64-2,5.28-2.85,7.93a157.772,157.772,0,0,0-8,41.82.26.26,0,0,0,.51,0,207.756,207.756,0,0,1,9-41.33q2.625-7.875,6-15.36c3.56-1.05,7.1-2.48,10.6-3.69a33.28,33.28,0,0,0,9.77-4.79.131.131,0,0,0-.18-.19Z" fill="#263238"/>
      <path id="Path_631" data-name="Path 631" d="M460.16,314.09c-3.69,1.31-7.18,3.15-10.87,4.48-.17.06-.07.33.11.29,3.89-.8,7.76-2,10.9-4.56C460.42,314.2,460.28,314,460.16,314.09Z" fill="#263238"/>
      <path id="Path_632" data-name="Path 632" d="M430.06,306.14c0-.2-.24-.31-.3-.11-1,3.4-1.71,7-.73,10.48a.13.13,0,1,0,.26,0C429.47,313,429.27,309.59,430.06,306.14Z" fill="#263238"/>
      <path id="Path_633" data-name="Path 633" d="M445.29,298.29a9,9,0,0,0-1.6,5.78c0,.13.21.2.25.05.45-1.95,1.2-3.72,1.79-5.61a.25.25,0,0,0-.44-.22Z" fill="#263238"/>
      <path id="Path_634" data-name="Path 634" d="M374.11,346.93c1.76,5.61,6,13.36,12.61,13.42,4.31,0,8.65-.47,13-.53,4.63-.07,9.27-.06,13.88.21.38,0-.55-13.85-11.67-20.61-3.12-1.89-6.93-2.49-10.46-3.26a48.049,48.049,0,0,0-12.36-1.28c-2.55.1-4.68.64-5.59,3.25S373.26,344.26,374.11,346.93Z" fill="#ffc727"/>
      <path id="Path_635" data-name="Path 635" d="M378.89,339.91c2.7.7,5.43,1.49,8.14,2.35a27.133,27.133,0,0,0-2.24-2.18,40.189,40.189,0,0,0-3.69-2.59c-.11-.07-.05-.27.09-.22a15.26,15.26,0,0,1,6.56,5.22c3.38,1.09,6.72,2.29,9.95,3.62a37,37,0,0,1,6.37,3.35,25.751,25.751,0,0,0-2.31-4c-1.47-1.91-3.47-3-5.4-4.34a.17.17,0,0,1,.17-.29,15.79,15.79,0,0,1,8.67,9.4,37.339,37.339,0,0,1,6.31,5.73c7.36,8.36,13.15,19.48,13.17,30.82,0,.27-.43.35-.48.07a62.94,62.94,0,0,0-14-30.14c-.53-.62-1.07-1.2-1.62-1.77a51.347,51.347,0,0,0-6.08-.45c-2.37,0-4.72.35-7.07.54-3.89.32-8.18.36-11.68-1.59-.15-.09-.05-.36.12-.29,7.81,2.84,16-.76,23.82.93a36.45,36.45,0,0,0-11.54-7.44l-.72-.29c-5,.6-10.29,1.91-15.17.28a.12.12,0,0,1,.06-.23c4.71,1.17,9.24-.31,13.89-.54-5.07-2-10.23-3.54-15.31-5.5C378.44,340.18,378.43,339.79,378.89,339.91Z" fill="#263238"/>
      <path id="Path_636" data-name="Path 636" d="M376.68,344.84a66.051,66.051,0,0,0,7.29.56.05.05,0,0,1,0,.1,15.19,15.19,0,0,1-7.36-.47.1.1,0,0,1,.07-.19Z" fill="#263238"/>
      <path id="Path_637" data-name="Path 637" d="M393.15,340a12,12,0,0,1,3.61,2.51.15.15,0,0,1-.18.24c-.62-.44-1.25-.86-1.88-1.27a18.748,18.748,0,0,1-1.76-1.12C392.78,340.26,393,340,393.15,340Z" fill="#263238"/>
      <path id="Path_638" data-name="Path 638" d="M432.42,358.09c-.09.18.18.36.28.16h0a.26.26,0,0,0,.18.11,108.378,108.378,0,0,0,13.58,2.37c3.68.33,7.92.54,11.13-1.6,4.37-2.89,7.24-10.62,4.88-15.54-2.79-5.83-11.2-2.66-15.42-.59a31,31,0,0,0-14.63,15.09Z" fill="#ffc727"/>
      <path id="Path_639" data-name="Path 639" d="M429.16,360.79a43,43,0,0,1,8.11-6.18,27.72,27.72,0,0,1,8.22-8.38c.16-.11.3.14.15.25a37.639,37.639,0,0,0-6.93,7.29,77.228,77.228,0,0,1,10.18-4.63,13.56,13.56,0,0,1,5.46-5.47s.11,0,.06.07a22.669,22.669,0,0,0-4.94,5.18c2.07-.77,4.16-1.49,6.25-2.18.19-.06.26.22.08.29-3.72,1.46-7.52,3-11.2,4.75a42.84,42.84,0,0,0,13.56,0,.1.1,0,1,1,0,.2,26.71,26.71,0,0,1-14.38.21A66.986,66.986,0,0,0,437,356a17.251,17.251,0,0,1,5.52.45,42.242,42.242,0,0,0,9.69,1.1.11.11,0,0,1,0,.22c-5.62,1-10.94-1.59-16.51-.92a42.543,42.543,0,0,0-5.8,4.74,43.28,43.28,0,0,0-8.47,11.94c-2.34,4.77-3.62,9.83-5.51,14.77a.182.182,0,1,1-.35-.1C417.23,378.45,422.07,367.72,429.16,360.79Z" fill="#263238"/>
      <path id="Path_640" data-name="Path 640" d="M446.11,347.45a6.392,6.392,0,0,1,1.44-1.75,5.73,5.73,0,0,1,1.66-1.24.06.06,0,0,1,.06.09c-.46.52-1.11.91-1.6,1.41s-.92,1.09-1.43,1.59a.082.082,0,0,1-.13-.1Z" fill="#263238"/>
      <path id="Path_641" data-name="Path 641" d="M455.39,350.47c.83-.21,1.71-.2,2.56-.37a23.594,23.594,0,0,0,2.48-.75.1.1,0,0,1,.08.19,8.29,8.29,0,0,1-5.12,1.19.13.13,0,1,1,0-.26Z" fill="#263238"/>
      <path id="Path_642" data-name="Path 642" d="M405.99,376.19l.74,8.38,2.5,28.29h22.16l3.13-28.29.92-8.38Z" fill="#37474f"/>
      <path id="Path_643" data-name="Path 643" d="M405.99,376.19l.74,8.38h27.79l.92-8.38Z" fill="#263238"/>
      <rect id="Rectangle_1189" data-name="Rectangle 1189" width="33.84" height="6.8" transform="translate(437.64 380.7) rotate(180)" fill="#37474f"/>
    </g>
    <g id="freepik--Padlock--inject-17">
      <path id="Path_644" data-name="Path 644" d="M433.42,87.85v33.27H424V87.85c0-12.65-9.61-22.94-21.44-22.94S381.15,75.2,381.15,87.85v33.27h-9.4V87.85c0-18.12,13.83-32.86,30.83-32.86S433.42,69.73,433.42,87.85Z" fill="#dbdbdb"/>
      <path id="Path_645" data-name="Path 645" d="M371.75,100.5l9.4.38v20.24h-9.4Z" fill="#a6a6a6"/>
      <path id="Path_646" data-name="Path 646" d="M433.42,103.01v18.11h-9.41V102.63Z" fill="#a6a6a6"/>
      <rect id="Rectangle_1190" data-name="Rectangle 1190" width="85.77" height="68.5" transform="translate(359.7 106.67)" fill="#455a64"/>
      <rect id="Rectangle_1191" data-name="Rectangle 1191" width="42.89" height="68.5" transform="translate(402.58 106.67)" fill="#37474f"/>
      <path id="Path_647" data-name="Path 647" d="M406.21,141.87l3.59,17H394.56l3.59-17a7.62,7.62,0,1,1,8.06,0Z" fill="#263238"/>
    </g>
    <g id="freepik--Floor--inject-17">
      <path id="Path_648" data-name="Path 648" d="M36.47,412.86l53.38-.24,53.38-.09L250,412.37l106.77.16,53.38.09,53.38.24-53.38.25-53.38.09L250,413.36l-106.77-.17-53.38-.08Z" fill="#263238"/>
    </g>
    <g id="freepik--Character--inject-17">
      <path id="Path_649" data-name="Path 649" d="M94.86,145C88.1,153.33,62,190.2,64.92,202.44c1.78,7.53,10.13,6.22,14.87,4.32,5.55-2.23,20.23-46.14,22.09-55.07C103.66,143.18,101.49,136.84,94.86,145Z" fill="#f7a9a0"/>
      <path id="Path_650" data-name="Path 650" d="M94.86,145C88.1,153.33,62,190.2,64.92,202.44c1.78,7.53,10.13,6.22,14.87,4.32,5.55-2.23,20.23-46.14,22.09-55.07C103.66,143.18,101.49,136.84,94.86,145Z" fill="#455a64"/>
      <path id="Path_651" data-name="Path 651" d="M102.47,147.06a26.2,26.2,0,0,1-.59,4.63c-1.86,8.93-16.54,52.84-22.1,55.07-2.81,1.14-6.92,2.06-10.15,1l25.84-63.52,1.89-4.62,1.31,1.91Z" fill="#37474f"/>
      <path id="Path_652" data-name="Path 652" d="M97.3,182.6s.15,9.92,1.89,12.58c.62.94,3.82,2.38,3.82,2.38h54.42s1.71-6.27-.17-9.26c-5.71-9.1-18.25-25.07-40.58-42.26-8.39-6.46-19-7.7-21.84-1.26-1.61,3.68-8.74,21.29-7.44,28.72C88.55,180.05,97.3,182.6,97.3,182.6Z" fill="#455a64"/>
      <path id="Path_653" data-name="Path 653" d="M104.68,178.69a50.422,50.422,0,0,1,7.27-.21c1.21.07,2.4.19,3.6.34.59.08,1.19.13,1.79.19a7.879,7.879,0,0,0,1.88,0s.07.08,0,.09a12.813,12.813,0,0,1-1.75.31,12.48,12.48,0,0,1-1.73,0c-1.22-.06-2.44-.18-3.66-.25-2.47-.14-4.93-.29-7.4-.25C104.58,178.9,104.57,178.7,104.68,178.69Z" fill="#263238"/>
      <path id="Path_654" data-name="Path 654" d="M99.23,181.94a52.732,52.732,0,0,1,5.83-1.43c1-.18,2-.3,3-.4.47-.05,1-.08,1.43-.11s1.06,0,1.58-.05c0,0,.07.08,0,.09-.49.05-1,.19-1.46.27l-1.48.25-3,.51c-2,.31-3.94.65-5.9,1a.08.08,0,0,1,0-.13Z" fill="#263238"/>
      <path id="Path_655" data-name="Path 655" d="M117.43,155c9,10.59,30.95,39,42.7,39.83,10,.73,28.61-7.39,33.75-10.62,3-1.86-7.31-21.39-11-22s-18.44,5.5-21.2,5.87-25.63-15.84-37.54-22.18C109.13,137.84,110.37,146.65,117.43,155Z" fill="#f7a9a0"/>
      <path id="Path_656" data-name="Path 656" d="M177.81,164.66s5-5.73,7.77-7.76,15.82-5.81,16.8-3c1.26,3.58-5.85,7.25-9.57,8.6,0,0,2.93,8.28-1.6,12S177.81,164.66,177.81,164.66Z" fill="#f7a9a0"/>
      <path id="Path_657" data-name="Path 657" d="M190.4,185.57c2.9-.3,16.08-2.88,19.59-4.41s13.28-6.69,12.37-9.5-3.88-1.53-3.88-1.53,3.78-2.83,2.61-5.57-5.74-.59-5.74-.59,3.67-3.19,2.31-5.85-5.59.28-5.59.28,3.49-2.76,1.45-4.47c-2.45-2.06-8.32,3.75-12.32,5.16-.91.32-18.87,5.16-18.87,5.16Z" fill="#f7a9a0"/>
      <path id="Path_658" data-name="Path 658" d="M212.43,158.16c-4.32,4.26-7,5.38-12.79,6.66-.12,0-.1.2,0,.18,5.83-.73,9.33-1.65,13-6.65C212.83,158.11,212.64,158,212.43,158.16Z" fill="#263238"/>
      <path id="Path_659" data-name="Path 659" d="M215.69,163.62c-4.88,4-7.72,5.28-13.74,7.07-.09,0,0,.17,0,.15,6-1.26,9.52-2.27,13.86-6.94C216.05,163.69,215.91,163.44,215.69,163.62Z" fill="#263238"/>
      <path id="Path_660" data-name="Path 660" d="M218.17,170.22c-5,3.56-8.06,5.06-14.13,6a.12.12,0,0,0,0,.23c6.29-.41,10.11-2.24,14.2-6.11C218.54,170.11,218.48,170,218.17,170.22Z" fill="#263238"/>
      <path id="Path_661" data-name="Path 661" d="M202.4,155c-1.21,4.1-6.2,5.55-9.71,7.12a.35.35,0,0,0-.13.56c1,3.55,1.37,8.86-1.11,11.86a.09.09,0,0,0,.12.13c3.1-2.87,3.16-8.11,1.82-11.93,3.63-1.55,8.57-3.23,9.05-7.73Z" fill="#263238"/>
      <path id="Path_662" data-name="Path 662" d="M189.62,190.63l-16.23-28.19s-11.12,4.47-12.37,4c-11.48-4.41-29.69-18.09-37.39-22.14-12.88-6.77-15.51-.82-5.52,14.5,5.57,8.54,20.2,28.39,39.34,36.45C164.06,198,189.62,190.63,189.62,190.63Z" fill="#455a64"/>
      <path id="Path_663" data-name="Path 663" d="M178.67,187.69c-.33-.74-.68-1.46-1-2.19-.71-1.48-1.43-2.94-2.15-4.41-1.43-2.92-3-5.79-4.52-8.65-.88-1.63-1.71-3.29-2.67-4.88a.08.08,0,0,0-.14.07c.62,1.5,1.38,3,2.07,4.44s1.38,3,2.1,4.43c1.44,2.92,2.94,5.8,4.47,8.68.43.8.83,1.63,1.3,2.42.24.4.44.82.69,1.22s.53.79.76,1.2h.08C179.29,189.22,179,188.44,178.67,187.69Z" fill="#263238"/>
      <path id="Path_664" data-name="Path 664" d="M120.19,161.87c1.28,1.67,2.58,3.32,4,4.92s2.72,3.2,4.14,4.76c2.82,3.11,5.74,6.13,8.82,9a109.266,109.266,0,0,0,9.65,8.06c1.71,1.21,3.41,2.45,5.22,3.51s3.65,2.08,5.48,3.13a65.18,65.18,0,0,1-11-6.17,96.583,96.583,0,0,1-9.83-8,123.936,123.936,0,0,1-8.75-9.15,102.1,102.1,0,0,1-7.73-10.06Z" fill="#263238"/>
      <path id="Path_665" data-name="Path 665" d="M120.23,164.24c.78.55,1.48,1.13,2.21,1.7l1.08.87c.35.29.72.57,1.07.89a8,8,0,0,1-2.46-1.37,8.23,8.23,0,0,1-1.9-2.09Z" fill="#263238"/>
      <path id="Path_666" data-name="Path 666" d="M89.83,137c2.51,3.67,5.31,4.64,6.51,7a25.889,25.889,0,0,1,1.82,5.92s2.43-3.13,4.32-5.22c1.56-1.72,7.13-2.89,10.26-4.58,1.64-.88,5.79-4.54,6.47-6.92.35-1.22,1.47-15.48-2.85-18.77-4-3.07-9.38-3.49-14.78-3A10.45,10.45,0,0,0,92.24,118C89.72,123.78,87.41,133.44,89.83,137Z" fill="#37474f"/>
      <path id="Path_667" data-name="Path 667" d="M108.33,142.18c-.26,1-5.3,7.76-10.06,7.48-1.55-.09-1.43-8.58-1.43-8.58l-.13-.62-1.87-8.8,10.38-6.51,1.5-.86s.35,2.44.76,5.49l.06.43a1.168,1.168,0,0,0,.07.49c.07.46.13.92.19,1.39s.09.69.12,1.06.08.74.12,1.11a57.3,57.3,0,0,1,.29,7.92Z" fill="#f7a9a0"/>
      <path id="Path_668" data-name="Path 668" d="M94.84,131.66l1.54,7.25a25.7,25.7,0,0,0,11.94-.24c0-1.32-.13-2.88-.28-4.41a10.174,10.174,0,0,0-.11-1.11c-.04-.37-.09-.71-.13-1.06s-.13-.93-.19-1.38a1.238,1.238,0,0,0-.07-.5c-.07-.17,0-.29-.07-.44-.4-3-.75-5.48-.75-5.48l-1.5.86Z" fill="#263238"/>
      <path id="Path_669" data-name="Path 669" d="M119,118.73c2.75,15.55-6.25,19-9.61,19.54-3,.53-13.47,2-17.81-13.21s2-21.37,8.91-23S116.25,103.19,119,118.73Z" fill="#f7a9a0"/>
      <path id="Path_670" data-name="Path 670" d="M113.5,116.34a9.649,9.649,0,0,1-1,.3,1.84,1.84,0,0,1-1.13.11.55.55,0,0,1-.32-.61,1.41,1.41,0,0,1,1.06-.94,2,2,0,0,1,1.48,0,.6.6,0,0,1-.09,1.14Z" fill="#263238"/>
      <path id="Path_671" data-name="Path 671" d="M102.69,121.15c.37,0,.72-.06,1.09-.09a1.73,1.73,0,0,0,1.09-.3.55.55,0,0,0,.09-.68,1.37,1.37,0,0,0-1.32-.5,2,2,0,0,0-1.37.55.6.6,0,0,0,.42,1.02Z" fill="#263238"/>
      <path id="Path_672" data-name="Path 672" d="M104.91,122.27s-.07.06-.07.1c.18,1.07.2,2.32-.72,2.8v.06C105.3,124.91,105.25,123.25,104.91,122.27Z" fill="#263238"/>
      <path id="Path_673" data-name="Path 673" d="M103.81,121.27c-1.74.1-1.42,3.57.19,3.48S105.27,121.19,103.81,121.27Z" fill="#263238"/>
      <path id="Path_674" data-name="Path 674" d="M103.15,121.52c-.29.22-.55.6-.92.67s-.77-.25-1.08-.58h-.05c.05.66.37,1.32,1.09,1.36s1.07-.61,1.18-1.29C103.39,121.6,103.26,121.43,103.15,121.52Z" fill="#263238"/>
      <path id="Path_675" data-name="Path 675" d="M111.67,121.15c0-.05.08,0,.08.09,0,1.08.24,2.31,1.23,2.62v.06C111.77,123.81,111.52,122.17,111.67,121.15Z" fill="#263238"/>
      <path id="Path_676" data-name="Path 676" d="M112.57,120c1.73-.22,2.05,3.25.45,3.45S111.12,120.16,112.57,120Z" fill="#263238"/>
      <path id="Path_677" data-name="Path 677" d="M113.31,120.13c.3.16.6.47.93.46s.63-.41.84-.79h0c.08.66-.07,1.37-.7,1.56s-1.05-.36-1.27-1C113.12,120.26,113.2,120.07,113.31,120.13Z" fill="#263238"/>
      <path id="Path_678" data-name="Path 678" d="M104.81,131.92c.26.25.52.6.92.62a2.76,2.76,0,0,0,1.15-.29l.05.06a1.45,1.45,0,0,1-1.36.61,1.15,1.15,0,0,1-.86-.95C104.69,131.91,104.77,131.89,104.81,131.92Z" fill="#263238"/>
      <path id="Path_679" data-name="Path 679" d="M107,129.51a13.94,13.94,0,0,0,4.25-.28c.12,0,.19-.29.2-.41h0l-.4-2.18c.31.1,1.88.54,1.79.13a53.36,53.36,0,0,0-3-10.36.095.095,0,0,0-.18.06c.56,3.27,1.7,6.43,2.32,9.72a6.13,6.13,0,0,0-1.73-.25c-.1,0,.47,2.38.48,2.74a36.721,36.721,0,0,1-3.87.39C106.38,129.09,106.32,129.46,107,129.51Z" fill="#263238"/>
      <path id="Path_680" data-name="Path 680" d="M92,124.19c2.57.14,3-5.25,3-5.25s5.22-.11,6.77-7.65a11.55,11.55,0,0,1-2.17,6.26s9.18-1.19,12.87-9c0,0-1.45,4-2.87,5.38a10.75,10.75,0,0,0,5.64-4.34s1.72,4.41,3,5.6c0,0-.75-16.08-15.62-14,0,0-9.32.84-12.5,8.3S92,124.19,92,124.19Z" fill="#263238"/>
      <path id="Path_681" data-name="Path 681" d="M95.35,125.74s-3.87-4.6-6-3.18,1.09,8.31,3.79,9.05a2.67,2.67,0,0,0,3.44-1.75Z" fill="#f7a9a0"/>
      <path id="Path_682" data-name="Path 682" d="M90.33,124.51v.07c1.9.58,3,2.2,3.85,3.9a1.47,1.47,0,0,0-2.23-.21s0,.11.06.1a1.63,1.63,0,0,1,1.85.41,8.05,8.05,0,0,1,1,1.38c.1.15.39,0,.31-.14h0C95,127.63,92.86,124.52,90.33,124.51Z" fill="#263238"/>
      <path id="Path_683" data-name="Path 683" d="M84.21,141.41c3,3.33,9.3,1.27,10.37,2.75.64.88,3.49,5.67,3.33,7.06a27.81,27.81,0,0,0,6.69-3.68,36.18,36.18,0,0,1,10.6-6c1.71-.57,7-.9,8.09-5.65,1.63-7.26-1.35-33.22-15.93-35.83-9.61-1.72-16.7,3.75-19.91,12.44-1,2.64-1.81,7.18-2.88,11C82.55,130.67,80.87,137.73,84.21,141.41Zm8-18c.78-2.75,2.68-5,7.19-6.92,3.17-1.33,12.11-4.11,17,.3,3.26,2.93,2.46,14.16,2.14,15.38-.55,2.06-2.83,4.77-6.3,6.84-1.84,1.1-7.64,3.92-9.17,5.13a32.94,32.94,0,0,0-5,5.75s.66-4.16-.53-6.51-4.75-4.6-6.49-6.9C90,135,91,127.68,92.24,123.42Z" fill="#455a64"/>
      <path id="Path_684" data-name="Path 684" d="M115.41,141.41l-2.27,1.09c-.75.38-1.54.68-2.24,1.12-1.41.88-2.78,1.84-4.14,2.82-.68.49-1.38,1-2.09,1.42l-2.17,1.28a15.35,15.35,0,0,1-4.59,2.08,10,10,0,0,0,2.26-1.07c.72-.43,1.42-.88,2.11-1.35s1.45-.89,2.14-1.33,1.36-1,2.06-1.43a45.749,45.749,0,0,1,4.25-2.72A49.4,49.4,0,0,1,115.41,141.41Z" fill="#263238"/>
      <path id="Path_685" data-name="Path 685" d="M97.37,149.23a28,28,0,0,0-2-3.66,18.107,18.107,0,0,0-1.2-1.67,4.86,4.86,0,0,0-1.55-1.33,3.6,3.6,0,0,1,1.84,1.07,9.59,9.59,0,0,1,1.33,1.66,12.6,12.6,0,0,1,1,1.89,8,8,0,0,1,.58,2.04Z" fill="#263238"/>
      <path id="Path_686" data-name="Path 686" d="M114.26,143a6,6,0,0,0-1.41.2,3.29,3.29,0,0,0-1.25.6,6.09,6.09,0,0,1-2.71,1,7.931,7.931,0,0,0,1.33-.51,9.291,9.291,0,0,0,1.24-.68,3.18,3.18,0,0,1,1.35-.57,4.159,4.159,0,0,1,1.45-.04Z" fill="#263238"/>
      <path id="Path_687" data-name="Path 687" d="M118.78,130.27a6,6,0,0,1-.09,2.19,5,5,0,0,1-.83,2.08,9.61,9.61,0,0,1-1.53,1.59,12.341,12.341,0,0,1-1.75,1.29,22.611,22.611,0,0,0,2.9-3.15,6.85,6.85,0,0,0,.78-1.92,15.807,15.807,0,0,0,.52-2.08Z" fill="#263238"/>
      <path id="Path_688" data-name="Path 688" d="M89.65,129.75a8.64,8.64,0,0,0-.08,2.73,10.752,10.752,0,0,0,.17,1.36,3.09,3.09,0,0,0,.45,1.19,12,12,0,0,0,1.75,2.06,14.581,14.581,0,0,1,1.83,2.09c-.65-.65-1.36-1.23-2.07-1.84a9.43,9.43,0,0,1-1.93-2.05,3.34,3.34,0,0,1-.52-1.39,12.792,12.792,0,0,1-.11-1.4A6,6,0,0,1,89.65,129.75Z" fill="#263238"/>
      <path id="Path_689" data-name="Path 689" d="M102.65,146.27a61.359,61.359,0,0,1,1.65,10.37c.19,2.44-.25,11.24-3,11.08s1.36-6.06,1.88-10.72-.92-8-1.24-10.73Z" fill="#263238"/>
      <path id="Path_690" data-name="Path 690" d="M96.43,145.44a58,58,0,0,0-2.78,9.64c-.47,2.29-1.09,10.7,1.52,10.87s-.58-5.91-.52-10.4,1.81-7.45,2.44-10Z" fill="#263238"/>
      <path id="Path_691" data-name="Path 691" d="M70.26,208.18c-7.77-1-4.87-15.79-.55-19.15,10.14-7.89,20.78-15.47,32.23-17.41,3.68-.63,16.61,13.9,12,18.69C106.57,198,83,209.86,70.26,208.18Z" fill="#f7a9a0"/>
      <path id="Path_692" data-name="Path 692" d="M92.48,184.68a45,45,0,0,1,1-17.38c1-4,4.83-10.65,6.67-13,2.74-3.53,16.47-16.56,19.7-13.3,2.93,3-10.29,12.65-10.29,12.65s12.47-11,15.34-6.76-13.53,13.17-13.53,13.17,13.07-11,15.34-6.17c1.72,3.62-12.67,12.58-12.67,12.58s11.3-9.35,13.22-5.7c2.13,4-10.63,13.14-10.63,13.14,1.22,5.38,1.34,13.51-2.67,16.41C113,191,92.48,184.68,92.48,184.68Z" fill="#f7a9a0"/>
      <path id="Path_693" data-name="Path 693" d="M105,157.15c1.42-1.34,2.85-2.7,4.38-3.91s3.11-2.37,4.75-3.43a33.22,33.22,0,0,1,6.77-3.53c-4.12,1.93-9.67,6.18-11.2,7.39s-3.12,2.34-4.66,3.54C105,157.24,105,157.18,105,157.15Z" fill="#263238"/>
      <path id="Path_694" data-name="Path 694" d="M109.27,162.77c1.88-1.64,3.7-3.33,5.65-4.88s3.94-2.83,6-4.24c.15-.11.16,0,0,.13-2,1.48-3.72,3-5.7,4.52s-4,2.94-5.92,4.51C109.27,162.84,109.24,162.79,109.27,162.77Z" fill="#263238"/>
      <path id="Path_695" data-name="Path 695" d="M112.06,168.24a58.1,58.1,0,0,1,9.28-7c.16-.1.15.06,0,.17-3.11,2.2-5.61,4.12-9.17,6.94C112.1,168.38,112,168.3,112.06,168.24Z" fill="#263238"/>
      <path id="Path_696" data-name="Path 696" d="M124.08,150.83a6.78,6.78,0,0,0,1-1.92,2.82,2.82,0,0,0-.12-2h-.06a2.33,2.33,0,0,1-.2,2.15,11.19,11.19,0,0,1-1.11,1.69,14.621,14.621,0,0,1-1.39,1.56,20.443,20.443,0,0,1-1.53,1.41h.05a7.27,7.27,0,0,1,3-1,3,3,0,0,1,1.51.08,1.92,1.92,0,0,1,1.17,2.27,3.75,3.75,0,0,1-.68,1.22,28.621,28.621,0,0,1-2,2.49c-.41.43-.82.86-1.25,1.27s-.89.78-1.29,1.21c0,0,.08.1.11.08.4-.15,3.28-1.57,4.63-1.25a1.73,1.73,0,0,1,1.4,1.43,3.51,3.51,0,0,1-.49,2.16,26.2,26.2,0,0,1-2.25,3.22s0,.07.06,0a34.6,34.6,0,0,0,2.48-3.12,3.41,3.41,0,0,0,.62-2.29,2.11,2.11,0,0,0-1.26-1.7,3.51,3.51,0,0,0-2.24.09,24.4,24.4,0,0,0-2.58,1.1c.32-.24,1.79-1.57,2.21-2a25.582,25.582,0,0,0,2.3-2.68,2.62,2.62,0,0,0,.53-2.81,2.39,2.39,0,0,0-2.45-1.24A6.2,6.2,0,0,0,122,153c.19-.15.39-.3.57-.47A11.639,11.639,0,0,0,124.08,150.83Z" fill="#263238"/>
      <path id="Path_697" data-name="Path 697" d="M115.24,149.54a25.344,25.344,0,0,1,2.47-1.78,18.839,18.839,0,0,1,2.68-1.48,4.9,4.9,0,0,1,3.07-.51,2.54,2.54,0,0,1,1.37.81,2,2,0,0,1,.42,1.47,2.1,2.1,0,0,0-1.86-1.91,5.26,5.26,0,0,0-2.8.59C118.77,147.55,117,148.59,115.24,149.54Z" fill="#263238"/>
      <path id="Path_698" data-name="Path 698" d="M90.65,174.32l18.24,23.86S74.82,212,68.63,208c-4.5-2.91-5-10.41-1-16.9C70.42,186.62,90.65,174.32,90.65,174.32Z" fill="#455a64"/>
      <path id="Path_699" data-name="Path 699" d="M99.46,197.19q-.66-1-1.35-2-1.38-2-2.78-4c-1.85-2.67-3.79-5.29-5.76-7.88-1.11-1.47-2.18-3-3.37-4.42a.072.072,0,0,0-.12.08c.84,1.4,1.8,2.73,2.71,4.09s1.8,2.73,2.74,4.07q2.79,4,5.71,7.91c.54.73,1.06,1.49,1.64,2.2.3.36.56.75.87,1.11s.64.69.93,1.06h.07C100.31,198.62,99.92,197.89,99.46,197.19Z" fill="#263238"/>
      <path id="Path_700" data-name="Path 700" d="M91.2,175l-.6-.67h.08l-4.92,3.3-4.94,3.27c-3.29,2.17-6.56,4.36-9.75,6.7a48.932,48.932,0,0,1,4.51-3.87c1.56-1.22,3.19-2.35,4.83-3.46s3.32-2.15,5-3.16,3.42-2,5.19-2.89h0v.05Z" fill="#263238"/>
      <path id="Path_701" data-name="Path 701" d="M71.62,185.67a3,3,0,0,1,.91-.78,6.171,6.171,0,0,1,1.07-.51,7.581,7.581,0,0,1,1.12-.34,6.7,6.7,0,0,1,1.18-.16,13.93,13.93,0,0,1-2.13,1l-1.07.4A9.7,9.7,0,0,0,71.62,185.67Z" fill="#263238"/>
      <path id="Path_702" data-name="Path 702" d="M50.23,452.27c2.31.72,67.91-.84,70.36-2.49,1-.61,1.28-10.18,1.34-21.76v-.36c0-2.38-1.54-42.38-1.54-42.38l-42.88.9,2.09,42v.71s-24.84,11.83-27.35,13.93S47.92,451.57,50.23,452.27Z" fill="#f7a9a0"/>
      <path id="Path_703" data-name="Path 703" d="M121.88,433.78c-.14,8.85-.5,15.5-1.29,16-2.46,1.65-68.05,3.21-70.36,2.49s-.45-7.34,2.05-9.43c1.53-1.28,11.35-6.17,18.8-9.8-5,2.72-12.94,10,15.69,6.42C104.43,437.24,115.6,435.14,121.88,433.78Z" fill="#263238"/>
      <path id="Path_704" data-name="Path 704" d="M71.08,433s13.9-4.76,25.84,5.06" fill="#263238"/>
      <path id="Path_705" data-name="Path 705" d="M144.64,197.59s-22.43,112.62-24,120.93c-.26,1.34,5.65,46.49,6,71.63a30.68,30.68,0,0,1-4.73,17.18l-44.46,2s-4.87-6.59-5-13.36c-.34-21.74,3.93-66.75,5.46-79.41,2-16.62,27.41-119,27.41-119Z" fill="#263238"/>
      <path id="Path_706" data-name="Path 706" d="M119.49,399.08c-7.1.1-5.06,0-12.15.14-3.47.09-26.27.66-29.49,1.31a.07.07,0,0,0,0,.14c3.26.43,26.05-.54,29.51-.69,7.09-.31,5-.3,12.13-.69a.11.11,0,0,0,0-.21Z" fill="#37474f"/>
      <path id="Path_707" data-name="Path 707" d="M114.83,318.86c.49-6.2,1.91-12.34,3.08-18.44q1.78-9.39,3.56-18.77,3.525-18.585,7-37.17c2.69-14,6.52-27.68,9.35-41.65.07-.32.54-.17.49.15-4.39,24.84-10.22,49.31-14.92,74.1q-1.78,9.39-3.56,18.77c-1.15,6.1-2.45,12.19-3.44,18.32a50.88,50.88,0,0,0-.69,9.63c.08,3,.4,6.05.67,9.08.58,6.34,1.17,12.69,1.72,19q.91,10.47,1.81,20.94c.6,7.1,1.27,14.21,1.62,21.32a.08.08,0,0,1-.16,0c-1.67-12.52-2.66-25.16-3.85-37.74q-.9-9.51-1.77-19C115.21,331.28,114.33,325,114.83,318.86Z" fill="#37474f"/>
      <path id="Path_708" data-name="Path 708" d="M110,197.59l14,103.85c6.67-33.63,20.65-103.85,20.65-103.85Z" fill="#37474f"/>
      <path id="Path_709" data-name="Path 709" d="M127.23,457.49c2.38.43,67.31-9,69.55-11,.87-.72,0-10.26-1.29-21.76l-.05-.36c-.27-2.37-6.65-41.88-6.65-41.88l-42.45,6.07L153.48,430l.12.71s-23.23,14.74-25.47,17.13S124.86,457.07,127.23,457.49Z" fill="#f7a9a0"/>
      <path id="Path_710" data-name="Path 710" d="M196.13,430.47c.93,8.81,1.38,15.45.65,16-2.24,1.93-67.17,11.4-69.55,11s-1.32-7.24.9-9.62c1.37-1.44,10.52-7.49,17.48-12-4.68,3.3-11.63,11.49,16.35,4.47C179.23,436,190.06,432.59,196.13,430.47Z" fill="#263238"/>
      <path id="Path_711" data-name="Path 711" d="M145.61,435.88s13.23-6.4,26.27,1.9" fill="#263238"/>
      <path id="Path_712" data-name="Path 712" d="M150,413.23l43.18-4.8s4.21-11.34,1.62-22.12c-5.47-22.73-21-57.67-22.13-61.67-1.7-6.11-5.47-55.32-9.13-85.74,0,0,6.95-16.47-6.06-41.34H105.26s3.49,23.67,9.48,38.68c0,0-1.11-.85,5.93,3,0,0,4.32,77.29,7.48,91.92,2.6,12.08,7.15,50.79,12.54,70.35C142.59,408.47,150,413.23,150,413.23Z" fill="#263238"/>
      <path id="Path_713" data-name="Path 713" d="M190.23,398.93c-7.07.65-5,.36-12.1,1.1-3.45.36-26.14,2.74-29.3,3.64-.07,0-.05.14,0,.14,3.28.17,25.92-2.61,29.36-3,7-.87,5-.7,12-1.65C190.38,399.11,190.36,398.91,190.23,398.93Z" fill="#37474f"/>
      <path id="Path_714" data-name="Path 714" d="M112.76,235.21a86.356,86.356,0,0,1,13.58,6.33.154.154,0,0,1-.13.28c-4.57-2-9.24-3.85-13.7-6.06a.3.3,0,0,1,.25-.55Z" fill="#37474f"/>
      <path id="Path_715" data-name="Path 715" d="M111.3,203.82c0-.16.29-.19.29,0,0,5.43.31,10.21.77,15.28.21,2.36,2.11,15.38,6.19,14.43.69-.16,1-.83,1.15-1.86a16.53,16.53,0,0,0-.55-4c-.45-2.73-.82-5.47-1.05-8.22a74.08,74.08,0,0,1,.17-15.4.13.13,0,0,1,.26,0,141.321,141.321,0,0,0,1.24,21.27c.52,3.38,2.22,8.48-1.32,9s-5.94-8-6.38-10.34a78.22,78.22,0,0,1-.77-20.16Z" fill="#37474f"/>
      <path id="Path_716" data-name="Path 716" d="M118.45,233.86a22,22,0,0,1,.91,2.7,6.08,6.08,0,0,1,.39,2.22.16.16,0,0,1-.29.06,7.89,7.89,0,0,1-.95-2.16c-.31-.83-.64-1.66-.92-2.5a.46.46,0,0,1,.86-.32Z" fill="#37474f"/>
      <path id="Path_717" data-name="Path 717" d="M154,200.09a43.83,43.83,0,0,1,5.73,15.82,48.6,48.6,0,0,1-.55,16.92,37.65,37.65,0,0,0-.76,9.93c.24,3.39.7,6.78,1.08,10.16q1.11,9.95,2.21,19.9c1.47,13.21,2.81,26.45,4.55,39.62a162.224,162.224,0,0,0,3.63,19.19c1.61,6.24,3.51,12.4,5.42,18.55,3.93,12.69,7.89,25.38,11.67,38.11.48,1.6.94,3.19,1.39,4.79,0,.13-.16.17-.2.05-4.29-12.51-8.07-25.21-12-37.83-3.87-12.33-7.81-24.63-9.82-37.43-1-6.51-1.72-13.08-2.47-19.63l-2.25-19.89c-.74-6.56-1.5-13.13-2.23-19.69-.36-3.32-.73-6.64-1.09-10a69.517,69.517,0,0,1-.69-9.56,74.15,74.15,0,0,1,1.38-9.38,43.6,43.6,0,0,0,.5-8.69,45.14,45.14,0,0,0-4.05-16.87c-.59-1.31-.92-2.66-1.63-3.91C153.62,200,153.83,199.74,154,200.09Z" fill="#37474f"/>
      <path id="Path_718" data-name="Path 718" d="M138.64,202.3c.84,2.21,1.79,4.38,2.81,6.51a16.24,16.24,0,0,0,3.48,5.27,13,13,0,0,0,5.28,2.68,30.652,30.652,0,0,0,3.42.75,23.8,23.8,0,0,1,3.47.63.24.24,0,0,1,0,.45,15.59,15.59,0,0,1-3.74.1,22.54,22.54,0,0,1-3.57-.49,12.81,12.81,0,0,1-5.78-2.95,15.45,15.45,0,0,1-3.54-5.76,37.48,37.48,0,0,1-2.11-7.11.15.15,0,0,1,.28-.08Z" fill="#37474f"/>
    </g>
    <g id="freepik--Folder--inject-17">
      <path id="Path_719" data-name="Path 719" d="M123.5,333.2H364.67l-8.88-166.71H114.62Z" fill="#ffc727"/>
      <path id="Path_720" data-name="Path 720" d="M269.66,149.23h85.21l.92,17.26H265.68Z" fill="#ffc727"/>
      <g id="Group_1513" data-name="Group 1513" opacity="0.1">
        <path id="Path_721" data-name="Path 721" d="M123.5,333.2H364.67l-8.88-166.71H114.62Z"/>
        <path id="Path_722" data-name="Path 722" d="M269.66,149.23h85.21l.92,17.26H265.68Z"/>
      </g>
      <path id="Path_723" data-name="Path 723" d="M394.1,218.09,291.26,325.75,153.05,193.74l76.36-79.94,52.82-2.57Z" fill="#ffc727"/>
      <path id="Path_724" data-name="Path 724" d="M394.1,218.09,291.26,325.75,153.05,193.74l76.36-79.94,52.82-2.57Z" fill="#fff" opacity="0.6"/>
      <path id="Path_725" data-name="Path 725" d="M229.41,113.8l52.82-2.57-26.48,27.72Z" fill="#ffc727"/>
      <path id="Path_726" data-name="Path 726" d="M229.41,113.8l52.82-2.57-26.48,27.72Z" fill="#fff" opacity="0.4"/>
      <rect id="Rectangle_1192" data-name="Rectangle 1192" width="82.78" height="4.91" transform="translate(247 148.896) rotate(133.69)" fill="#fff"/>
      <rect id="Rectangle_1193" data-name="Rectangle 1193" width="82.78" height="4.91" transform="translate(255.959 157.459) rotate(133.69)" fill="#fff"/>
      <rect id="Rectangle_1194" data-name="Rectangle 1194" width="82.78" height="4.91" transform="translate(264.91 166.015) rotate(133.69)" fill="#fff"/>
      <rect id="Rectangle_1195" data-name="Rectangle 1195" width="121.29" height="4.91" transform="translate(300.471 146.723) rotate(133.69)" fill="#fff"/>
      <rect id="Rectangle_1196" data-name="Rectangle 1196" width="121.29" height="4.91" transform="translate(309.432 155.279) rotate(133.69)" fill="#fff"/>
      <rect id="Rectangle_1197" data-name="Rectangle 1197" width="121.29" height="4.91" transform="translate(318.397 163.835) rotate(133.69)" fill="#fff"/>
      <rect id="Rectangle_1198" data-name="Rectangle 1198" width="121.29" height="4.91" transform="translate(327.348 172.391) rotate(133.69)" fill="#fff"/>
      <rect id="Rectangle_1199" data-name="Rectangle 1199" width="121.29" height="4.91" transform="translate(336.299 180.947) rotate(133.69)" fill="#fff"/>
      <rect id="Rectangle_1200" data-name="Rectangle 1200" width="121.29" height="4.91" transform="translate(345.258 189.51) rotate(133.69)" fill="#fff"/>
      <rect id="Rectangle_1201" data-name="Rectangle 1201" width="121.29" height="4.91" transform="translate(354.226 198.059) rotate(133.69)" fill="#fff"/>
      <rect id="Rectangle_1202" data-name="Rectangle 1202" width="121.29" height="4.91" transform="translate(363.177 206.614) rotate(133.69)" fill="#fff"/>
      <rect id="Rectangle_1203" data-name="Rectangle 1203" width="121.29" height="4.91" transform="translate(372.135 215.167) rotate(133.69)" fill="#fff"/>
      <path id="Path_727" data-name="Path 727" d="M127.83,255.51l147.25-17.37-11.72-98.46L116.11,157.04Z" fill="#ebebeb"/>
      <path id="Path_728" data-name="Path 728" d="M133.22,248.66l135.02-15.93-10.27-86.2L122.94,162.45Z" fill="#fff"/>
      <path id="Path_729" data-name="Path 729" d="M138.39,187.88a14.78,14.78,0,1,0,3.09-10.91,14.79,14.79,0,0,0-3.09,10.91Z" fill="#dbdbdb"/>
      <path id="Path_730" data-name="Path 730" d="M175.16,243.85l93.01-10.97-53.94-57.55Z" fill="#ebebeb"/>
      <path id="Path_731" data-name="Path 731" d="M138.71,248.18l76.78-9.06L172.26,202.6Z" fill="#dbdbdb"/>
      <path id="Path_732" data-name="Path 732" d="M123.68,333.2H364.86l18.6-156.92H142.28Z" fill="#ffc727"/>
      <path id="Path_733" data-name="Path 733" d="M300.17,160.03h85.21l-1.92,16.25H293.35Z" fill="#ffc727"/>
      <path id="Path_734" data-name="Path 734" d="M250,268.91a14.17,14.17,0,1,1,14.16-14.167A14.17,14.17,0,0,1,250,268.91Zm0-24.33a10.17,10.17,0,1,0,10.16,10.16A10.17,10.17,0,0,0,250,244.58Z" fill="#fff"/>
      <path id="Path_735" data-name="Path 735" d="M250.27,274.44c-12.91,0-25.56-6.15-37.64-18.28l-1.4-1.41,1.4-1.41c12.72-12.79,26.08-18.93,39.7-18.24,20.88,1.06,34.6,17.68,35.17,18.39l1,1.26-1,1.26c-.57.7-14.29,17.32-35.17,18.37C251.65,274.42,251,274.44,250.27,274.44ZM216.9,254.75c11.44,11,23.29,16.25,35.23,15.64,15.9-.8,27.58-11.85,31.14-15.64C279.7,251,268,239.88,252.1,239.1,240.16,238.51,228.33,243.77,216.9,254.75Z" fill="#fff"/>
      <rect id="Rectangle_1204" data-name="Rectangle 1204" width="78.89" height="4" transform="translate(220.687 281.233) rotate(-45)" fill="#fff"/>
    </g>
  </g>
</svg>
