<svg width="250" height="200" viewBox="0 0 250 200" fill="none" xmlns="http://www.w3.org/2000/svg">
<rect width="250" height="200" fill="white"/>
<path fill-rule="evenodd" clip-rule="evenodd" d="M63 134H154C154.515 134 155.017 133.944 155.5 133.839C155.983 133.944 156.485 134 157 134H209C212.866 134 216 130.866 216 127C216 123.134 212.866 120 209 120H203C199.134 120 196 116.866 196 113C196 109.134 199.134 106 203 106H222C225.866 106 229 102.866 229 99C229 95.134 225.866 92 222 92H200C203.866 92 207 88.866 207 85C207 81.134 203.866 78 200 78H136C139.866 78 143 74.866 143 71C143 67.134 139.866 64 136 64H79C75.134 64 72 67.134 72 71C72 74.866 75.134 78 79 78H39C35.134 78 32 81.134 32 85C32 88.866 35.134 92 39 92H64C67.866 92 71 95.134 71 99C71 102.866 67.866 106 64 106H24C20.134 106 17 109.134 17 113C17 116.866 20.134 120 24 120H63C59.134 120 56 123.134 56 127C56 130.866 59.134 134 63 134ZM226 134C229.866 134 233 130.866 233 127C233 123.134 229.866 120 226 120C222.134 120 219 123.134 219 127C219 130.866 222.134 134 226 134Z" fill="#F3F7FF"/>
<path d="M167 148H189.428M64 148H85.4541H64ZM51.1279 148H58H51.1279ZM194.128 148H197H194.128Z" stroke="#1F64E7" stroke-width="2.5" stroke-linecap="round" stroke-linejoin="round"/>
<path d="M98 43.3027L109.1 55.7559M150.1 43.3027L139 55.7559L150.1 43.3027ZM124 39V55.7559V39Z" stroke="#75A4FE" stroke-width="2.5" stroke-linecap="round" stroke-linejoin="round"/>
<path fill-rule="evenodd" clip-rule="evenodd" d="M92.7976 71H155.404L149.798 79.4098L157.273 85.0164H90.9287L99.3385 79.4098L92.7976 71Z" fill="#E8F0FE"/>
<rect x="89" y="83" width="71" height="75" rx="2" fill="white"/>
<path fill-rule="evenodd" clip-rule="evenodd" d="M93.585 124.006V89.6453C93.585 88.2297 94.7452 87.082 96.1764 87.082L157.153 151.164C157.153 153.052 155.642 154.582 153.778 154.582H96.9599C95.096 154.582 93.585 153.052 93.585 151.164V138.395V134.93V124.006ZM93.585 131.425V127.577V131.425Z" fill="#E8F0FE"/>
<path d="M90 124.463V86.8853C90 85.3371 91.2705 84.082 92.8377 84.082H157.761C158.782 84.082 159.609 84.9187 159.609 85.9509V154.164C159.609 156.228 157.954 157.902 155.913 157.902H93.6956C91.6546 157.902 90 156.228 90 154.164V140.199V136.41M90 132.576V128.368" stroke="#1F64E7" stroke-width="2.5" stroke-linecap="round"/>
<path d="M91.8636 84.082V72.8689C91.8636 71.8368 92.6145 71.0001 93.5408 71.0001H155.596C156.523 71.0001 157.273 71.8368 157.273 72.8689V84.082" stroke="#1F64E7" stroke-width="2.5"/>
<path d="M109.15 103.705C110.957 103.705 112.421 102.241 112.421 100.435C112.421 98.6283 110.957 97.1641 109.15 97.1641C107.344 97.1641 105.88 98.6283 105.88 100.435C105.88 102.241 107.344 103.705 109.15 103.705Z" fill="#E8F0FE" stroke="#1F64E7" stroke-width="2.5" stroke-linecap="round"/>
<path d="M139.986 103.705C141.793 103.705 143.257 102.241 143.257 100.435C143.257 98.6283 141.793 97.1641 139.986 97.1641C138.18 97.1641 136.716 98.6283 136.716 100.435C136.716 102.241 138.18 103.705 139.986 103.705Z" fill="#E8F0FE" stroke="#1F64E7" stroke-width="2.5" stroke-linecap="round"/>
<path d="M139.519 103.705C139.519 111.962 132.825 118.656 124.568 118.656C116.311 118.656 109.617 111.962 109.617 103.705" stroke="#1F64E7" stroke-width="2.5" stroke-linecap="round"/>
<path d="M92.8547 71.9316L99.4331 78.4253C99.8262 78.8133 99.8303 79.4464 99.4423 79.8395C99.3752 79.9075 99.2986 79.9656 99.215 80.0118L91.8633 84.0821" stroke="#1F64E7" stroke-width="2.5" stroke-linecap="round"/>
<path d="M156.44 71.999L150.145 78.4195C149.758 78.8138 149.764 79.447 150.159 79.8336C150.225 79.8982 150.299 79.9533 150.38 79.9975L157.867 84.0818" stroke="#1F64E7" stroke-width="2.5" stroke-linecap="round"/>
</svg>
