<svg xmlns="http://www.w3.org/2000/svg" width="32.9" height="27.41" viewBox="0 0 32.9 27.41">
  <path id="Icon_ionic-md-folder-open" data-name="Icon ionic-md-folder-open" d="M32.017,10.861H18.7L15.567,6.75H5.383A3.434,3.434,0,0,0,2.25,10.4v20.1A3.434,3.434,0,0,0,5.383,34.16H32.017a3.434,3.434,0,0,0,3.133-3.655V14.516A3.434,3.434,0,0,0,32.017,10.861ZM32.8,30.505a.868.868,0,0,1-.783.914H5.383a.868.868,0,0,1-.783-.914V13.6H32.017a.868.868,0,0,1,.783.914Z" transform="translate(-2.25 -6.75)" fill="#4a4a4a"/>
</svg>
