<svg xmlns="http://www.w3.org/2000/svg" xmlns:xlink="http://www.w3.org/1999/xlink" width="72" height="72" viewBox="0 0 72 72">
  <defs>
    <filter id="Ellipse_185" x="0" y="0" width="72" height="72" filterUnits="userSpaceOnUse">
      <feOffset dy="3" input="SourceAlpha"/>
      <feGaussianBlur stdDeviation="3" result="blur"/>
      <feFlood flood-opacity="0.161"/>
      <feComposite operator="in" in2="blur"/>
      <feComposite in="SourceGraphic"/>
    </filter>
    <clipPath id="clip-path">
      <rect id="Rectangle_1383" data-name="Rectangle 1383" width="30.727" height="30.727" fill="#4472c4"/>
    </clipPath>
  </defs>
  <g id="Group_2652" data-name="Group 2652" transform="translate(9 6)">
    <g id="Group_2626" data-name="Group 2626" transform="translate(0 0)">
      <g transform="matrix(1, 0, 0, 1, -9, -6)" filter="url(#Ellipse_185)">
        <g id="Ellipse_185-2" data-name="Ellipse 185" transform="translate(9 6)" fill="#fff" stroke="#4472c4" stroke-width="0.5" opacity="1">
          <circle cx="27" cy="27" r="27" stroke="none"/>
          <circle cx="27" cy="27" r="26.75" fill="none"/>
        </g>
      </g>
    </g>
    <g id="Group_2638" data-name="Group 2638" transform="translate(11.637 11.637)" opacity="0.5">
      <g id="Group_2635" data-name="Group 2635" clip-path="url(#clip-path)">
        <path id="Path_765" data-name="Path 765" d="M15.277,2a13.29,13.29,0,1,0,13.3,13.29A13.283,13.283,0,0,0,15.277,2Zm.013,23.922A10.632,10.632,0,1,1,25.922,15.29,10.629,10.629,0,0,1,15.29,25.922Zm.664-17.277H13.961v7.974l6.977,4.186,1-1.635-5.98-3.548Z" transform="translate(0.658 0.658)" fill="#4472c4"/>
      </g>
    </g>
  </g>
</svg>
