<svg width="25" height="24" viewBox="0 0 25 24" fill="none" xmlns="http://www.w3.org/2000/svg">
<path d="M12.5016 21.5C11.1877 21.5 9.95268 21.2506 8.79655 20.752C7.6404 20.2533 6.63472 19.5765 5.7795 18.7217C4.92427 17.8669 4.24721 16.8616 3.74833 15.706C3.24944 14.5504 3 13.3156 3 12.0017C3 10.6877 3.24933 9.45268 3.748 8.29655C4.24667 7.1404 4.92342 6.13472 5.77825 5.2795C6.6331 4.42427 7.63834 3.74721 8.79398 3.24833C9.94959 2.74944 11.1844 2.5 12.4983 2.5C13.8122 2.5 15.0473 2.74933 16.2034 3.248C17.3596 3.74667 18.3652 4.42342 19.2205 5.27825C20.0757 6.1331 20.7527 7.13834 21.2516 8.29398C21.7505 9.44959 22 10.6844 22 11.9983C22 13.3122 21.7506 14.5473 21.252 15.7034C20.7533 16.8596 20.0765 17.8652 19.2217 18.7205C18.3669 19.5757 17.3616 20.2527 16.206 20.7516C15.0504 21.2505 13.8156 21.5 12.5016 21.5ZM12.4991 20.3654C14.8341 20.3654 16.8123 19.555 18.4335 17.9342C20.0547 16.3134 20.8654 14.3353 20.8654 12C20.8654 10.8846 20.6548 9.81438 20.2337 8.78935C19.8126 7.7643 19.2108 6.85965 18.4283 6.0754L12.5075 12V3.6346C10.1743 3.6346 8.19549 4.44491 6.57113 6.06553C4.94678 7.68613 4.1346 9.66397 4.1346 11.9991C4.1346 14.3341 4.94491 16.3123 6.56553 17.9335C8.18613 19.5547 10.164 20.3654 12.4991 20.3654Z" fill="#49535E" style="fill:#49535E;fill:color(display-p3 0.2863 0.3255 0.3686);fill-opacity:1;"/>
</svg>
