<svg width="19" height="19" viewBox="0 0 19 19" fill="none" xmlns="http://www.w3.org/2000/svg">
<circle cx="9.5" cy="9.5" r="9.5" fill="#707070"/>
<g clip-path="url(#clip0_6164_4233)">
<path d="M8.95833 7.73957V9.73291C8.95833 9.92249 9.06124 10.1012 9.22374 10.1987L10.9137 11.2008C11.1087 11.3146 11.3579 11.2496 11.4717 11.06C11.5854 10.865 11.5258 10.6158 11.3308 10.5021L9.77624 9.57582V7.73416C9.77083 7.51749 9.58666 7.33332 9.36458 7.33332C9.14249 7.33332 8.95833 7.51749 8.95833 7.73957ZM14.375 8.14582V5.28041C14.375 5.03666 14.0825 4.91749 13.9146 5.09082L12.9504 6.05499C11.97 5.07457 10.5725 4.51124 9.04499 4.64666C6.77541 4.85249 4.90666 6.67791 4.65749 8.94749C4.33249 11.8833 6.62374 14.375 9.49999 14.375C11.9862 14.375 14.0392 12.5117 14.3371 10.1067C14.375 9.78166 14.1204 9.49999 13.7954 9.49999C13.5246 9.49999 13.2971 9.70041 13.2646 9.96582C13.0317 11.8562 11.4012 13.3187 9.44583 13.2917C7.43624 13.2646 5.74083 11.5692 5.70833 9.55416C5.67583 7.44166 7.39291 5.70832 9.49999 5.70832C10.5454 5.70832 11.4933 6.13624 12.1812 6.81874L11.0492 7.95082C10.8758 8.12416 10.995 8.41666 11.2387 8.41666H14.1042C14.2558 8.41666 14.375 8.29749 14.375 8.14582Z" fill="white"/>
</g>
<defs>
<clipPath id="clip0_6164_4233">
<rect width="13" height="13" fill="white" transform="translate(3 3)"/>
</clipPath>
</defs>
</svg>
