<svg xmlns="http://www.w3.org/2000/svg" xmlns:xlink="http://www.w3.org/1999/xlink" width="32.9" height="27.41" viewBox="0 0 32.9 27.41">
  <defs>
    <clipPath id="clip-path">
      <rect id="Rectangle_90" data-name="Rectangle 90" width="32.9" height="27.41" fill="#fff"/>
    </clipPath>
  </defs>
  <g id="Group_12" data-name="Group 12" clip-path="url(#clip-path)">
    <path id="Path_1" data-name="Path 1" d="M112.583,78.413l-2.419,3-.542.673L108.1,80.866l1.2-1.521h-.438q-6.247,0-12.494,0a10.782,10.782,0,0,1-5.044-1.15,10.9,10.9,0,0,1-6-8.053,11.033,11.033,0,0,1,5.66-11.609c.055-.029.113-.052.2-.093l.882,1.723A9.046,9.046,0,0,0,89.625,62a8.827,8.827,0,0,0-2.43,7.339,9.018,9.018,0,0,0,7.339,7.891A7.568,7.568,0,0,0,96,77.379q6.5.018,13.008.008h.3l-1.2-1.518,1.519-1.219,1.654,2.067c.368.46.733.922,1.1,1.38a1.813,1.813,0,0,0,.2.187Z" transform="translate(-79.683 -54.672)" fill="#fff"/>
    <path id="Path_2" data-name="Path 2" d="M241.234,0l1.389,1.4-1.456,1.292c4.613,1.195,7.591,3.922,8.718,8.459a10.811,10.811,0,0,1-2.3,9.547l-.728-.609-.726-.608c2.335-3.183,2.826-6.557,1.018-10.109a8.577,8.577,0,0,0-6.036-4.58l.99,1.545L240.476,7.4l-2.591-3.991c.824-.848,1.638-1.683,2.449-2.521.282-.291.557-.589.836-.884Z" transform="translate(-222.599)" fill="#fff"/>
    <path id="Path_3" data-name="Path 3" d="M0,352.174H7.091v1.965H6.707q-3.163,0-6.326,0c-.127,0-.254.018-.381.028v-1.994" transform="translate(0 -329.462)" fill="#fff"/>
    <path id="Path_4" data-name="Path 4" d="M190.981,152.926v1.959h-1.832c-.29.33-.213.563.077.806.358.3.682.643,1,.951l-1.416,1.41c-.352-.359-.739-.74-1.108-1.137a.315.315,0,0,0-.417-.079.321.321,0,0,0-.241.352c.012.534,0,1.068,0,1.62H185.1c0-.524-.008-1.045,0-1.566a.361.361,0,0,0-.245-.412.331.331,0,0,0-.435.118c-.359.38-.727.752-1.078,1.114l-1.387-1.413c.336-.335.711-.71,1.089-1.083.115-.114.226-.2.125-.4-.09-.183-.166-.284-.394-.275-.521.021-1.044.007-1.588.007v-1.97c.538,0,1.06-.013,1.581.006a.368.368,0,0,0,.4-.269c.094-.2-.006-.29-.123-.405-.375-.366-.746-.736-1.1-1.083l1.39-1.391c.294.3.65.617.958.979a.493.493,0,0,0,.807.078v-1.835h1.942c0,.539.008,1.062,0,1.584a.359.359,0,0,0,.257.406c.213.09.311,0,.436-.124.365-.376.735-.746,1.079-1.093l1.4,1.4c-.372.365-.759.751-1.153,1.128a.257.257,0,0,0-.077.357c.077.143.105.279.328.271.543-.02,1.088-.007,1.666-.007m-4.892-.225a1.223,1.223,0,0,0-1.24,1.208,1.242,1.242,0,0,0,1.231,1.227,1.214,1.214,0,0,0,1.21-1.2,1.192,1.192,0,0,0-1.2-1.232" transform="translate(-169.549 -139.398)" fill="#fff"/>
  </g>
</svg>
