<svg xmlns="http://www.w3.org/2000/svg" xmlns:xlink="http://www.w3.org/1999/xlink" width="37.332" height="34.145" viewBox="0 0 37.332 34.145">
  <defs>
    <clipPath id="clip-path">
      <rect id="Rectangle_90" data-name="Rectangle 90" width="37.332" height="34.145" fill="#4a4a4a"/>
    </clipPath>
  </defs>
  <g id="Group_12" data-name="Group 12" clip-path="url(#clip-path)">
    <path id="Path_1" data-name="Path 1" d="M116.278,83.321l-2.745,3.732-.615.838L111.2,86.377l1.366-1.895h-.5q-7.089,0-14.177,0a11.344,11.344,0,0,1-5.724-1.433,13.516,13.516,0,0,1-6.811-10.031c-.972-5.727,1.721-11.782,6.423-14.462.063-.036.129-.065.232-.116l1,2.147a10.405,10.405,0,0,0-2.781,2.284,11.683,11.683,0,0,0-2.757,9.143c.553,5.027,3.8,8.829,8.328,9.83a7.851,7.851,0,0,0,1.662.188c4.92.015,9.84.009,14.76.01h.339l-1.365-1.891,1.724-1.519,1.877,2.576c.417.573.832,1.149,1.252,1.72a2.145,2.145,0,0,0,.231.233Z" transform="translate(-78.946 -53.746)" fill="#4a4a4a"/>
    <path id="Path_2" data-name="Path 2" d="M241.685,0l1.576,1.739-1.652,1.61A13.214,13.214,0,0,1,251.5,13.886,14.447,14.447,0,0,1,248.9,25.779l-.826-.759-.824-.757c2.649-3.965,3.207-8.168,1.155-12.593a9.9,9.9,0,0,0-6.849-5.705l1.123,1.924-1.849,1.326-2.94-4.972c.935-1.056,1.859-2.1,2.779-3.141.32-.363.632-.734.948-1.1Z" transform="translate(-220.54)" fill="#4a4a4a"/>
    <path id="Path_3" data-name="Path 3" d="M0,352.174H8.046v2.448H7.61q-3.589,0-7.178,0c-.144,0-.288.023-.432.035v-2.485" transform="translate(0 -323.881)" fill="#4a4a4a"/>
    <path id="Path_4" data-name="Path 4" d="M192.3,153.889v2.441h-2.078a.635.635,0,0,0,.087,1c.406.375.773.8,1.139,1.185l-1.607,1.757c-.4-.448-.838-.922-1.257-1.416a.337.337,0,0,0-.473-.1.4.4,0,0,0-.274.438c.014.665,0,1.33,0,2.018h-2.213c0-.653-.009-1.3,0-1.951a.457.457,0,0,0-.278-.513c-.236-.111-.35-.02-.494.147-.407.474-.825.937-1.223,1.388l-1.574-1.76c.381-.417.807-.885,1.235-1.349.131-.142.256-.249.142-.5-.1-.227-.188-.354-.447-.342-.592.026-1.185.008-1.8.008V153.89c.61,0,1.2-.016,1.794.007.252.01.353-.1.454-.335s-.006-.361-.14-.5c-.426-.456-.846-.917-1.243-1.349l1.577-1.732c.333.369.738.768,1.087,1.219.281.363.545.435.916.1v-2.286h2.2c0,.672.01,1.323,0,1.973a.451.451,0,0,0,.291.505c.242.113.353.006.5-.155.414-.468.834-.929,1.224-1.362l1.587,1.741c-.422.455-.861.935-1.309,1.405a.339.339,0,0,0-.088.445c.087.178.12.348.372.338.617-.025,1.235-.008,1.891-.008m-5.551-.281a1.456,1.456,0,0,0-1.407,1.5,1.483,1.483,0,0,0,1.4,1.528,1.449,1.449,0,0,0,1.373-1.5,1.427,1.427,0,0,0-1.363-1.535" transform="translate(-167.981 -137.036)" fill="#4a4a4a"/>
  </g>
</svg>
