<svg id="Component_44_1" data-name="Component 44 – 1" xmlns="http://www.w3.org/2000/svg" width="24.272" height="24.272" viewBox="0 0 24.272 24.272">
  <g id="Path_499" data-name="Path 499" fill="#fff">
    <path d="M 20.22687530517578 23.77225494384766 L 4.045375347137451 23.77225494384766 C 2.090455532073975 23.77225494384766 0.5000055432319641 22.18180465698242 0.5000055432319641 20.22687530517578 L 0.5000055432319641 4.045375347137451 C 0.5000055432319641 2.090455532073975 2.090455532073975 0.5000055432319641 4.045375347137451 0.5000055432319641 L 20.22687530517578 0.5000055432319641 C 22.18180465698242 0.5000055432319641 23.77225494384766 2.090455532073975 23.77225494384766 4.045375347137451 L 23.77225494384766 20.22687530517578 C 23.77225494384766 22.18180465698242 22.18180465698242 23.77225494384766 20.22687530517578 23.77225494384766 Z" stroke="none"/>
    <path d="M 4.045375823974609 0.9999961853027344 C 2.366146087646484 0.9999961853027344 0.9999961853027344 2.366146087646484 0.9999961853027344 4.045375823974609 L 0.9999961853027344 20.22687530517578 C 0.9999961853027344 21.90609550476074 2.366146087646484 23.27224540710449 4.045375823974609 23.27224540710449 L 20.22687530517578 23.27224540710449 C 21.90609550476074 23.27224540710449 23.27224540710449 21.90609550476074 23.27224540710449 20.22687530517578 L 23.27224540710449 4.045375823974609 C 23.27224540710449 2.366146087646484 21.90609550476074 0.9999961853027344 20.22687530517578 0.9999961853027344 L 4.045375823974609 0.9999961853027344 M 4.045375823974609 -3.814697265625e-06 L 20.22687530517578 -3.814697265625e-06 C 22.46107482910156 -3.814697265625e-06 24.27224540710449 1.811176300048828 24.27224540710449 4.045375823974609 L 24.27224540710449 20.22687530517578 C 24.27224540710449 22.46107482910156 22.46107482910156 24.27224540710449 20.22687530517578 24.27224540710449 L 4.045375823974609 24.27224540710449 C 1.811176300048828 24.27224540710449 -3.814697265625e-06 22.46107482910156 -3.814697265625e-06 20.22687530517578 L -3.814697265625e-06 4.045375823974609 C -3.814697265625e-06 1.811176300048828 1.811176300048828 -3.814697265625e-06 4.045375823974609 -3.814697265625e-06 Z" stroke="none" fill="#707070"/>
  </g>
  <g id="settings-svgrepo-com_1_" data-name="settings-svgrepo-com (1)" transform="translate(1 0.443)">
    <path id="Path_654" data-name="Path 654" d="M10.556,3h1.889a.944.944,0,0,1,.944.944v.537a1.042,1.042,0,0,0,1.738.72l.38-.38a.944.944,0,0,1,1.336,0l1.336,1.336a.944.944,0,0,1,0,1.336l-.38.38a1.042,1.042,0,0,0,.72,1.738h.537a.944.944,0,0,1,.944.944v1.889a.944.944,0,0,1-.944.944h-.537a1.042,1.042,0,0,0-.72,1.738l.38.38a.944.944,0,0,1,0,1.336l-1.336,1.336a.944.944,0,0,1-1.336,0l-.38-.38a1.042,1.042,0,0,0-1.738.72v.537a.944.944,0,0,1-.944.944H10.556a.944.944,0,0,1-.944-.944v-.537a1.042,1.042,0,0,0-1.738-.72l-.38.38a.944.944,0,0,1-1.336,0L4.822,16.843a.944.944,0,0,1,0-1.336l.38-.38a1.042,1.042,0,0,0-.72-1.738H3.944A.944.944,0,0,1,3,12.444V10.556a.944.944,0,0,1,.944-.944h.537A1.042,1.042,0,0,0,5.2,7.873l-.38-.38a.944.944,0,0,1,0-1.336L6.157,4.822a.944.944,0,0,1,1.336,0l.38.38a1.042,1.042,0,0,0,1.738-.72V3.944A.944.944,0,0,1,10.556,3Z" fill="none" stroke="#707070" stroke-width="1"/>
    <path id="Path_655" data-name="Path 655" d="M14,12a2,2,0,1,1-2-2A2,2,0,0,1,14,12Z" transform="translate(-0.5 -0.5)" fill="none" stroke="#707070" stroke-width="1"/>
  </g>
</svg>
