<svg xmlns="http://www.w3.org/2000/svg" width="40" height="40" viewBox="0 0 40 40">
  <path id="smiley-fill-svgrepo-com" d="M24.094,44.094a20.148,20.148,0,0,0,20-20,20.178,20.178,0,0,0-20.02-20,20.131,20.131,0,0,0-19.98,20A20.135,20.135,0,0,0,24.094,44.094ZM17.956,22.231A2.318,2.318,0,0,1,15.8,19.7a2.311,2.311,0,0,1,2.157-2.51,2.327,2.327,0,0,1,2.2,2.51A2.334,2.334,0,0,1,17.956,22.231Zm11.8,0A2.319,2.319,0,0,1,27.584,19.7a2.2,2.2,0,1,1,4.353,0A2.332,2.332,0,0,1,29.76,22.231ZM23.819,33.78c-4.9,0-7.941-3.471-7.941-4.765,0-.274.176-.373.392-.216a12.056,12.056,0,0,0,7.549,2.431,11.659,11.659,0,0,0,7.529-2.451c.216-.157.412-.039.412.235C31.76,30.309,28.7,33.78,23.819,33.78Z" transform="translate(-4.094 -4.094)" fill="#8cbf55"/>
</svg>
