<svg xmlns="http://www.w3.org/2000/svg" width="40" height="40" viewBox="0 0 40 40">
  <path id="smiley-sad-fill-svgrepo-com" d="M44,24A20,20,0,1,0,64,44,20,20,0,0,0,44,24Zm6.923,13.846a2.308,2.308,0,1,1-2.308,2.308,2.308,2.308,0,0,1,2.308-2.308Zm-13.846,0a2.308,2.308,0,1,1-2.308,2.308,2.308,2.308,0,0,1,2.308-2.308Zm15.69,16.716a1.538,1.538,0,0,1-2.1-.561,7.7,7.7,0,0,0-13.329,0,1.538,1.538,0,0,1-2.664-1.541,10.772,10.772,0,0,1,18.656,0,1.538,1.538,0,0,1-.561,2.1Z" transform="translate(-24 -24)" fill="#df7b35"/>
</svg>
