<svg id="smiley-square-face-svgrepo-com" xmlns="http://www.w3.org/2000/svg" width="40" height="40" viewBox="0 0 40 40">
  <g id="Group_1" data-name="Group 1">
    <path id="Path_1" data-name="Path 1" d="M20,0A20,20,0,1,0,40,20,20,20,0,0,0,20,0Zm3.023,16.313,2.84-3.6a.307.307,0,0,1,.475,0l2.841,3.6a.31.31,0,0,1,.037.317.3.3,0,0,1-.274.172H27.631a.216.216,0,0,1-.171-.083L26.1,15l-1.359,1.722a.218.218,0,0,1-.171.083H23.261a.3.3,0,0,1-.3-.3A.307.307,0,0,1,23.023,16.313Zm-11.856,0,2.84-3.6a.306.306,0,0,1,.475,0l2.841,3.6a.309.309,0,0,1,.037.317.3.3,0,0,1-.274.172H15.775a.217.217,0,0,1-.171-.083L14.246,15l-1.359,1.722a.218.218,0,0,1-.171.083H11.405a.3.3,0,0,1-.238-.489Zm18.48,7.154a10.189,10.189,0,0,1-9.436,6.018,10.118,10.118,0,0,1-9.492-6.047.529.529,0,0,1,.488-.733h0l17.954.023a.529.529,0,0,1,.485.739Z" fill="#3c822f"/>
  </g>
</svg>
