<svg xmlns="http://www.w3.org/2000/svg" width="40" height="40" viewBox="0 0 40 40">
  <path id="smiley-nervous-fill-svgrepo-com" d="M44,24A20,20,0,1,0,64,44,20,20,0,0,0,44,24Zm6.923,13.846a2.308,2.308,0,1,1-2.308,2.308A2.308,2.308,0,0,1,50.923,37.846Zm-13.846,0a2.308,2.308,0,1,1-2.308,2.308A2.308,2.308,0,0,1,37.077,37.846ZM54.192,53.663a1.539,1.539,0,0,1-2.162-.24l-1.876-2.344-1.876,2.344a1.539,1.539,0,0,1-2.4,0L44,51.078l-1.876,2.344a1.539,1.539,0,0,1-2.4,0l-1.876-2.344-1.876,2.344a1.538,1.538,0,1,1-2.4-1.922l3.077-3.846a1.539,1.539,0,0,1,2.4,0L40.923,50,42.8,47.654a1.539,1.539,0,0,1,2.4,0L47.077,50l1.876-2.344a1.539,1.539,0,0,1,2.4,0L54.432,51.5A1.539,1.539,0,0,1,54.192,53.663Z" transform="translate(-24 -24)" fill="#be3230"/>
</svg>
