<svg xmlns="http://www.w3.org/2000/svg" xmlns:xlink="http://www.w3.org/1999/xlink" viewBox="0 0 383.08 382.79"><defs><style>.cls-1{fill:url(#linear-gradient);}.cls-2{fill:url(#linear-gradient-2);}</style><linearGradient id="linear-gradient" x1="346.08" y1="109.84" x2="7.66" y2="288.94" gradientUnits="userSpaceOnUse"><stop offset="0.18" stop-color="#0052cc"/><stop offset="1" stop-color="#2684ff"/></linearGradient><linearGradient id="linear-gradient-2" x1="247.37" y1="111.71" x2="295.21" y2="111.71" xlink:href="#linear-gradient"/></defs><g id="Layer_2" data-name="Layer 2"><g id="Layer_1-2" data-name="Layer 1"><path class="cls-1" d="M178.54,0h25.93C211,1,217.58,1.8,224.1,2.9,329.41,20.7,400.35,123.58,379.41,228.09c-20.59,102.77-117,169.17-220.66,152C84,367.72,21.5,308.73,5.08,234.81c-2.22-10-3.41-20.22-5.08-30.34V178.54c1.66-10.11,2.52-20.43,5.12-30.29C24.7,73.88,71.65,26.19,145.83,5.78,156.46,2.86,167.62,1.88,178.54,0Zm139.6,207.61c-4.93,33.25-19.72,60.78-45.34,82.07s-55.42,31.12-88.66,29.26a127.54,127.54,0,0,1-119-109.2c-4.35-29.43,1-57.33,16.42-82.87,21.34-35.47,53.1-55.69,93.66-62.1V33.09c-74.76,6-147.59,73.09-143.06,166.41,4.47,92.31,86.1,161.13,177.66,150.47,88.44-10.29,137.37-86.13,139.63-142.36ZM175.54,97.71c-36.49,4.21-81.72,40.27-79.75,98.1,1.77,51.83,46.5,92.93,99.61,91.39,44.07-1.29,90.57-42.44,89.67-79.42a6.83,6.83,0,0,0-1.43-.28c-20.61,0-41.22-.09-61.83.08-1.57,0-3.54,1.39-4.62,2.71-8.53,10.44-19.24,15.22-32.59,12.21-12.82-2.89-21.08-11.06-24-23.86-3.13-13.52,1.66-24.4,12.36-33,1.23-1,2.51-2.8,2.52-4.24C175.59,140.35,175.54,119.25,175.54,97.71ZM349.9,175.54C343.37,95,272.65,36.46,207.46,33.49v5.43c0,38.87.07,77.73-.08,116.59,0,5.2.12,9.74,5.46,12.51a10.29,10.29,0,0,1,3.68,4c1.72,3,4.13,3.61,7.41,3.6q60.54-.15,121.08-.07Z"/><path class="cls-2" d="M295.21,111.77a23.92,23.92,0,1,1-23.6-24A24,24,0,0,1,295.21,111.77Z"/></g></g></svg>