<svg id="Component_122_1" data-name="Component 122 – 1" xmlns="http://www.w3.org/2000/svg" width="20" height="20" viewBox="0 0 20 20">
  <path id="Path_726" data-name="Path 726" d="M5.187,12.5a1.35,1.35,0,0,0,1.188-1.462,1.58,1.58,0,0,0-.3-.95L6.85,8.115h.119a1.023,1.023,0,0,0,.772-.365l1.6,1.023v.073a1.35,1.35,0,0,0,1.188,1.462,1.35,1.35,0,0,0,1.187-1.462,1.757,1.757,0,0,0-.3-.95l.772-1.973h.119A1.35,1.35,0,0,0,13.5,4.462,1.35,1.35,0,0,0,12.313,3a1.35,1.35,0,0,0-1.187,1.462,1.58,1.58,0,0,0,.3.95L10.65,7.385h-.119a1.023,1.023,0,0,0-.772.365l-1.6-.95V6.654A1.35,1.35,0,0,0,6.969,5.192,1.35,1.35,0,0,0,5.781,6.654a1.58,1.58,0,0,0,.3.95L5.306,9.577H5.187A1.35,1.35,0,0,0,4,11.038,1.35,1.35,0,0,0,5.187,12.5Z" transform="translate(1.5 2.5)" fill="#707071"/>
  <g id="magnifier-2-svgrepo-com">
    <g id="Group_2498" data-name="Group 2498">
      <path id="Path_727" data-name="Path 727" d="M.03,10a10,10,0,1,1,10,10c-2.959,0-10-.07-10-.07s0-7.365,0-9.931ZM10.1,17.372a7.341,7.341,0,1,0-7.341-7.343A7.341,7.341,0,0,0,10.1,17.372ZM1.451,18.611H2.784V17.277H1.451v1.333Z" transform="translate(-0.027)" fill="#707071" fill-rule="evenodd"/>
    </g>
  </g>
</svg>
