<?xml version="1.0" standalone="no"?>
<!DOCTYPE svg PUBLIC "-//W3C//DTD SVG 20010904//EN"
 "http://www.w3.org/TR/2001/REC-SVG-20010904/DTD/svg10.dtd">
<svg version="1.0" xmlns="http://www.w3.org/2000/svg"
 width="200.000000pt" height="200.000000pt" viewBox="0 0 200.000000 200.000000"
 preserveAspectRatio="xMidYMid meet">

<g transform="translate(0.000000,200.000000) scale(0.100000,-0.100000)"
fill="#000000" stroke="none">
<path d="M977 1994 c-4 -4 -7 -35 -7 -69 0 -70 17 -98 45 -75 12 10 15 29 13
79 -3 58 -6 66 -23 69 -12 2 -24 0 -28 -4z"/>
<path d="M1501 1746 c-44 -45 -49 -70 -15 -83 22 -8 106 75 102 102 -5 36 -40
29 -87 -19z"/>
<path d="M383 1743 c-25 -9 -13 -49 26 -87 41 -40 73 -45 79 -12 4 16 -72 107
-88 105 -3 0 -11 -3 -17 -6z"/>
<path d="M873 1626 c-193 -47 -343 -214 -374 -416 -23 -149 26 -295 140 -425
82 -92 128 -187 144 -302 11 -77 16 -90 38 -101 32 -17 342 -13 360 5 6 6 15
47 19 90 13 126 52 207 154 321 92 103 136 213 136 342 0 132 -47 248 -142
346 -124 129 -302 182 -475 140z m198 -56 c228 -43 390 -271 352 -494 -16 -92
-50 -160 -127 -250 -37 -43 -78 -97 -91 -120 -28 -49 -62 -152 -70 -218 l-6
-48 -138 0 -139 0 -7 57 c-15 119 -67 228 -161 333 -68 77 -110 162 -123 250
-30 216 109 427 318 482 78 20 119 22 192 8z"/>
<path d="M1145 1391 c-16 -10 -94 -84 -173 -163 -142 -143 -143 -144 -177
-236 -39 -102 -41 -115 -22 -130 9 -8 38 -2 107 23 l94 34 168 168 c125 124
168 174 168 192 0 26 -97 131 -121 131 -8 0 -27 -9 -44 -19z m70 -81 c24 -25
26 -32 15 -45 -12 -14 -17 -12 -46 16 -26 25 -31 36 -23 46 16 18 22 17 54
-17z m-150 -210 l-105 -105 -32 33 -33 32 105 105 104 105 33 -32 33 -32 -105
-106z m-172 -141 c-5 -4 -18 -10 -30 -13 -21 -7 -22 -6 -12 24 11 30 12 30 30
14 11 -10 16 -21 12 -25z"/>
<path d="M1703 1183 c-20 -7 -15 -41 6 -53 11 -5 36 -10 56 -10 20 0 45 5 56
10 23 13 25 46 3 54 -18 7 -103 7 -121 -1z"/>
<path d="M173 1153 c-23 -9 -15 -52 10 -58 73 -19 148 13 118 49 -13 16 -98
22 -128 9z"/>
<path d="M1510 667 c0 -29 68 -97 98 -97 35 0 28 40 -16 83 -44 43 -82 50 -82
14z"/>
<path d="M450 635 c-36 -37 -43 -49 -34 -62 17 -27 30 -26 68 8 44 38 58 62
50 83 -11 27 -38 18 -84 -29z"/>
<path d="M776 324 c-15 -39 8 -44 213 -44 108 0 202 4 209 9 8 5 12 17 10 27
-3 18 -17 19 -214 22 -189 2 -212 1 -218 -14z"/>
<path d="M781 236 c-6 -7 -9 -21 -5 -30 6 -15 29 -16 218 -14 l211 3 0 25 0
25 -206 3 c-167 2 -208 0 -218 -12z"/>
<path d="M855 150 c-55 -22 -66 -88 -21 -127 26 -22 35 -23 162 -23 130 0 136
1 159 25 39 38 27 102 -22 124 -28 13 -248 14 -278 1z m263 -72 c-6 -18 -240
-18 -245 0 -4 9 25 12 122 12 97 0 126 -3 123 -12z"/>
</g>
</svg>
