<svg width="32" height="32" viewBox="0 0 32 32" fill="none" xmlns="http://www.w3.org/2000/svg">
<g clip-path="url(#clip0_4207_47750)">
<path d="M30.1176 0H1.88235C0.842758 0 0 0.842758 0 1.88235V30.1176C0 31.1572 0.842758 32 1.88235 32H30.1176C31.1572 32 32 31.1572 32 30.1176V1.88235C32 0.842758 31.1572 0 30.1176 0Z" fill="#FE414D"/>
<path d="M15.2941 8.94132C15.2941 5.43269 12.4498 2.58838 8.9412 2.58838C5.43257 2.58838 2.58826 5.43269 2.58826 8.94132C2.58826 12.45 5.43257 15.2943 8.9412 15.2943C12.4498 15.2943 15.2941 12.45 15.2941 8.94132Z" fill="white"/>
<path d="M29.1765 8.94132C29.1765 5.43269 26.3322 2.58838 22.8235 2.58838C19.3149 2.58838 16.4706 5.43269 16.4706 8.94132C16.4706 12.45 19.3149 15.2943 22.8235 15.2943C26.3322 15.2943 29.1765 12.45 29.1765 8.94132Z" fill="white"/>
<path d="M29.1765 22.8236C29.1765 19.315 26.3322 16.4707 22.8235 16.4707C19.3149 16.4707 16.4706 19.315 16.4706 22.8236C16.4706 26.3323 19.3149 29.1766 22.8235 29.1766C26.3322 29.1766 29.1765 26.3323 29.1765 22.8236Z" fill="white"/>
<path d="M15.2941 22.8236C15.2941 19.315 12.4498 16.4707 8.9412 16.4707C5.43257 16.4707 2.58826 19.315 2.58826 22.8236C2.58826 26.3323 5.43257 29.1766 8.9412 29.1766C12.4498 29.1766 15.2941 26.3323 15.2941 22.8236Z" fill="white"/>
</g>
<defs>
<clipPath id="clip0_4207_47750">
<rect width="32" height="32" fill="white"/>
</clipPath>
</defs>
</svg>
