<svg width="24" height="24" viewBox="0 0 24 24" fill="none" xmlns="http://www.w3.org/2000/svg">
<mask id="mask0_9435_42130" style="mask-type:alpha" maskUnits="userSpaceOnUse" x="0" y="0" width="24" height="24">
<rect width="24" height="24" fill="#CCD0D5" style="fill:#CCD0D5;fill:color(display-p3 0.8000 0.8157 0.8353);fill-opacity:1;"/>
</mask>
<g mask="url(#mask0_9435_42130)">
<path d="M4.61538 19C4.15513 19 3.77083 18.8458 3.4625 18.5375C3.15417 18.2292 3 17.8449 3 17.3846V6.61537C3 6.15512 3.15417 5.77083 3.4625 5.4625C3.77083 5.15417 4.15513 5 4.61538 5H19.3846C19.8449 5 20.2292 5.15417 20.5375 5.4625C20.8458 5.77083 21 6.15512 21 6.61537V17.3846C21 17.8449 20.8458 18.2292 20.5375 18.5375C20.2292 18.8458 19.8449 19 19.3846 19H4.61538ZM4.61538 18H19.3846C19.5385 18 19.6795 17.9359 19.8077 17.8077C19.9359 17.6795 20 17.5385 20 17.3846V8H4V17.3846C4 17.5385 4.0641 17.6795 4.1923 17.8077C4.32052 17.9359 4.46154 18 4.61538 18ZM7.5 16.2885L6.81153 15.6L9.38653 13L6.78653 10.4L7.5 9.71152L10.7885 13L7.5 16.2885ZM12.5 16.5V15.5H17.5V16.5H12.5Z" fill="#49535E" style="fill:#49535E;fill:color(display-p3 0.2863 0.3255 0.3686);fill-opacity:1;"/>
</g>
</svg>
