<svg xmlns="http://www.w3.org/2000/svg" xmlns:xlink="http://www.w3.org/1999/xlink" width="24" height="24" viewBox="0 0 24 24">
  <defs>
    <clipPath id="clip-path">
      <rect id="Rectangle_1371" data-name="Rectangle 1371" width="24" height="24" fill="#fff"/>
    </clipPath>
  </defs>
  <g id="Group_2623" data-name="Group 2623" transform="translate(-6332.34 -1863.541)">
    <g id="Group_2607" data-name="Group 2607" transform="translate(6332.34 1863.541)" clip-path="url(#clip-path)">
      <path id="Path_757" data-name="Path 757" d="M10,4A2,2,0,1,1,8,6,2.006,2.006,0,0,1,10,4Zm0,9c2.7,0,5.8,1.29,6,2v1H4v-.99C4.2,14.29,7.3,13,10,13ZM10,2a4,4,0,1,0,4,4,4,4,0,0,0-4-4Zm0,9c-2.67,0-8,1.34-8,4v3H18V15c0-2.66-5.33-4-8-4Z" fill="#323232"/>
      <circle id="Ellipse_189" data-name="Ellipse 189" cx="4" cy="4" r="4" transform="translate(11.5 11.5)" stroke="#000" stroke-width="1"/>
      <path id="Path_758" data-name="Path 758" d="M15.332,16.474v-.084a2.643,2.643,0,0,1,.077-.694,1.046,1.046,0,0,1,.224-.418,1.71,1.71,0,0,1,.353-.288,2.356,2.356,0,0,0,.276-.206.9.9,0,0,0,.194-.236.6.6,0,0,0,.072-.293.54.54,0,0,0-.3-.5.659.659,0,0,0-.3-.07.675.675,0,0,0-.306.072.583.583,0,0,0-.236.209.64.64,0,0,0-.1.34H14.266a1.464,1.464,0,0,1,.239-.82A1.366,1.366,0,0,1,15.1,13a2.046,2.046,0,0,1,.823-.162A2.191,2.191,0,0,1,16.8,13a1.357,1.357,0,0,1,.6.47,1.261,1.261,0,0,1,.216.743,1.3,1.3,0,0,1-.1.517,1.26,1.26,0,0,1-.266.4,2.06,2.06,0,0,1-.405.311,1.644,1.644,0,0,0-.323.244.828.828,0,0,0-.187.293,1.268,1.268,0,0,0-.062.41v.084Zm.492,1.591a.584.584,0,0,1-.425-.174.572.572,0,0,1-.172-.423.561.561,0,0,1,.172-.418.584.584,0,0,1,.425-.174.578.578,0,0,1,.415.174.571.571,0,0,1,.181.418.579.579,0,0,1-.087.3.643.643,0,0,1-.216.216A.565.565,0,0,1,15.825,18.065Z" fill="#fff"/>
    </g>
  </g>
</svg>
