<svg width="15" height="17" viewBox="0 0 15 17" fill="none" xmlns="http://www.w3.org/2000/svg">
<path d="M12.5 11.6626C11.8667 11.6626 11.3 11.9111 10.8667 12.3005L4.925 8.86295C4.96667 8.67244 5 8.48193 5 8.28313C5 8.08434 4.96667 7.89382 4.925 7.70331L10.8 4.29895C11.25 4.7131 11.8417 4.96988 12.5 4.96988C13.8833 4.96988 15 3.85994 15 2.48494C15 1.10994 13.8833 0 12.5 0C11.1167 0 10 1.10994 10 2.48494C10 2.68373 10.0333 2.87425 10.075 3.06476L4.2 6.46913C3.75 6.05497 3.15833 5.79819 2.5 5.79819C1.11667 5.79819 0 6.90813 0 8.28313C0 9.65813 1.11667 10.7681 2.5 10.7681C3.15833 10.7681 3.75 10.5113 4.2 10.0971L10.1333 13.5429C10.0917 13.7169 10.0667 13.8991 10.0667 14.0813C10.0667 15.4149 11.1583 16.5 12.5 16.5C13.8417 16.5 14.9333 15.4149 14.9333 14.0813C14.9333 12.7477 13.8417 11.6626 12.5 11.6626ZM12.5 1.65663C12.9583 1.65663 13.3333 2.02937 13.3333 2.48494C13.3333 2.94051 12.9583 3.31325 12.5 3.31325C12.0417 3.31325 11.6667 2.94051 11.6667 2.48494C11.6667 2.02937 12.0417 1.65663 12.5 1.65663ZM2.5 9.11144C2.04167 9.11144 1.66667 8.7387 1.66667 8.28313C1.66667 7.82756 2.04167 7.45482 2.5 7.45482C2.95833 7.45482 3.33333 7.82756 3.33333 8.28313C3.33333 8.7387 2.95833 9.11144 2.5 9.11144ZM12.5 14.9262C12.0417 14.9262 11.6667 14.5535 11.6667 14.0979C11.6667 13.6423 12.0417 13.2696 12.5 13.2696C12.9583 13.2696 13.3333 13.6423 13.3333 14.0979C13.3333 14.5535 12.9583 14.9262 12.5 14.9262Z" fill="#49535E" style="fill:#49535E;fill:color(display-p3 0.2863 0.3255 0.3686);fill-opacity:1;"/>
</svg>
