<svg width="24" height="24" viewBox="0 0 24 24" fill="none" xmlns="http://www.w3.org/2000/svg">
<mask id="mask0_9427_4260" style="mask-type:alpha" maskUnits="userSpaceOnUse" x="0" y="0" width="24" height="24">
<rect width="24" height="24" fill="#CCD0D5" style="fill:#CCD0D5;fill:color(display-p3 0.8000 0.8157 0.8353);fill-opacity:1;"/>
</mask>
<g mask="url(#mask0_9427_4260)">
<path d="M12.0047 15.1538C13.021 15.1538 13.8832 14.7982 14.5916 14.0868C15.2999 13.3755 15.6541 12.5117 15.6541 11.4955C15.6541 10.4793 15.2984 9.61698 14.587 8.90865C13.8757 8.20032 13.0119 7.84615 11.9957 7.84615C10.9795 7.84615 10.1172 8.20182 9.40887 8.91317C8.70054 9.62452 8.34637 10.4883 8.34637 11.5045C8.34637 12.5207 8.70205 13.383 9.4134 14.0913C10.1247 14.7997 10.9885 15.1538 12.0047 15.1538ZM12.0002 14.2C11.2502 14.2 10.6127 13.9375 10.0877 13.4125C9.56272 12.8875 9.30022 12.25 9.30022 11.5C9.30022 10.75 9.56272 10.1125 10.0877 9.5875C10.6127 9.0625 11.2502 8.8 12.0002 8.8C12.7502 8.8 13.3877 9.0625 13.9127 9.5875C14.4377 10.1125 14.7002 10.75 14.7002 11.5C14.7002 12.25 14.4377 12.8875 13.9127 13.4125C13.3877 13.9375 12.7502 14.2 12.0002 14.2ZM12.003 18C9.83704 18 7.86305 17.4106 6.081 16.2317C4.29893 15.0529 2.96432 13.4756 2.07715 11.5C2.96432 9.52435 4.29802 7.94711 6.07825 6.76828C7.85847 5.58943 9.83154 5 11.9975 5C14.1634 5 16.1374 5.58943 17.9194 6.76828C19.7015 7.94711 21.0361 9.52435 21.9233 11.5C21.0361 13.4756 19.7024 15.0529 17.9222 16.2317C16.142 17.4106 14.1689 18 12.003 18ZM12.0002 17C13.8836 17 15.6127 16.5042 17.1877 15.5125C18.7627 14.5208 19.9669 13.1833 20.8002 11.5C19.9669 9.81667 18.7627 8.47917 17.1877 7.4875C15.6127 6.49583 13.8836 6 12.0002 6C10.1169 6 8.38772 6.49583 6.81272 7.4875C5.23772 8.47917 4.03356 9.81667 3.20022 11.5C4.03356 13.1833 5.23772 14.5208 6.81272 15.5125C8.38772 16.5042 10.1169 17 12.0002 17Z" fill="#49535E" style="fill:#49535E;fill:color(display-p3 0.2863 0.3255 0.3686);fill-opacity:1;"/>
</g>
</svg>
