<svg width="24" height="24" viewBox="0 0 24 24" fill="none" xmlns="http://www.w3.org/2000/svg">
<path d="M1.86523 20.4999L11.9998 3L22.1343 20.4999H1.86523ZM3.83056 19.3653H20.169L11.9998 5.26918L3.83056 19.3653ZM12.0755 17.8634C12.2539 17.8634 12.4019 17.803 12.5195 17.6824C12.6371 17.5617 12.6959 17.4122 12.6959 17.2338C12.6959 17.0555 12.6356 16.9075 12.5149 16.7898C12.3943 16.6722 12.2448 16.6134 12.0664 16.6134C11.888 16.6134 11.74 16.6737 11.6224 16.7944C11.5048 16.915 11.4459 17.0646 11.4459 17.2429C11.4459 17.4213 11.5063 17.5693 11.6269 17.6869C11.7476 17.8046 11.8971 17.8634 12.0755 17.8634ZM11.5036 15.4153H12.6382V9.96918H11.5036V15.4153Z" fill="#F68605"/>
</svg>
