<svg width="24" height="24" viewBox="0 0 24 24" fill="none" xmlns="http://www.w3.org/2000/svg">
<mask id="mask0_9427_4247" style="mask-type:alpha" maskUnits="userSpaceOnUse" x="0" y="0" width="24" height="24">
<rect width="24" height="24" fill="#CCD0D5" style="fill:#CCD0D5;fill:color(display-p3 0.8000 0.8157 0.8353);fill-opacity:1;"/>
</mask>
<g mask="url(#mask0_9427_4247)">
<path d="M12 21C10.755 21 9.585 20.7638 8.49 20.2915C7.395 19.8192 6.4425 19.1782 5.6325 18.3685C4.8225 17.5588 4.18125 16.6066 3.70875 15.512C3.23625 14.4174 3 13.2479 3 12.0034C3 10.7588 3.23616 9.58872 3.70848 8.4931C4.18081 7.39748 4.82183 6.44444 5.63153 5.63398C6.44123 4.82353 7.39337 4.18192 8.48795 3.70915C9.58255 3.23638 10.7521 3 11.9966 3C13.2412 3 14.4113 3.23625 15.5069 3.70875C16.6025 4.18125 17.5556 4.8225 18.366 5.6325C19.1765 6.4425 19.8181 7.395 20.2908 8.49C20.7636 9.585 21 10.755 21 12C21 12.45 20.9686 12.8917 20.9058 13.325C20.843 13.7583 20.7468 14.1833 20.6173 14.6C20.4865 14.4872 20.3471 14.3872 20.199 14.3C20.051 14.2128 19.8897 14.1487 19.7154 14.1077C19.8167 13.768 19.8894 13.424 19.9337 13.0759C19.9779 12.7279 20 12.3692 20 12C20 9.76667 19.225 7.875 17.675 6.325C16.125 4.775 14.2333 4 12 4C9.76667 4 7.875 4.775 6.325 6.325C4.775 7.875 4 9.76667 4 12C4 14.2333 4.775 16.125 6.325 17.675C7.875 19.225 9.76667 20 12 20C12.9013 20 13.7552 19.8615 14.5619 19.5845C15.3685 19.3075 16.11 18.9197 16.7865 18.4212C16.8968 18.5506 17.0144 18.6724 17.1394 18.7866C17.2644 18.9007 17.4039 18.9968 17.5577 19.075C16.7846 19.6814 15.9303 20.1539 14.9947 20.4923C14.0591 20.8308 13.0609 21 12 21ZM18.9626 17.5C18.7529 17.5 18.5753 17.4276 18.4298 17.2828C18.2843 17.138 18.2115 16.9608 18.2115 16.7511C18.2115 16.5414 18.2839 16.3638 18.4287 16.2183C18.5735 16.0728 18.7508 16 18.9605 16C19.1702 16 19.3478 16.0724 19.4933 16.2172C19.6388 16.362 19.7115 16.5392 19.7115 16.7489C19.7115 16.9586 19.6392 17.1362 19.4944 17.2817C19.3496 17.4272 19.1723 17.5 18.9626 17.5ZM15.6462 16.3539L11.5 12.2073V7H12.5V11.7923L16.3539 15.6462L15.6462 16.3539Z" fill="#3F4551" style="fill:#3F4551;fill:color(display-p3 0.2471 0.2706 0.3176);fill-opacity:1;"/>
</g>
</svg>
