<svg width="351" height="149" viewBox="4 0 351 149" fill="none" xmlns="http://www.w3.org/2000/svg">
<path d="M5.688 103.032V106.76H9.752V107.96H5.688V111.8H10.232V113H4.232V101.832H10.232V103.032H5.688ZM23.7471 101.928V113H22.2911V104.744L18.6111 113H17.5871L13.8911 104.728V113H12.4351V101.928H14.0031L18.0991 111.08L22.1951 101.928H23.7471ZM33.6724 105.112C33.6724 106.04 33.3524 106.813 32.7124 107.432C32.083 108.04 31.1177 108.344 29.8164 108.344H27.6724V113H26.2164V101.848H29.8164C31.075 101.848 32.0297 102.152 32.6804 102.76C33.3417 103.368 33.6724 104.152 33.6724 105.112ZM29.8164 107.144C30.627 107.144 31.2244 106.968 31.6084 106.616C31.9924 106.264 32.1844 105.763 32.1844 105.112C32.1844 103.736 31.395 103.048 29.8164 103.048H27.6724V107.144H29.8164ZM40.538 113.112C39.5033 113.112 38.5593 112.872 37.706 112.392C36.8527 111.901 36.1753 111.224 35.674 110.36C35.1833 109.485 34.938 108.504 34.938 107.416C34.938 106.328 35.1833 105.352 35.674 104.488C36.1753 103.613 36.8527 102.936 37.706 102.456C38.5593 101.965 39.5033 101.72 40.538 101.72C41.5833 101.72 42.5327 101.965 43.386 102.456C44.2393 102.936 44.9113 103.608 45.402 104.472C45.8927 105.336 46.138 106.317 46.138 107.416C46.138 108.515 45.8927 109.496 45.402 110.36C44.9113 111.224 44.2393 111.901 43.386 112.392C42.5327 112.872 41.5833 113.112 40.538 113.112ZM40.538 111.848C41.3167 111.848 42.0153 111.667 42.634 111.304C43.2633 110.941 43.754 110.424 44.106 109.752C44.4687 109.08 44.65 108.301 44.65 107.416C44.65 106.52 44.4687 105.741 44.106 105.08C43.754 104.408 43.2687 103.891 42.65 103.528C42.0313 103.165 41.3273 102.984 40.538 102.984C39.7487 102.984 39.0447 103.165 38.426 103.528C37.8073 103.891 37.3167 104.408 36.954 105.08C36.602 105.741 36.426 106.52 36.426 107.416C36.426 108.301 36.602 109.08 36.954 109.752C37.3167 110.424 37.8073 110.941 38.426 111.304C39.0553 111.667 39.7593 111.848 40.538 111.848ZM62.0761 101.848L58.8441 113H57.2121L54.6201 104.024L51.9321 113L50.3161 113.016L47.1961 101.848H48.7481L51.1801 111.304L53.8681 101.848H55.5001L58.0601 111.272L60.5081 101.848H62.0761ZM65.1255 103.032V106.76H69.1895V107.96H65.1255V111.8H69.6695V113H63.6695V101.832H69.6695V103.032H65.1255ZM77.7446 113L75.0886 108.44H73.3286V113H71.8726V101.848H75.4726C76.3153 101.848 77.0246 101.992 77.6006 102.28C78.1873 102.568 78.6246 102.957 78.9126 103.448C79.2006 103.939 79.3446 104.499 79.3446 105.128C79.3446 105.896 79.1206 106.573 78.6726 107.16C78.2353 107.747 77.574 108.136 76.6886 108.328L79.4886 113H77.7446ZM73.3286 107.272H75.4726C76.262 107.272 76.854 107.08 77.2486 106.696C77.6433 106.301 77.8406 105.779 77.8406 105.128C77.8406 104.467 77.6433 103.955 77.2486 103.592C76.8646 103.229 76.2726 103.048 75.4726 103.048H73.3286V107.272ZM94.3206 105.08C94.0113 104.429 93.5633 103.928 92.9766 103.576C92.39 103.213 91.7073 103.032 90.9286 103.032C90.15 103.032 89.446 103.213 88.8166 103.576C88.198 103.928 87.7073 104.44 87.3446 105.112C86.9926 105.773 86.8166 106.541 86.8166 107.416C86.8166 108.291 86.9926 109.059 87.3446 109.72C87.7073 110.381 88.198 110.893 88.8166 111.256C89.446 111.608 90.15 111.784 90.9286 111.784C92.0166 111.784 92.9126 111.459 93.6166 110.808C94.3206 110.157 94.7313 109.277 94.8486 108.168H90.4006V106.984H96.4006V108.104C96.3153 109.021 96.0273 109.864 95.5366 110.632C95.046 111.389 94.4006 111.992 93.6006 112.44C92.8006 112.877 91.91 113.096 90.9286 113.096C89.894 113.096 88.95 112.856 88.0966 112.376C87.2433 111.885 86.566 111.208 86.0646 110.344C85.574 109.48 85.3286 108.504 85.3286 107.416C85.3286 106.328 85.574 105.352 86.0646 104.488C86.566 103.613 87.2433 102.936 88.0966 102.456C88.95 101.965 89.894 101.72 90.9286 101.72C92.1126 101.72 93.158 102.013 94.0646 102.6C94.982 103.187 95.6486 104.013 96.0646 105.08H94.3206ZM104.198 113L101.542 108.44H99.7818V113H98.3258V101.848H101.926C102.768 101.848 103.478 101.992 104.054 102.28C104.64 102.568 105.078 102.957 105.366 103.448C105.654 103.939 105.798 104.499 105.798 105.128C105.798 105.896 105.574 106.573 105.126 107.16C104.688 107.747 104.027 108.136 103.142 108.328L105.942 113H104.198ZM99.7818 107.272H101.926C102.715 107.272 103.307 107.08 103.702 106.696C104.096 106.301 104.294 105.779 104.294 105.128C104.294 104.467 104.096 103.955 103.702 103.592C103.318 103.229 102.726 103.048 101.926 103.048H99.7818V107.272ZM113.116 113.112C112.081 113.112 111.137 112.872 110.284 112.392C109.431 111.901 108.753 111.224 108.252 110.36C107.761 109.485 107.516 108.504 107.516 107.416C107.516 106.328 107.761 105.352 108.252 104.488C108.753 103.613 109.431 102.936 110.284 102.456C111.137 101.965 112.081 101.72 113.116 101.72C114.161 101.72 115.111 101.965 115.964 102.456C116.817 102.936 117.489 103.608 117.98 104.472C118.471 105.336 118.716 106.317 118.716 107.416C118.716 108.515 118.471 109.496 117.98 110.36C117.489 111.224 116.817 111.901 115.964 112.392C115.111 112.872 114.161 113.112 113.116 113.112ZM113.116 111.848C113.895 111.848 114.593 111.667 115.212 111.304C115.841 110.941 116.332 110.424 116.684 109.752C117.047 109.08 117.228 108.301 117.228 107.416C117.228 106.52 117.047 105.741 116.684 105.08C116.332 104.408 115.847 103.891 115.228 103.528C114.609 103.165 113.905 102.984 113.116 102.984C112.327 102.984 111.623 103.165 111.004 103.528C110.385 103.891 109.895 104.408 109.532 105.08C109.18 105.741 109.004 106.52 109.004 107.416C109.004 108.301 109.18 109.08 109.532 109.752C109.895 110.424 110.385 110.941 111.004 111.304C111.633 111.667 112.337 111.848 113.116 111.848ZM134.654 101.848L131.422 113H129.79L127.198 104.024L124.51 113L122.894 113.016L119.774 101.848H121.326L123.758 111.304L126.446 101.848H128.078L130.638 111.272L133.086 101.848H134.654ZM143.112 101.848V103.032H140.072V113H138.616V103.032H135.56V101.848H143.112ZM153.496 101.848V113H152.04V107.944H146.36V113H144.904V101.848H146.36V106.744H152.04V101.848H153.496ZM167.112 101.848V103.032H164.072V113H162.616V103.032H159.56V101.848H167.112ZM177.496 101.848V113H176.04V107.944H170.36V113H168.904V101.848H170.36V106.744H176.04V101.848H177.496ZM185.854 113L183.198 108.44H181.438V113H179.982V101.848H183.582C184.425 101.848 185.134 101.992 185.71 102.28C186.297 102.568 186.734 102.957 187.022 103.448C187.31 103.939 187.454 104.499 187.454 105.128C187.454 105.896 187.23 106.573 186.782 107.16C186.345 107.747 185.683 108.136 184.798 108.328L187.598 113H185.854ZM181.438 107.272H183.582C184.371 107.272 184.963 107.08 185.358 106.696C185.753 106.301 185.95 105.779 185.95 105.128C185.95 104.467 185.753 103.955 185.358 103.592C184.974 103.229 184.382 103.048 183.582 103.048H181.438V107.272ZM194.772 113.112C193.738 113.112 192.794 112.872 191.94 112.392C191.087 111.901 190.41 111.224 189.908 110.36C189.418 109.485 189.172 108.504 189.172 107.416C189.172 106.328 189.418 105.352 189.908 104.488C190.41 103.613 191.087 102.936 191.94 102.456C192.794 101.965 193.738 101.72 194.772 101.72C195.818 101.72 196.767 101.965 197.62 102.456C198.474 102.936 199.146 103.608 199.636 104.472C200.127 105.336 200.372 106.317 200.372 107.416C200.372 108.515 200.127 109.496 199.636 110.36C199.146 111.224 198.474 111.901 197.62 112.392C196.767 112.872 195.818 113.112 194.772 113.112ZM194.772 111.848C195.551 111.848 196.25 111.667 196.868 111.304C197.498 110.941 197.988 110.424 198.34 109.752C198.703 109.08 198.884 108.301 198.884 107.416C198.884 106.52 198.703 105.741 198.34 105.08C197.988 104.408 197.503 103.891 196.884 103.528C196.266 103.165 195.562 102.984 194.772 102.984C193.983 102.984 193.279 103.165 192.66 103.528C192.042 103.891 191.551 104.408 191.188 105.08C190.836 105.741 190.66 106.52 190.66 107.416C190.66 108.301 190.836 109.08 191.188 109.752C191.551 110.424 192.042 110.941 192.66 111.304C193.29 111.667 193.994 111.848 194.772 111.848ZM203.719 101.848V108.904C203.719 109.896 203.959 110.632 204.439 111.112C204.929 111.592 205.607 111.832 206.471 111.832C207.324 111.832 207.991 111.592 208.471 111.112C208.961 110.632 209.207 109.896 209.207 108.904V101.848H210.663V108.888C210.663 109.816 210.476 110.6 210.102 111.24C209.729 111.869 209.223 112.339 208.583 112.648C207.953 112.957 207.244 113.112 206.455 113.112C205.665 113.112 204.951 112.957 204.311 112.648C203.681 112.339 203.18 111.869 202.807 111.24C202.444 110.6 202.263 109.816 202.263 108.888V101.848H203.719ZM221.539 105.08C221.23 104.429 220.782 103.928 220.195 103.576C219.609 103.213 218.926 103.032 218.147 103.032C217.369 103.032 216.665 103.213 216.035 103.576C215.417 103.928 214.926 104.44 214.563 105.112C214.211 105.773 214.035 106.541 214.035 107.416C214.035 108.291 214.211 109.059 214.563 109.72C214.926 110.381 215.417 110.893 216.035 111.256C216.665 111.608 217.369 111.784 218.147 111.784C219.235 111.784 220.131 111.459 220.835 110.808C221.539 110.157 221.95 109.277 222.067 108.168H217.619V106.984H223.619V108.104C223.534 109.021 223.246 109.864 222.755 110.632C222.265 111.389 221.619 111.992 220.819 112.44C220.019 112.877 219.129 113.096 218.147 113.096C217.113 113.096 216.169 112.856 215.315 112.376C214.462 111.885 213.785 111.208 213.283 110.344C212.793 109.48 212.547 108.504 212.547 107.416C212.547 106.328 212.793 105.352 213.283 104.488C213.785 103.613 214.462 102.936 215.315 102.456C216.169 101.965 217.113 101.72 218.147 101.72C219.331 101.72 220.377 102.013 221.283 102.6C222.201 103.187 222.867 104.013 223.283 105.08H221.539ZM234.137 101.848V113H232.681V107.944H227.001V113H225.545V101.848H227.001V106.744H232.681V101.848H234.137ZM252.2 101.928V113H250.744V104.744L247.064 113H246.04L242.344 104.728V113H240.888V101.928H242.456L246.552 111.08L250.648 101.928H252.2ZM261.262 110.52H256.398L255.502 113H253.965L257.998 101.912H259.678L263.694 113H262.158L261.262 110.52ZM260.846 109.336L258.83 103.704L256.814 109.336H260.846ZM272.315 101.848V103.032H269.275V113H267.819V103.032H264.763V101.848H272.315ZM275.531 101.848V108.904C275.531 109.896 275.771 110.632 276.251 111.112C276.742 111.592 277.419 111.832 278.283 111.832C279.136 111.832 279.803 111.592 280.283 111.112C280.774 110.632 281.019 109.896 281.019 108.904V101.848H282.475V108.888C282.475 109.816 282.288 110.6 281.915 111.24C281.542 111.869 281.035 112.339 280.395 112.648C279.766 112.957 279.056 113.112 278.267 113.112C277.478 113.112 276.763 112.957 276.123 112.648C275.494 112.339 274.992 111.869 274.619 111.24C274.256 110.6 274.075 109.816 274.075 108.888V101.848H275.531ZM290.776 113L288.12 108.44H286.36V113H284.904V101.848H288.504C289.347 101.848 290.056 101.992 290.632 102.28C291.219 102.568 291.656 102.957 291.944 103.448C292.232 103.939 292.376 104.499 292.376 105.128C292.376 105.896 292.152 106.573 291.704 107.16C291.267 107.747 290.605 108.136 289.72 108.328L292.52 113H290.776ZM286.36 107.272H288.504C289.293 107.272 289.885 107.08 290.28 106.696C290.675 106.301 290.872 105.779 290.872 105.128C290.872 104.467 290.675 103.955 290.28 103.592C289.896 103.229 289.304 103.048 288.504 103.048H286.36V107.272ZM296.094 101.848V113H294.638V101.848H296.094ZM305.44 101.848V103.032H302.4V113H300.944V103.032H297.888V101.848H305.44ZM315.04 101.848L311.408 108.792V113H309.952V108.792L306.304 101.848H307.92L310.672 107.496L313.424 101.848H315.04ZM10.824 128.52H5.96L5.064 131H3.528L7.56 119.912H9.24L13.256 131H11.72L10.824 128.52ZM10.408 127.336L8.392 121.704L6.376 127.336H10.408ZM18.5493 131.112C17.8133 131.112 17.1519 130.984 16.5653 130.728C15.9893 130.461 15.5359 130.099 15.2053 129.64C14.8746 129.171 14.7039 128.632 14.6933 128.024H16.2453C16.2986 128.547 16.5119 128.989 16.8853 129.352C17.2693 129.704 17.8239 129.88 18.5493 129.88C19.2426 129.88 19.7866 129.709 20.1813 129.368C20.5866 129.016 20.7893 128.568 20.7893 128.024C20.7893 127.597 20.6719 127.251 20.4373 126.984C20.2026 126.717 19.9093 126.515 19.5573 126.376C19.2053 126.237 18.7306 126.088 18.1333 125.928C17.3973 125.736 16.8053 125.544 16.3573 125.352C15.9199 125.16 15.5413 124.861 15.2213 124.456C14.9119 124.04 14.7573 123.485 14.7573 122.792C14.7573 122.184 14.9119 121.645 15.2213 121.176C15.5306 120.707 15.9626 120.344 16.5173 120.088C17.0826 119.832 17.7279 119.704 18.4533 119.704C19.4986 119.704 20.3519 119.965 21.0133 120.488C21.6853 121.011 22.0639 121.704 22.1493 122.568H20.5493C20.4959 122.141 20.2719 121.768 19.8773 121.448C19.4826 121.117 18.9599 120.952 18.3093 120.952C17.7013 120.952 17.2053 121.112 16.8213 121.432C16.4373 121.741 16.2453 122.179 16.2453 122.744C16.2453 123.149 16.3573 123.48 16.5813 123.736C16.8159 123.992 17.0986 124.189 17.4293 124.328C17.7706 124.456 18.2453 124.605 18.8533 124.776C19.5893 124.979 20.1813 125.181 20.6293 125.384C21.0773 125.576 21.4613 125.88 21.7812 126.296C22.1013 126.701 22.2613 127.256 22.2613 127.96C22.2613 128.504 22.1173 129.016 21.8293 129.496C21.5413 129.976 21.1146 130.365 20.5493 130.664C19.9839 130.963 19.3173 131.112 18.5493 131.112ZM27.9399 131.112C27.2039 131.112 26.5425 130.984 25.9559 130.728C25.3799 130.461 24.9265 130.099 24.5959 129.64C24.2652 129.171 24.0945 128.632 24.0839 128.024H25.6359C25.6892 128.547 25.9025 128.989 26.2759 129.352C26.6599 129.704 27.2145 129.88 27.9399 129.88C28.6332 129.88 29.1772 129.709 29.5719 129.368C29.9772 129.016 30.1799 128.568 30.1799 128.024C30.1799 127.597 30.0625 127.251 29.8279 126.984C29.5932 126.717 29.2999 126.515 28.9479 126.376C28.5959 126.237 28.1212 126.088 27.5239 125.928C26.7879 125.736 26.1959 125.544 25.7479 125.352C25.3105 125.16 24.9319 124.861 24.6119 124.456C24.3025 124.04 24.1479 123.485 24.1479 122.792C24.1479 122.184 24.3025 121.645 24.6119 121.176C24.9212 120.707 25.3532 120.344 25.9079 120.088C26.4732 119.832 27.1185 119.704 27.8439 119.704C28.8892 119.704 29.7425 119.965 30.4039 120.488C31.0759 121.011 31.4545 121.704 31.5399 122.568H29.9399C29.8865 122.141 29.6625 121.768 29.2679 121.448C28.8732 121.117 28.3505 120.952 27.6999 120.952C27.0919 120.952 26.5959 121.112 26.2119 121.432C25.8279 121.741 25.6359 122.179 25.6359 122.744C25.6359 123.149 25.7479 123.48 25.9719 123.736C26.2065 123.992 26.4892 124.189 26.8199 124.328C27.1612 124.456 27.6359 124.605 28.2439 124.776C28.9799 124.979 29.5719 125.181 30.0199 125.384C30.4679 125.576 30.8519 125.88 31.1719 126.296C31.4919 126.701 31.6519 127.256 31.6519 127.96C31.6519 128.504 31.5079 129.016 31.2199 129.496C30.9319 129.976 30.5052 130.365 29.9399 130.664C29.3745 130.963 28.7079 131.112 27.9399 131.112ZM35.2505 121.032V124.76H39.3145V125.96H35.2505V129.8H39.7945V131H33.7945V119.832H39.7945V121.032H35.2505ZM45.5336 131.112C44.7976 131.112 44.1363 130.984 43.5496 130.728C42.9736 130.461 42.5203 130.099 42.1896 129.64C41.859 129.171 41.6883 128.632 41.6776 128.024H43.2296C43.283 128.547 43.4963 128.989 43.8696 129.352C44.2536 129.704 44.8083 129.88 45.5336 129.88C46.227 129.88 46.771 129.709 47.1656 129.368C47.571 129.016 47.7736 128.568 47.7736 128.024C47.7736 127.597 47.6563 127.251 47.4216 126.984C47.187 126.717 46.8936 126.515 46.5416 126.376C46.1896 126.237 45.715 126.088 45.1176 125.928C44.3816 125.736 43.7896 125.544 43.3416 125.352C42.9043 125.16 42.5256 124.861 42.2056 124.456C41.8963 124.04 41.7416 123.485 41.7416 122.792C41.7416 122.184 41.8963 121.645 42.2056 121.176C42.515 120.707 42.947 120.344 43.5016 120.088C44.067 119.832 44.7123 119.704 45.4376 119.704C46.483 119.704 47.3363 119.965 47.9976 120.488C48.6696 121.011 49.0483 121.704 49.1336 122.568H47.5336C47.4803 122.141 47.2563 121.768 46.8616 121.448C46.467 121.117 45.9443 120.952 45.2936 120.952C44.6856 120.952 44.1896 121.112 43.8056 121.432C43.4216 121.741 43.2296 122.179 43.2296 122.744C43.2296 123.149 43.3416 123.48 43.5656 123.736C43.8003 123.992 44.083 124.189 44.4136 124.328C44.755 124.456 45.2296 124.605 45.8376 124.776C46.5736 124.979 47.1656 125.181 47.6136 125.384C48.0616 125.576 48.4456 125.88 48.7656 126.296C49.0856 126.701 49.2456 127.256 49.2456 127.96C49.2456 128.504 49.1016 129.016 48.8136 129.496C48.5256 129.976 48.099 130.365 47.5336 130.664C46.9683 130.963 46.3016 131.112 45.5336 131.112ZM54.9243 131.112C54.1883 131.112 53.5269 130.984 52.9403 130.728C52.3643 130.461 51.9109 130.099 51.5803 129.64C51.2496 129.171 51.0789 128.632 51.0683 128.024H52.6203C52.6736 128.547 52.8869 128.989 53.2603 129.352C53.6443 129.704 54.1989 129.88 54.9243 129.88C55.6176 129.88 56.1616 129.709 56.5563 129.368C56.9616 129.016 57.1643 128.568 57.1643 128.024C57.1643 127.597 57.0469 127.251 56.8123 126.984C56.5776 126.717 56.2843 126.515 55.9323 126.376C55.5803 126.237 55.1056 126.088 54.5083 125.928C53.7723 125.736 53.1803 125.544 52.7323 125.352C52.2949 125.16 51.9163 124.861 51.5963 124.456C51.2869 124.04 51.1323 123.485 51.1323 122.792C51.1323 122.184 51.2869 121.645 51.5963 121.176C51.9056 120.707 52.3376 120.344 52.8923 120.088C53.4576 119.832 54.1029 119.704 54.8283 119.704C55.8736 119.704 56.7269 119.965 57.3883 120.488C58.0603 121.011 58.4389 121.704 58.5243 122.568H56.9243C56.8709 122.141 56.6469 121.768 56.2523 121.448C55.8576 121.117 55.3349 120.952 54.6843 120.952C54.0763 120.952 53.5803 121.112 53.1963 121.432C52.8123 121.741 52.6203 122.179 52.6203 122.744C52.6203 123.149 52.7323 123.48 52.9563 123.736C53.1909 123.992 53.4736 124.189 53.8043 124.328C54.1456 124.456 54.6203 124.605 55.2283 124.776C55.9643 124.979 56.5563 125.181 57.0043 125.384C57.4523 125.576 57.8363 125.88 58.1562 126.296C58.4763 126.701 58.6363 127.256 58.6363 127.96C58.6363 128.504 58.4923 129.016 58.2043 129.496C57.9163 129.976 57.4896 130.365 56.9243 130.664C56.3589 130.963 55.6923 131.112 54.9243 131.112ZM72.0909 119.928V131H70.6349V122.744L66.9549 131H65.9309L62.2349 122.728V131H60.7789V119.928H62.3469L66.4429 129.08L70.5389 119.928H72.0909ZM76.0161 121.032V124.76H80.0801V125.96H76.0161V129.8H80.5601V131H74.5601V119.832H80.5601V121.032H76.0161ZM91.5312 131H90.0753L84.2193 122.12V131H82.7633V119.832H84.2193L90.0753 128.696V119.832H91.5312V131ZM100.877 119.848V121.032H97.8373V131H96.3813V121.032H93.3253V119.848H100.877Z" fill="#5C5C5C"/>
<path d="M25.6196 15.829C25.6196 18.555 24.6796 20.8267 22.7996 22.644C20.951 24.43 18.1153 25.323 14.2926 25.323H7.99463V39H3.71763V6.241H14.2926C17.99 6.241 20.7943 7.134 22.7056 8.92C24.6483 10.706 25.6196 13.009 25.6196 15.829ZM14.2926 21.798C16.674 21.798 18.4286 21.281 19.5566 20.247C20.6846 19.213 21.2486 17.7403 21.2486 15.829C21.2486 11.787 18.93 9.766 14.2926 9.766H7.99463V21.798H14.2926Z" fill="black"/>
<path d="M41.3224 39.329C39.1604 39.329 37.2177 38.953 35.4944 38.201C33.8024 37.4177 32.4707 36.3523 31.4994 35.005C30.5281 33.6263 30.0267 32.044 29.9954 30.258H34.5544C34.7111 31.7933 35.3377 33.0937 36.4344 34.159C37.5624 35.193 39.1917 35.71 41.3224 35.71C43.3591 35.71 44.9571 35.2087 46.1164 34.206C47.3071 33.172 47.9024 31.856 47.9024 30.258C47.9024 29.0047 47.5577 27.9863 46.8684 27.203C46.1791 26.4197 45.3174 25.8243 44.2834 25.417C43.2494 25.0097 41.8551 24.571 40.1004 24.101C37.9384 23.537 36.1994 22.973 34.8834 22.409C33.5987 21.845 32.4864 20.9677 31.5464 19.777C30.6377 18.555 30.1834 16.9257 30.1834 14.889C30.1834 13.103 30.6377 11.5207 31.5464 10.142C32.4551 8.76333 33.7241 7.698 35.3534 6.946C37.0141 6.194 38.9097 5.818 41.0404 5.818C44.1111 5.818 46.6177 6.58567 48.5604 8.121C50.5344 9.65633 51.6467 11.693 51.8974 14.231H47.1974C47.0407 12.9777 46.3827 11.881 45.2234 10.941C44.0641 9.96967 42.5287 9.484 40.6174 9.484C38.8314 9.484 37.3744 9.954 36.2464 10.894C35.1184 11.8027 34.5544 13.0873 34.5544 14.748C34.5544 15.9387 34.8834 16.91 35.5414 17.662C36.2307 18.414 37.0611 18.9937 38.0324 19.401C39.0351 19.777 40.4294 20.2157 42.2154 20.717C44.3774 21.3123 46.1164 21.9077 47.4324 22.503C48.7484 23.067 49.8764 23.96 50.8164 25.182C51.7564 26.3727 52.2264 28.002 52.2264 30.07C52.2264 31.668 51.8034 33.172 50.9574 34.582C50.1114 35.992 48.8581 37.1357 47.1974 38.013C45.5367 38.8903 43.5784 39.329 41.3224 39.329Z" fill="#E94955"/>
<path d="M85.956 30.544H74.428L72.58 36H64.704L75.88 5.112H84.592L95.768 36H87.804L85.956 30.544ZM84.02 24.736L80.192 13.428L76.408 24.736H84.02ZM109.157 36.352C107.016 36.352 105.109 35.9853 103.437 35.252C101.765 34.5187 100.445 33.5213 99.4774 32.26C98.5094 30.9693 97.9667 29.532 97.8494 27.948H105.285C105.373 28.7987 105.769 29.488 106.473 30.016C107.177 30.544 108.043 30.808 109.069 30.808C110.008 30.808 110.727 30.632 111.225 30.28C111.753 29.8987 112.017 29.4147 112.017 28.828C112.017 28.124 111.651 27.6107 110.917 27.288C110.184 26.936 108.996 26.5547 107.353 26.144C105.593 25.7333 104.127 25.308 102.953 24.868C101.78 24.3987 100.768 23.68 99.9174 22.712C99.0667 21.7147 98.6414 20.38 98.6414 18.708C98.6414 17.3 99.0227 16.024 99.7854 14.88C100.577 13.7067 101.721 12.7827 103.217 12.108C104.743 11.4333 106.547 11.096 108.629 11.096C111.709 11.096 114.129 11.8587 115.889 13.384C117.679 14.9093 118.705 16.9333 118.969 19.456H112.017C111.9 18.6053 111.519 17.9307 110.873 17.432C110.257 16.9333 109.436 16.684 108.409 16.684C107.529 16.684 106.855 16.86 106.385 17.212C105.916 17.5347 105.681 17.9893 105.681 18.576C105.681 19.28 106.048 19.808 106.781 20.16C107.544 20.512 108.717 20.864 110.301 21.216C112.12 21.6853 113.601 22.1547 114.745 22.624C115.889 23.064 116.887 23.7973 117.737 24.824C118.617 25.8213 119.072 27.1707 119.101 28.872C119.101 30.3093 118.691 31.6 117.869 32.744C117.077 33.8587 115.919 34.7387 114.393 35.384C112.897 36.0293 111.152 36.352 109.157 36.352ZM133.693 36.352C131.551 36.352 129.645 35.9853 127.973 35.252C126.301 34.5187 124.981 33.5213 124.013 32.26C123.045 30.9693 122.502 29.532 122.385 27.948H129.821C129.909 28.7987 130.305 29.488 131.009 30.016C131.713 30.544 132.578 30.808 133.605 30.808C134.543 30.808 135.262 30.632 135.761 30.28C136.289 29.8987 136.553 29.4147 136.553 28.828C136.553 28.124 136.186 27.6107 135.453 27.288C134.719 26.936 133.531 26.5547 131.889 26.144C130.129 25.7333 128.662 25.308 127.489 24.868C126.315 24.3987 125.303 23.68 124.453 22.712C123.602 21.7147 123.177 20.38 123.177 18.708C123.177 17.3 123.558 16.024 124.321 14.88C125.113 13.7067 126.257 12.7827 127.753 12.108C129.278 11.4333 131.082 11.096 133.165 11.096C136.245 11.096 138.665 11.8587 140.425 13.384C142.214 14.9093 143.241 16.9333 143.505 19.456H136.553C136.435 18.6053 136.054 17.9307 135.409 17.432C134.793 16.9333 133.971 16.684 132.945 16.684C132.065 16.684 131.39 16.86 130.921 17.212C130.451 17.5347 130.217 17.9893 130.217 18.576C130.217 19.28 130.583 19.808 131.317 20.16C132.079 20.512 133.253 20.864 134.837 21.216C136.655 21.6853 138.137 22.1547 139.281 22.624C140.425 23.064 141.422 23.7973 142.273 24.824C143.153 25.8213 143.607 27.1707 143.637 28.872C143.637 30.3093 143.226 31.6 142.405 32.744C141.613 33.8587 140.454 34.7387 138.929 35.384C137.433 36.0293 135.687 36.352 133.693 36.352ZM171.384 23.328C171.384 24.032 171.34 24.7653 171.252 25.528H154.224C154.341 27.0533 154.825 28.2267 155.676 29.048C156.556 29.84 157.626 30.236 158.888 30.236C160.765 30.236 162.07 29.444 162.804 27.86H170.812C170.401 29.4733 169.653 30.9253 168.568 32.216C167.512 33.5067 166.177 34.5187 164.564 35.252C162.95 35.9853 161.146 36.352 159.152 36.352C156.746 36.352 154.605 35.8387 152.728 34.812C150.85 33.7853 149.384 32.3187 148.328 30.412C147.272 28.5053 146.744 26.276 146.744 23.724C146.744 21.172 147.257 18.9427 148.284 17.036C149.34 15.1293 150.806 13.6627 152.684 12.636C154.561 11.6093 156.717 11.096 159.152 11.096C161.528 11.096 163.64 11.5947 165.488 12.592C167.336 13.5893 168.773 15.012 169.8 16.86C170.856 18.708 171.384 20.864 171.384 23.328ZM163.684 21.348C163.684 20.0573 163.244 19.0307 162.364 18.268C161.484 17.5053 160.384 17.124 159.064 17.124C157.802 17.124 156.732 17.4907 155.852 18.224C155.001 18.9573 154.473 19.9987 154.268 21.348H163.684ZM185.341 36.352C183.2 36.352 181.293 35.9853 179.621 35.252C177.949 34.5187 176.629 33.5213 175.661 32.26C174.693 30.9693 174.15 29.532 174.033 27.948H181.469C181.557 28.7987 181.953 29.488 182.657 30.016C183.361 30.544 184.226 30.808 185.253 30.808C186.192 30.808 186.91 30.632 187.409 30.28C187.937 29.8987 188.201 29.4147 188.201 28.828C188.201 28.124 187.834 27.6107 187.101 27.288C186.368 26.936 185.18 26.5547 183.537 26.144C181.777 25.7333 180.31 25.308 179.137 24.868C177.964 24.3987 176.952 23.68 176.101 22.712C175.25 21.7147 174.825 20.38 174.825 18.708C174.825 17.3 175.206 16.024 175.969 14.88C176.761 13.7067 177.905 12.7827 179.401 12.108C180.926 11.4333 182.73 11.096 184.813 11.096C187.893 11.096 190.313 11.8587 192.073 13.384C193.862 14.9093 194.889 16.9333 195.153 19.456H188.201C188.084 18.6053 187.702 17.9307 187.057 17.432C186.441 16.9333 185.62 16.684 184.593 16.684C183.713 16.684 183.038 16.86 182.569 17.212C182.1 17.5347 181.865 17.9893 181.865 18.576C181.865 19.28 182.232 19.808 182.965 20.16C183.728 20.512 184.901 20.864 186.485 21.216C188.304 21.6853 189.785 22.1547 190.929 22.624C192.073 23.064 193.07 23.7973 193.921 24.824C194.801 25.8213 195.256 27.1707 195.285 28.872C195.285 30.3093 194.874 31.6 194.053 32.744C193.261 33.8587 192.102 34.7387 190.577 35.384C189.081 36.0293 187.336 36.352 185.341 36.352ZM209.876 36.352C207.735 36.352 205.828 35.9853 204.156 35.252C202.484 34.5187 201.164 33.5213 200.196 32.26C199.228 30.9693 198.685 29.532 198.568 27.948H206.004C206.092 28.7987 206.488 29.488 207.192 30.016C207.896 30.544 208.761 30.808 209.788 30.808C210.727 30.808 211.445 30.632 211.944 30.28C212.472 29.8987 212.736 29.4147 212.736 28.828C212.736 28.124 212.369 27.6107 211.636 27.288C210.903 26.936 209.715 26.5547 208.072 26.144C206.312 25.7333 204.845 25.308 203.672 24.868C202.499 24.3987 201.487 23.68 200.636 22.712C199.785 21.7147 199.36 20.38 199.36 18.708C199.36 17.3 199.741 16.024 200.504 14.88C201.296 13.7067 202.44 12.7827 203.936 12.108C205.461 11.4333 207.265 11.096 209.348 11.096C212.428 11.096 214.848 11.8587 216.608 13.384C218.397 14.9093 219.424 16.9333 219.688 19.456H212.736C212.619 18.6053 212.237 17.9307 211.592 17.432C210.976 16.9333 210.155 16.684 209.128 16.684C208.248 16.684 207.573 16.86 207.104 17.212C206.635 17.5347 206.4 17.9893 206.4 18.576C206.4 19.28 206.767 19.808 207.5 20.16C208.263 20.512 209.436 20.864 211.02 21.216C212.839 21.6853 214.32 22.1547 215.464 22.624C216.608 23.064 217.605 23.7973 218.456 24.824C219.336 25.8213 219.791 27.1707 219.82 28.872C219.82 30.3093 219.409 31.6 218.588 32.744C217.796 33.8587 216.637 34.7387 215.112 35.384C213.616 36.0293 211.871 36.352 209.876 36.352ZM255.751 11.184C258.802 11.184 261.222 12.108 263.011 13.956C264.83 15.804 265.739 18.3707 265.739 21.656V36H258.259V22.668C258.259 21.084 257.834 19.8667 256.983 19.016C256.162 18.136 255.018 17.696 253.551 17.696C252.085 17.696 250.926 18.136 250.075 19.016C249.254 19.8667 248.843 21.084 248.843 22.668V36H241.363V22.668C241.363 21.084 240.938 19.8667 240.087 19.016C239.266 18.136 238.122 17.696 236.655 17.696C235.189 17.696 234.03 18.136 233.179 19.016C232.358 19.8667 231.947 21.084 231.947 22.668V36H224.423V11.448H231.947V14.528C232.71 13.5013 233.707 12.6947 234.939 12.108C236.171 11.492 237.565 11.184 239.119 11.184C240.967 11.184 242.61 11.58 244.047 12.372C245.514 13.164 246.658 14.2933 247.479 15.76C248.33 14.4107 249.489 13.3107 250.955 12.46C252.422 11.6093 254.021 11.184 255.751 11.184ZM294.145 23.328C294.145 24.032 294.101 24.7653 294.013 25.528H276.985C277.103 27.0533 277.587 28.2267 278.437 29.048C279.317 29.84 280.388 30.236 281.649 30.236C283.527 30.236 284.832 29.444 285.565 27.86H293.573C293.163 29.4733 292.415 30.9253 291.329 32.216C290.273 33.5067 288.939 34.5187 287.325 35.252C285.712 35.9853 283.908 36.352 281.913 36.352C279.508 36.352 277.367 35.8387 275.489 34.812C273.612 33.7853 272.145 32.3187 271.089 30.412C270.033 28.5053 269.505 26.276 269.505 23.724C269.505 21.172 270.019 18.9427 271.045 17.036C272.101 15.1293 273.568 13.6627 275.445 12.636C277.323 11.6093 279.479 11.096 281.913 11.096C284.289 11.096 286.401 11.5947 288.249 12.592C290.097 13.5893 291.535 15.012 292.561 16.86C293.617 18.708 294.145 20.864 294.145 23.328ZM286.445 21.348C286.445 20.0573 286.005 19.0307 285.125 18.268C284.245 17.5053 283.145 17.124 281.825 17.124C280.564 17.124 279.493 17.4907 278.613 18.224C277.763 18.9573 277.235 19.9987 277.029 21.348H286.445ZM313.075 11.184C315.949 11.184 318.237 12.1227 319.939 14C321.669 15.848 322.535 18.4 322.535 21.656V36H315.055V22.668C315.055 21.0253 314.629 19.7493 313.779 18.84C312.928 17.9307 311.784 17.476 310.347 17.476C308.909 17.476 307.765 17.9307 306.915 18.84C306.064 19.7493 305.639 21.0253 305.639 22.668V36H298.115V11.448H305.639V14.704C306.401 13.6187 307.428 12.768 308.719 12.152C310.009 11.5067 311.461 11.184 313.075 11.184ZM341.447 29.62V36H337.619C334.891 36 332.764 35.34 331.239 34.02C329.714 32.6707 328.951 30.4853 328.951 27.464V17.696H325.959V11.448H328.951V5.464H336.475V11.448H341.403V17.696H336.475V27.552C336.475 28.2853 336.651 28.8133 337.003 29.136C337.355 29.4587 337.942 29.62 338.763 29.62H341.447Z" fill="black"/>
<path d="M27.268 65.056C27.268 66.8453 26.8573 68.488 26.036 69.984C25.2147 71.4507 23.9533 72.6387 22.252 73.548C20.5507 74.4573 18.4387 74.912 15.916 74.912H11.252V86H3.728V55.112H15.916C18.38 55.112 20.4627 55.5373 22.164 56.388C23.8653 57.2387 25.1413 58.412 25.992 59.908C26.8427 61.404 27.268 63.12 27.268 65.056ZM15.344 68.928C16.7813 68.928 17.852 68.5907 18.556 67.916C19.26 67.2413 19.612 66.288 19.612 65.056C19.612 63.824 19.26 62.8707 18.556 62.196C17.852 61.5213 16.7813 61.184 15.344 61.184H11.252V68.928H15.344ZM38.709 53.44V86H31.185V53.44H38.709ZM42.6656 73.68C42.6656 71.1573 43.1349 68.9427 44.0736 67.036C45.0416 65.1293 46.3469 63.6627 47.9896 62.636C49.6323 61.6093 51.4656 61.096 53.4896 61.096C55.2203 61.096 56.7309 61.448 58.0216 62.152C59.3416 62.856 60.3536 63.78 61.0576 64.924V61.448H68.5816V86H61.0576V82.524C60.3243 83.668 59.2976 84.592 57.9776 85.296C56.6869 86 55.1763 86.352 53.4456 86.352C51.4509 86.352 49.6323 85.8387 47.9896 84.812C46.3469 83.756 45.0416 82.2747 44.0736 80.368C43.1349 78.432 42.6656 76.2027 42.6656 73.68ZM61.0576 73.724C61.0576 71.8467 60.5296 70.3653 59.4736 69.28C58.4469 68.1947 57.1856 67.652 55.6896 67.652C54.1936 67.652 52.9176 68.1947 51.8616 69.28C50.8349 70.336 50.3216 71.8027 50.3216 73.68C50.3216 75.5573 50.8349 77.0533 51.8616 78.168C52.9176 79.2533 54.1936 79.796 55.6896 79.796C57.1856 79.796 58.4469 79.2533 59.4736 78.168C60.5296 77.0827 61.0576 75.6013 61.0576 73.724ZM87.7089 79.62V86H83.8809C81.1529 86 79.0262 85.34 77.5009 84.02C75.9755 82.6707 75.2129 80.4853 75.2129 77.464V67.696H72.2209V61.448H75.2129V55.464H82.7369V61.448H87.6649V67.696H82.7369V77.552C82.7369 78.2853 82.9129 78.8133 83.2649 79.136C83.6169 79.4587 84.2035 79.62 85.0249 79.62H87.7089ZM104.22 67.696H100.172V86H92.6479V67.696H89.9199V61.448H92.6479V60.744C92.6479 57.7227 93.5132 55.4347 95.2439 53.88C96.9745 52.296 99.5119 51.504 102.856 51.504C103.413 51.504 103.824 51.5187 104.088 51.548V57.928C102.651 57.84 101.639 58.0453 101.052 58.544C100.465 59.0427 100.172 59.9373 100.172 61.228V61.448H104.22V67.696ZM118.931 86.352C116.526 86.352 114.355 85.8387 112.419 84.812C110.513 83.7853 109.002 82.3187 107.887 80.412C106.802 78.5053 106.259 76.276 106.259 73.724C106.259 71.2013 106.817 68.9867 107.931 67.08C109.046 65.144 110.571 63.6627 112.507 62.636C114.443 61.6093 116.614 61.096 119.019 61.096C121.425 61.096 123.595 61.6093 125.531 62.636C127.467 63.6627 128.993 65.144 130.107 67.08C131.222 68.9867 131.779 71.2013 131.779 73.724C131.779 76.2467 131.207 78.476 130.063 80.412C128.949 82.3187 127.409 83.7853 125.443 84.812C123.507 85.8387 121.337 86.352 118.931 86.352ZM118.931 79.84C120.369 79.84 121.586 79.312 122.583 78.256C123.61 77.2 124.123 75.6893 124.123 73.724C124.123 71.7587 123.625 70.248 122.627 69.192C121.659 68.136 120.457 67.608 119.019 67.608C117.553 67.608 116.335 68.136 115.367 69.192C114.399 70.2187 113.915 71.7293 113.915 73.724C113.915 75.6893 114.385 77.2 115.323 78.256C116.291 79.312 117.494 79.84 118.931 79.84ZM143.295 65.54C144.175 64.1907 145.275 63.1347 146.595 62.372C147.915 61.58 149.382 61.184 150.995 61.184V69.148H148.927C147.05 69.148 145.642 69.5587 144.703 70.38C143.764 71.172 143.295 72.58 143.295 74.604V86H135.771V61.448H143.295V65.54ZM185.919 61.184C188.97 61.184 191.39 62.108 193.179 63.956C194.998 65.804 195.907 68.3707 195.907 71.656V86H188.427V72.668C188.427 71.084 188.002 69.8667 187.151 69.016C186.33 68.136 185.186 67.696 183.719 67.696C182.253 67.696 181.094 68.136 180.243 69.016C179.422 69.8667 179.011 71.084 179.011 72.668V86H171.531V72.668C171.531 71.084 171.106 69.8667 170.255 69.016C169.434 68.136 168.29 67.696 166.823 67.696C165.357 67.696 164.198 68.136 163.347 69.016C162.526 69.8667 162.115 71.084 162.115 72.668V86H154.591V61.448H162.115V64.528C162.878 63.5013 163.875 62.6947 165.107 62.108C166.339 61.492 167.733 61.184 169.287 61.184C171.135 61.184 172.778 61.58 174.215 62.372C175.682 63.164 176.826 64.2933 177.647 65.76C178.498 64.4107 179.657 63.3107 181.123 62.46C182.59 61.6093 184.189 61.184 185.919 61.184Z" fill="black"/>
</svg>
