<svg width="339" height="130" viewBox="0 0 339 130" fill="none" xmlns="http://www.w3.org/2000/svg">
<path d="M5.16 101.707V105.435H9.224V106.635H5.16V110.475H9.704V111.675H3.704V100.507H9.704V101.707H5.16ZM23.2191 100.603V111.675H21.7631V103.419L18.0831 111.675H17.0591L13.3631 103.403V111.675H11.9071V100.603H13.4751L17.5711 109.755L21.6671 100.603H23.2191ZM33.1444 103.787C33.1444 104.715 32.8244 105.488 32.1844 106.107C31.555 106.715 30.5897 107.019 29.2884 107.019H27.1444V111.675H25.6884V100.523H29.2884C30.547 100.523 31.5017 100.827 32.1524 101.435C32.8137 102.043 33.1444 102.827 33.1444 103.787ZM29.2884 105.819C30.099 105.819 30.6964 105.643 31.0804 105.291C31.4644 104.939 31.6564 104.438 31.6564 103.787C31.6564 102.411 30.867 101.723 29.2884 101.723H27.1444V105.819H29.2884ZM40.01 111.787C38.9753 111.787 38.0313 111.547 37.178 111.067C36.3247 110.576 35.6473 109.899 35.146 109.035C34.6553 108.16 34.41 107.179 34.41 106.091C34.41 105.003 34.6553 104.027 35.146 103.163C35.6473 102.288 36.3247 101.611 37.178 101.131C38.0313 100.64 38.9753 100.395 40.01 100.395C41.0553 100.395 42.0047 100.64 42.858 101.131C43.7113 101.611 44.3833 102.283 44.874 103.147C45.3647 104.011 45.61 104.992 45.61 106.091C45.61 107.19 45.3647 108.171 44.874 109.035C44.3833 109.899 43.7113 110.576 42.858 111.067C42.0047 111.547 41.0553 111.787 40.01 111.787ZM40.01 110.523C40.7887 110.523 41.4873 110.342 42.106 109.979C42.7353 109.616 43.226 109.099 43.578 108.427C43.9407 107.755 44.122 106.976 44.122 106.091C44.122 105.195 43.9407 104.416 43.578 103.755C43.226 103.083 42.7407 102.566 42.122 102.203C41.5033 101.84 40.7993 101.659 40.01 101.659C39.2207 101.659 38.5167 101.84 37.898 102.203C37.2793 102.566 36.7887 103.083 36.426 103.755C36.074 104.416 35.898 105.195 35.898 106.091C35.898 106.976 36.074 107.755 36.426 108.427C36.7887 109.099 37.2793 109.616 37.898 109.979C38.5273 110.342 39.2313 110.523 40.01 110.523ZM61.5481 100.523L58.3161 111.675H56.6841L54.0921 102.699L51.4041 111.675L49.7881 111.691L46.6681 100.523H48.2201L50.6521 109.979L53.3401 100.523H54.9721L57.5321 109.947L59.9801 100.523H61.5481ZM64.5975 101.707V105.435H68.6615V106.635H64.5975V110.475H69.1415V111.675H63.1415V100.507H69.1415V101.707H64.5975ZM77.2166 111.675L74.5606 107.115H72.8006V111.675H71.3446V100.523H74.9446C75.7873 100.523 76.4966 100.667 77.0726 100.955C77.6593 101.243 78.0966 101.632 78.3846 102.123C78.6726 102.614 78.8166 103.174 78.8166 103.803C78.8166 104.571 78.5926 105.248 78.1446 105.835C77.7073 106.422 77.046 106.811 76.1606 107.003L78.9606 111.675H77.2166ZM72.8006 105.947H74.9446C75.734 105.947 76.326 105.755 76.7206 105.371C77.1153 104.976 77.3126 104.454 77.3126 103.803C77.3126 103.142 77.1153 102.63 76.7206 102.267C76.3366 101.904 75.7446 101.723 74.9446 101.723H72.8006V105.947ZM93.7926 103.755C93.4833 103.104 93.0353 102.603 92.4486 102.251C91.862 101.888 91.1793 101.707 90.4006 101.707C89.622 101.707 88.918 101.888 88.2886 102.251C87.67 102.603 87.1793 103.115 86.8166 103.787C86.4646 104.448 86.2886 105.216 86.2886 106.091C86.2886 106.966 86.4646 107.734 86.8166 108.395C87.1793 109.056 87.67 109.568 88.2886 109.931C88.918 110.283 89.622 110.459 90.4006 110.459C91.4886 110.459 92.3846 110.134 93.0886 109.483C93.7926 108.832 94.2033 107.952 94.3206 106.843H89.8726V105.659H95.8726V106.779C95.7873 107.696 95.4993 108.539 95.0086 109.307C94.518 110.064 93.8726 110.667 93.0726 111.115C92.2726 111.552 91.382 111.771 90.4006 111.771C89.366 111.771 88.422 111.531 87.5686 111.051C86.7153 110.56 86.038 109.883 85.5366 109.019C85.046 108.155 84.8006 107.179 84.8006 106.091C84.8006 105.003 85.046 104.027 85.5366 103.163C86.038 102.288 86.7153 101.611 87.5686 101.131C88.422 100.64 89.366 100.395 90.4006 100.395C91.5846 100.395 92.63 100.688 93.5366 101.275C94.454 101.862 95.1206 102.688 95.5366 103.755H93.7926ZM103.67 111.675L101.014 107.115H99.2538V111.675H97.7978V100.523H101.398C102.24 100.523 102.95 100.667 103.526 100.955C104.112 101.243 104.55 101.632 104.838 102.123C105.126 102.614 105.27 103.174 105.27 103.803C105.27 104.571 105.046 105.248 104.598 105.835C104.16 106.422 103.499 106.811 102.614 107.003L105.414 111.675H103.67ZM99.2538 105.947H101.398C102.187 105.947 102.779 105.755 103.174 105.371C103.568 104.976 103.766 104.454 103.766 103.803C103.766 103.142 103.568 102.63 103.174 102.267C102.79 101.904 102.198 101.723 101.398 101.723H99.2538V105.947ZM112.588 111.787C111.553 111.787 110.609 111.547 109.756 111.067C108.903 110.576 108.225 109.899 107.724 109.035C107.233 108.16 106.988 107.179 106.988 106.091C106.988 105.003 107.233 104.027 107.724 103.163C108.225 102.288 108.903 101.611 109.756 101.131C110.609 100.64 111.553 100.395 112.588 100.395C113.633 100.395 114.583 100.64 115.436 101.131C116.289 101.611 116.961 102.283 117.452 103.147C117.943 104.011 118.188 104.992 118.188 106.091C118.188 107.19 117.943 108.171 117.452 109.035C116.961 109.899 116.289 110.576 115.436 111.067C114.583 111.547 113.633 111.787 112.588 111.787ZM112.588 110.523C113.367 110.523 114.065 110.342 114.684 109.979C115.313 109.616 115.804 109.099 116.156 108.427C116.519 107.755 116.7 106.976 116.7 106.091C116.7 105.195 116.519 104.416 116.156 103.755C115.804 103.083 115.319 102.566 114.7 102.203C114.081 101.84 113.377 101.659 112.588 101.659C111.799 101.659 111.095 101.84 110.476 102.203C109.857 102.566 109.367 103.083 109.004 103.755C108.652 104.416 108.476 105.195 108.476 106.091C108.476 106.976 108.652 107.755 109.004 108.427C109.367 109.099 109.857 109.616 110.476 109.979C111.105 110.342 111.809 110.523 112.588 110.523ZM134.126 100.523L130.894 111.675H129.262L126.67 102.699L123.982 111.675L122.366 111.691L119.246 100.523H120.798L123.23 109.979L125.918 100.523H127.55L130.11 109.947L132.558 100.523H134.126ZM142.584 100.523V101.707H139.544V111.675H138.088V101.707H135.032V100.523H142.584ZM152.968 100.523V111.675H151.512V106.619H145.832V111.675H144.376V100.523H145.832V105.419H151.512V100.523H152.968ZM166.584 100.523V101.707H163.544V111.675H162.088V101.707H159.032V100.523H166.584ZM176.968 100.523V111.675H175.512V106.619H169.832V111.675H168.376V100.523H169.832V105.419H175.512V100.523H176.968ZM185.326 111.675L182.67 107.115H180.91V111.675H179.454V100.523H183.054C183.897 100.523 184.606 100.667 185.182 100.955C185.769 101.243 186.206 101.632 186.494 102.123C186.782 102.614 186.926 103.174 186.926 103.803C186.926 104.571 186.702 105.248 186.254 105.835C185.817 106.422 185.155 106.811 184.27 107.003L187.07 111.675H185.326ZM180.91 105.947H183.054C183.843 105.947 184.435 105.755 184.83 105.371C185.225 104.976 185.422 104.454 185.422 103.803C185.422 103.142 185.225 102.63 184.83 102.267C184.446 101.904 183.854 101.723 183.054 101.723H180.91V105.947ZM194.244 111.787C193.21 111.787 192.266 111.547 191.412 111.067C190.559 110.576 189.882 109.899 189.38 109.035C188.89 108.16 188.644 107.179 188.644 106.091C188.644 105.003 188.89 104.027 189.38 103.163C189.882 102.288 190.559 101.611 191.412 101.131C192.266 100.64 193.21 100.395 194.244 100.395C195.29 100.395 196.239 100.64 197.092 101.131C197.946 101.611 198.618 102.283 199.108 103.147C199.599 104.011 199.844 104.992 199.844 106.091C199.844 107.19 199.599 108.171 199.108 109.035C198.618 109.899 197.946 110.576 197.092 111.067C196.239 111.547 195.29 111.787 194.244 111.787ZM194.244 110.523C195.023 110.523 195.722 110.342 196.34 109.979C196.97 109.616 197.46 109.099 197.812 108.427C198.175 107.755 198.356 106.976 198.356 106.091C198.356 105.195 198.175 104.416 197.812 103.755C197.46 103.083 196.975 102.566 196.356 102.203C195.738 101.84 195.034 101.659 194.244 101.659C193.455 101.659 192.751 101.84 192.132 102.203C191.514 102.566 191.023 103.083 190.66 103.755C190.308 104.416 190.132 105.195 190.132 106.091C190.132 106.976 190.308 107.755 190.66 108.427C191.023 109.099 191.514 109.616 192.132 109.979C192.762 110.342 193.466 110.523 194.244 110.523ZM203.191 100.523V107.579C203.191 108.571 203.431 109.307 203.911 109.787C204.401 110.267 205.079 110.507 205.943 110.507C206.796 110.507 207.463 110.267 207.943 109.787C208.433 109.307 208.679 108.571 208.679 107.579V100.523H210.135V107.563C210.135 108.491 209.948 109.275 209.574 109.915C209.201 110.544 208.695 111.014 208.055 111.323C207.425 111.632 206.716 111.787 205.927 111.787C205.137 111.787 204.423 111.632 203.783 111.323C203.153 111.014 202.652 110.544 202.279 109.915C201.916 109.275 201.735 108.491 201.735 107.563V100.523H203.191ZM221.011 103.755C220.702 103.104 220.254 102.603 219.667 102.251C219.081 101.888 218.398 101.707 217.619 101.707C216.841 101.707 216.137 101.888 215.507 102.251C214.889 102.603 214.398 103.115 214.035 103.787C213.683 104.448 213.507 105.216 213.507 106.091C213.507 106.966 213.683 107.734 214.035 108.395C214.398 109.056 214.889 109.568 215.507 109.931C216.137 110.283 216.841 110.459 217.619 110.459C218.707 110.459 219.603 110.134 220.307 109.483C221.011 108.832 221.422 107.952 221.539 106.843H217.091V105.659H223.091V106.779C223.006 107.696 222.718 108.539 222.227 109.307C221.737 110.064 221.091 110.667 220.291 111.115C219.491 111.552 218.601 111.771 217.619 111.771C216.585 111.771 215.641 111.531 214.787 111.051C213.934 110.56 213.257 109.883 212.755 109.019C212.265 108.155 212.019 107.179 212.019 106.091C212.019 105.003 212.265 104.027 212.755 103.163C213.257 102.288 213.934 101.611 214.787 101.131C215.641 100.64 216.585 100.395 217.619 100.395C218.803 100.395 219.849 100.688 220.755 101.275C221.673 101.862 222.339 102.688 222.755 103.755H221.011ZM233.609 100.523V111.675H232.153V106.619H226.473V111.675H225.017V100.523H226.473V105.419H232.153V100.523H233.609ZM251.672 100.603V111.675H250.216V103.419L246.536 111.675H245.512L241.816 103.403V111.675H240.36V100.603H241.928L246.024 109.755L250.12 100.603H251.672ZM260.734 109.195H255.87L254.974 111.675H253.437L257.47 100.587H259.15L263.166 111.675H261.63L260.734 109.195ZM260.318 108.011L258.302 102.379L256.286 108.011H260.318ZM271.787 100.523V101.707H268.747V111.675H267.291V101.707H264.235V100.523H271.787ZM275.003 100.523V107.579C275.003 108.571 275.243 109.307 275.723 109.787C276.214 110.267 276.891 110.507 277.755 110.507C278.608 110.507 279.275 110.267 279.755 109.787C280.246 109.307 280.491 108.571 280.491 107.579V100.523H281.947V107.563C281.947 108.491 281.76 109.275 281.387 109.915C281.014 110.544 280.507 111.014 279.867 111.323C279.238 111.632 278.528 111.787 277.739 111.787C276.95 111.787 276.235 111.632 275.595 111.323C274.966 111.014 274.464 110.544 274.091 109.915C273.728 109.275 273.547 108.491 273.547 107.563V100.523H275.003ZM290.248 111.675L287.592 107.115H285.832V111.675H284.376V100.523H287.976C288.819 100.523 289.528 100.667 290.104 100.955C290.691 101.243 291.128 101.632 291.416 102.123C291.704 102.614 291.848 103.174 291.848 103.803C291.848 104.571 291.624 105.248 291.176 105.835C290.739 106.422 290.077 106.811 289.192 107.003L291.992 111.675H290.248ZM285.832 105.947H287.976C288.765 105.947 289.357 105.755 289.752 105.371C290.147 104.976 290.344 104.454 290.344 103.803C290.344 103.142 290.147 102.63 289.752 102.267C289.368 101.904 288.776 101.723 287.976 101.723H285.832V105.947ZM295.566 100.523V111.675H294.11V100.523H295.566ZM304.912 100.523V101.707H301.872V111.675H300.416V101.707H297.36V100.523H304.912ZM314.512 100.523L310.88 107.467V111.675H309.424V107.467L305.776 100.523H307.392L310.144 106.171L312.896 100.523H314.512ZM10.296 127.195H5.432L4.536 129.675H3L7.032 118.587H8.712L12.728 129.675H11.192L10.296 127.195ZM9.88 126.011L7.864 120.379L5.848 126.011H9.88ZM18.0213 129.787C17.2853 129.787 16.6239 129.659 16.0373 129.403C15.4613 129.136 15.0079 128.774 14.6773 128.315C14.3466 127.846 14.1759 127.307 14.1653 126.699H15.7173C15.7706 127.222 15.9839 127.664 16.3573 128.027C16.7413 128.379 17.2959 128.555 18.0213 128.555C18.7146 128.555 19.2586 128.384 19.6533 128.043C20.0586 127.691 20.2613 127.243 20.2613 126.699C20.2613 126.272 20.1439 125.926 19.9093 125.659C19.6746 125.392 19.3813 125.19 19.0293 125.051C18.6773 124.912 18.2026 124.763 17.6053 124.603C16.8693 124.411 16.2773 124.219 15.8293 124.027C15.3919 123.835 15.0133 123.536 14.6933 123.131C14.3839 122.715 14.2293 122.16 14.2293 121.467C14.2293 120.859 14.3839 120.32 14.6933 119.851C15.0026 119.382 15.4346 119.019 15.9893 118.763C16.5546 118.507 17.1999 118.379 17.9253 118.379C18.9706 118.379 19.8239 118.64 20.4853 119.163C21.1573 119.686 21.5359 120.379 21.6213 121.243H20.0213C19.9679 120.816 19.7439 120.443 19.3493 120.123C18.9546 119.792 18.4319 119.627 17.7813 119.627C17.1733 119.627 16.6773 119.787 16.2933 120.107C15.9093 120.416 15.7173 120.854 15.7173 121.419C15.7173 121.824 15.8293 122.155 16.0533 122.411C16.2879 122.667 16.5706 122.864 16.9013 123.003C17.2426 123.131 17.7173 123.28 18.3253 123.451C19.0613 123.654 19.6533 123.856 20.1013 124.059C20.5493 124.251 20.9333 124.555 21.2532 124.971C21.5733 125.376 21.7333 125.931 21.7333 126.635C21.7333 127.179 21.5893 127.691 21.3013 128.171C21.0133 128.651 20.5866 129.04 20.0213 129.339C19.4559 129.638 18.7893 129.787 18.0213 129.787ZM27.4119 129.787C26.6759 129.787 26.0145 129.659 25.4279 129.403C24.8519 129.136 24.3985 128.774 24.0679 128.315C23.7372 127.846 23.5665 127.307 23.5559 126.699H25.1079C25.1612 127.222 25.3745 127.664 25.7479 128.027C26.1319 128.379 26.6865 128.555 27.4119 128.555C28.1052 128.555 28.6492 128.384 29.0439 128.043C29.4492 127.691 29.6519 127.243 29.6519 126.699C29.6519 126.272 29.5345 125.926 29.2999 125.659C29.0652 125.392 28.7719 125.19 28.4199 125.051C28.0679 124.912 27.5932 124.763 26.9959 124.603C26.2599 124.411 25.6679 124.219 25.2199 124.027C24.7825 123.835 24.4039 123.536 24.0839 123.131C23.7745 122.715 23.6199 122.16 23.6199 121.467C23.6199 120.859 23.7745 120.32 24.0839 119.851C24.3932 119.382 24.8252 119.019 25.3799 118.763C25.9452 118.507 26.5905 118.379 27.3159 118.379C28.3612 118.379 29.2145 118.64 29.8759 119.163C30.5479 119.686 30.9265 120.379 31.0119 121.243H29.4119C29.3585 120.816 29.1345 120.443 28.7399 120.123C28.3452 119.792 27.8225 119.627 27.1719 119.627C26.5639 119.627 26.0679 119.787 25.6839 120.107C25.2999 120.416 25.1079 120.854 25.1079 121.419C25.1079 121.824 25.2199 122.155 25.4439 122.411C25.6785 122.667 25.9612 122.864 26.2919 123.003C26.6332 123.131 27.1079 123.28 27.7159 123.451C28.4519 123.654 29.0439 123.856 29.4919 124.059C29.9399 124.251 30.3239 124.555 30.6439 124.971C30.9639 125.376 31.1239 125.931 31.1239 126.635C31.1239 127.179 30.9799 127.691 30.6919 128.171C30.4039 128.651 29.9772 129.04 29.4119 129.339C28.8465 129.638 28.1799 129.787 27.4119 129.787ZM34.7225 119.707V123.435H38.7865V124.635H34.7225V128.475H39.2665V129.675H33.2665V118.507H39.2665V119.707H34.7225ZM45.0056 129.787C44.2696 129.787 43.6083 129.659 43.0216 129.403C42.4456 129.136 41.9923 128.774 41.6616 128.315C41.331 127.846 41.1603 127.307 41.1496 126.699H42.7016C42.755 127.222 42.9683 127.664 43.3416 128.027C43.7256 128.379 44.2803 128.555 45.0056 128.555C45.699 128.555 46.243 128.384 46.6376 128.043C47.043 127.691 47.2456 127.243 47.2456 126.699C47.2456 126.272 47.1283 125.926 46.8936 125.659C46.659 125.392 46.3656 125.19 46.0136 125.051C45.6616 124.912 45.187 124.763 44.5896 124.603C43.8536 124.411 43.2616 124.219 42.8136 124.027C42.3763 123.835 41.9976 123.536 41.6776 123.131C41.3683 122.715 41.2136 122.16 41.2136 121.467C41.2136 120.859 41.3683 120.32 41.6776 119.851C41.987 119.382 42.419 119.019 42.9736 118.763C43.539 118.507 44.1843 118.379 44.9096 118.379C45.955 118.379 46.8083 118.64 47.4696 119.163C48.1416 119.686 48.5203 120.379 48.6056 121.243H47.0056C46.9523 120.816 46.7283 120.443 46.3336 120.123C45.939 119.792 45.4163 119.627 44.7656 119.627C44.1576 119.627 43.6616 119.787 43.2776 120.107C42.8936 120.416 42.7016 120.854 42.7016 121.419C42.7016 121.824 42.8136 122.155 43.0376 122.411C43.2723 122.667 43.555 122.864 43.8856 123.003C44.227 123.131 44.7016 123.28 45.3096 123.451C46.0456 123.654 46.6376 123.856 47.0856 124.059C47.5336 124.251 47.9176 124.555 48.2376 124.971C48.5576 125.376 48.7176 125.931 48.7176 126.635C48.7176 127.179 48.5736 127.691 48.2856 128.171C47.9976 128.651 47.571 129.04 47.0056 129.339C46.4403 129.638 45.7736 129.787 45.0056 129.787ZM54.3963 129.787C53.6603 129.787 52.9989 129.659 52.4123 129.403C51.8363 129.136 51.3829 128.774 51.0523 128.315C50.7216 127.846 50.5509 127.307 50.5403 126.699H52.0923C52.1456 127.222 52.3589 127.664 52.7323 128.027C53.1163 128.379 53.6709 128.555 54.3963 128.555C55.0896 128.555 55.6336 128.384 56.0283 128.043C56.4336 127.691 56.6363 127.243 56.6363 126.699C56.6363 126.272 56.5189 125.926 56.2843 125.659C56.0496 125.392 55.7563 125.19 55.4043 125.051C55.0523 124.912 54.5776 124.763 53.9803 124.603C53.2443 124.411 52.6523 124.219 52.2043 124.027C51.7669 123.835 51.3883 123.536 51.0683 123.131C50.7589 122.715 50.6043 122.16 50.6043 121.467C50.6043 120.859 50.7589 120.32 51.0683 119.851C51.3776 119.382 51.8096 119.019 52.3643 118.763C52.9296 118.507 53.5749 118.379 54.3003 118.379C55.3456 118.379 56.1989 118.64 56.8603 119.163C57.5323 119.686 57.9109 120.379 57.9963 121.243H56.3963C56.3429 120.816 56.1189 120.443 55.7243 120.123C55.3296 119.792 54.8069 119.627 54.1563 119.627C53.5483 119.627 53.0523 119.787 52.6683 120.107C52.2843 120.416 52.0923 120.854 52.0923 121.419C52.0923 121.824 52.2043 122.155 52.4283 122.411C52.6629 122.667 52.9456 122.864 53.2763 123.003C53.6176 123.131 54.0923 123.28 54.7003 123.451C55.4363 123.654 56.0283 123.856 56.4763 124.059C56.9243 124.251 57.3083 124.555 57.6282 124.971C57.9483 125.376 58.1083 125.931 58.1083 126.635C58.1083 127.179 57.9643 127.691 57.6763 128.171C57.3883 128.651 56.9616 129.04 56.3963 129.339C55.8309 129.638 55.1643 129.787 54.3963 129.787ZM71.5629 118.603V129.675H70.1069V121.419L66.4269 129.675H65.4029L61.7069 121.403V129.675H60.2509V118.603H61.8189L65.9149 127.755L70.0109 118.603H71.5629ZM75.4881 119.707V123.435H79.5521V124.635H75.4881V128.475H80.0321V129.675H74.0321V118.507H80.0321V119.707H75.4881ZM91.0032 129.675H89.5473L83.6913 120.795V129.675H82.2353V118.507H83.6913L89.5473 127.371V118.507H91.0032V129.675ZM100.349 118.523V119.707H97.3093V129.675H95.8533V119.707H92.7973V118.523H100.349Z" fill="#5C5C5C"/>
<path d="M26.54 68.9465C26.54 70.7358 26.1293 72.3785 25.308 73.8745C24.4867 75.3412 23.2253 76.5292 21.524 77.4385C19.8227 78.3478 17.7107 78.8025 15.188 78.8025H10.524V89.8905H3V59.0025H15.188C17.652 59.0025 19.7347 59.4278 21.436 60.2785C23.1373 61.1292 24.4133 62.3025 25.264 63.7985C26.1147 65.2945 26.54 67.0105 26.54 68.9465ZM14.616 72.8185C16.0533 72.8185 17.124 72.4812 17.828 71.8065C18.532 71.1318 18.884 70.1785 18.884 68.9465C18.884 67.7145 18.532 66.7612 17.828 66.0865C17.124 65.4118 16.0533 65.0745 14.616 65.0745H10.524V72.8185H14.616ZM37.981 57.3305V89.8905H30.457V57.3305H37.981ZM41.9376 77.5705C41.9376 75.0478 42.4069 72.8332 43.3456 70.9265C44.3136 69.0198 45.6189 67.5532 47.2616 66.5265C48.9043 65.4998 50.7376 64.9865 52.7616 64.9865C54.4923 64.9865 56.0029 65.3385 57.2936 66.0425C58.6136 66.7465 59.6256 67.6705 60.3296 68.8145V65.3385H67.8536V89.8905H60.3296V86.4145C59.5963 87.5585 58.5696 88.4825 57.2496 89.1865C55.9589 89.8905 54.4483 90.2425 52.7176 90.2425C50.7229 90.2425 48.9043 89.7292 47.2616 88.7025C45.6189 87.6465 44.3136 86.1652 43.3456 84.2585C42.4069 82.3225 41.9376 80.0932 41.9376 77.5705ZM60.3296 77.6145C60.3296 75.7372 59.8016 74.2558 58.7456 73.1705C57.7189 72.0852 56.4576 71.5425 54.9616 71.5425C53.4656 71.5425 52.1896 72.0852 51.1336 73.1705C50.1069 74.2265 49.5936 75.6932 49.5936 77.5705C49.5936 79.4478 50.1069 80.9438 51.1336 82.0585C52.1896 83.1438 53.4656 83.6865 54.9616 83.6865C56.4576 83.6865 57.7189 83.1438 58.7456 82.0585C59.8016 80.9732 60.3296 79.4918 60.3296 77.6145ZM86.9809 83.5105V89.8905H83.1529C80.4249 89.8905 78.2982 89.2305 76.7729 87.9105C75.2475 86.5612 74.4849 84.3758 74.4849 81.3545V71.5865H71.4929V65.3385H74.4849V59.3545H82.0089V65.3385H86.9369V71.5865H82.0089V81.4425C82.0089 82.1758 82.1849 82.7038 82.5369 83.0265C82.8889 83.3492 83.4755 83.5105 84.2969 83.5105H86.9809ZM103.492 71.5865H99.444V89.8905H91.9199V71.5865H89.1919V65.3385H91.9199V64.6345C91.9199 61.6132 92.7852 59.3252 94.5159 57.7705C96.2465 56.1865 98.7839 55.3945 102.128 55.3945C102.685 55.3945 103.096 55.4092 103.36 55.4385V61.8185C101.923 61.7305 100.911 61.9358 100.324 62.4345C99.737 62.9332 99.444 63.8278 99.444 65.1185V65.3385H103.492V71.5865ZM118.203 90.2425C115.798 90.2425 113.627 89.7292 111.691 88.7025C109.785 87.6758 108.274 86.2092 107.159 84.3025C106.074 82.3958 105.531 80.1665 105.531 77.6145C105.531 75.0918 106.089 72.8772 107.203 70.9705C108.318 69.0345 109.843 67.5532 111.779 66.5265C113.715 65.4998 115.886 64.9865 118.291 64.9865C120.697 64.9865 122.867 65.4998 124.803 66.5265C126.739 67.5532 128.265 69.0345 129.379 70.9705C130.494 72.8772 131.051 75.0918 131.051 77.6145C131.051 80.1372 130.479 82.3665 129.335 84.3025C128.221 86.2092 126.681 87.6758 124.715 88.7025C122.779 89.7292 120.609 90.2425 118.203 90.2425ZM118.203 83.7305C119.641 83.7305 120.858 83.2025 121.855 82.1465C122.882 81.0905 123.395 79.5798 123.395 77.6145C123.395 75.6492 122.897 74.1385 121.899 73.0825C120.931 72.0265 119.729 71.4985 118.291 71.4985C116.825 71.4985 115.607 72.0265 114.639 73.0825C113.671 74.1092 113.187 75.6198 113.187 77.6145C113.187 79.5798 113.657 81.0905 114.595 82.1465C115.563 83.2025 116.766 83.7305 118.203 83.7305ZM142.567 69.4305C143.447 68.0812 144.547 67.0252 145.867 66.2625C147.187 65.4705 148.654 65.0745 150.267 65.0745V73.0385H148.199C146.322 73.0385 144.914 73.4492 143.975 74.2705C143.036 75.0625 142.567 76.4705 142.567 78.4945V89.8905H135.043V65.3385H142.567V69.4305ZM185.191 65.0745C188.242 65.0745 190.662 65.9985 192.451 67.8465C194.27 69.6945 195.179 72.2612 195.179 75.5465V89.8905H187.699V76.5585C187.699 74.9745 187.274 73.7572 186.423 72.9065C185.602 72.0265 184.458 71.5865 182.991 71.5865C181.525 71.5865 180.366 72.0265 179.515 72.9065C178.694 73.7572 178.283 74.9745 178.283 76.5585V89.8905H170.803V76.5585C170.803 74.9745 170.378 73.7572 169.527 72.9065C168.706 72.0265 167.562 71.5865 166.095 71.5865C164.629 71.5865 163.47 72.0265 162.619 72.9065C161.798 73.7572 161.387 74.9745 161.387 76.5585V89.8905H153.863V65.3385H161.387V68.4185C162.15 67.3918 163.147 66.5852 164.379 65.9985C165.611 65.3825 167.005 65.0745 168.559 65.0745C170.407 65.0745 172.05 65.4705 173.487 66.2625C174.954 67.0545 176.098 68.1838 176.919 69.6505C177.77 68.3012 178.929 67.2012 180.395 66.3505C181.862 65.4998 183.461 65.0745 185.191 65.0745Z" fill="black"/>
<path d="M24.5975 14.092C24.5975 16.852 23.6928 19.0753 21.8835 20.762C20.0741 22.4487 17.3601 23.292 13.7415 23.292H7.25547V37H4.03547V4.846H13.7415C17.3295 4.846 20.0281 5.68933 21.8375 7.376C23.6775 9.06266 24.5975 11.3013 24.5975 14.092ZM13.7415 20.532C18.7708 20.532 21.2855 18.3853 21.2855 14.092C21.2855 11.9453 20.6875 10.32 19.4915 9.216C18.2955 8.112 16.3788 7.56 13.7415 7.56H7.25547V20.532H13.7415Z" fill="black"/>
<path d="M39.7523 37.322C37.6363 37.322 35.7656 36.954 34.1403 36.218C32.5456 35.482 31.2883 34.4547 30.3683 33.136C29.4483 31.8173 28.9576 30.3453 28.8963 28.72H32.3003C32.4536 30.284 33.1436 31.664 34.3703 32.86C35.597 34.0253 37.391 34.608 39.7523 34.608C41.9296 34.608 43.647 34.056 44.9043 32.952C46.1923 31.8173 46.8363 30.3913 46.8363 28.674C46.8363 27.294 46.4836 26.19 45.7783 25.362C45.073 24.5033 44.199 23.8747 43.1563 23.476C42.1136 23.0467 40.6723 22.5867 38.8323 22.096C36.6856 21.5133 34.9836 20.946 33.7263 20.394C32.469 19.842 31.3956 18.9833 30.5063 17.818C29.617 16.6527 29.1723 15.0733 29.1723 13.08C29.1723 11.424 29.6016 9.952 30.4603 8.664C31.319 7.34533 32.5303 6.318 34.0943 5.582C35.6583 4.846 37.4523 4.478 39.4763 4.478C42.451 4.478 44.843 5.214 46.6523 6.686C48.4923 8.12733 49.5503 9.998 49.8263 12.298H46.3303C46.1156 10.9793 45.395 9.814 44.1683 8.802C42.9416 7.75933 41.2856 7.238 39.2003 7.238C37.2683 7.238 35.6583 7.75933 34.3703 8.802C33.0823 9.814 32.4383 11.2093 32.4383 12.988C32.4383 14.3373 32.791 15.426 33.4963 16.254C34.2016 17.082 35.0756 17.7107 36.1183 18.14C37.1916 18.5693 38.633 19.0293 40.4423 19.52C42.5276 20.1027 44.2143 20.6853 45.5023 21.268C46.7903 21.82 47.879 22.6787 48.7683 23.844C49.6576 25.0093 50.1023 26.5733 50.1023 28.536C50.1023 30.0387 49.7036 31.4647 48.9063 32.814C48.109 34.1633 46.9283 35.252 45.3643 36.08C43.8003 36.908 41.9296 37.322 39.7523 37.322Z" fill="#FE414D"/>
<path d="M85.952 32.4425H73.376L71.36 38.3945H62.768L74.96 4.69853H84.464L96.656 38.3945H87.968L85.952 32.4425ZM83.84 26.1065L79.664 13.7705L75.536 26.1065H83.84ZM109.818 38.7385C107.725 38.7385 105.862 38.3802 104.228 37.6635C102.594 36.9469 101.304 35.9722 100.358 34.7395C99.4116 33.4782 98.8813 32.0735 98.7666 30.5255H106.034C106.12 31.3569 106.507 32.0305 107.195 32.5465C107.883 33.0625 108.728 33.3205 109.732 33.3205C110.649 33.3205 111.351 33.1485 111.839 32.8045C112.355 32.4319 112.613 31.9589 112.613 31.3855C112.613 30.6975 112.254 30.1959 111.538 29.8805C110.821 29.5365 109.66 29.1639 108.055 28.7625C106.335 28.3612 104.901 27.9455 103.755 27.5155C102.608 27.0569 101.619 26.3545 100.788 25.4085C99.9563 24.4339 99.5406 23.1295 99.5406 21.4955C99.5406 20.1195 99.9133 18.8725 100.659 17.7545C101.433 16.6079 102.551 15.7049 104.013 15.0455C105.503 14.3862 107.266 14.0565 109.302 14.0565C112.312 14.0565 114.677 14.8019 116.397 16.2925C118.145 17.7832 119.149 19.7612 119.407 22.2265H112.613C112.498 21.3952 112.125 20.7359 111.495 20.2485C110.893 19.7612 110.09 19.5175 109.087 19.5175C108.227 19.5175 107.567 19.6895 107.109 20.0335C106.65 20.3489 106.421 20.7932 106.421 21.3665C106.421 22.0545 106.779 22.5705 107.496 22.9145C108.241 23.2585 109.388 23.6025 110.936 23.9465C112.713 24.4052 114.161 24.8639 115.279 25.3225C116.397 25.7525 117.371 26.4692 118.203 27.4725C119.063 28.4472 119.507 29.7659 119.536 31.4285C119.536 32.8332 119.134 34.0945 118.332 35.2125C117.558 36.3019 116.425 37.1619 114.935 37.7925C113.473 38.4232 111.767 38.7385 109.818 38.7385ZM133.795 38.7385C131.702 38.7385 129.839 38.3802 128.205 37.6635C126.571 36.9469 125.281 35.9722 124.335 34.7395C123.389 33.4782 122.859 32.0735 122.744 30.5255H130.011C130.097 31.3569 130.484 32.0305 131.172 32.5465C131.86 33.0625 132.706 33.3205 133.709 33.3205C134.626 33.3205 135.329 33.1485 135.816 32.8045C136.332 32.4319 136.59 31.9589 136.59 31.3855C136.59 30.6975 136.232 30.1959 135.515 29.8805C134.798 29.5365 133.637 29.1639 132.032 28.7625C130.312 28.3612 128.879 27.9455 127.732 27.5155C126.585 27.0569 125.596 26.3545 124.765 25.4085C123.934 24.4339 123.518 23.1295 123.518 21.4955C123.518 20.1195 123.891 18.8725 124.636 17.7545C125.41 16.6079 126.528 15.7049 127.99 15.0455C129.481 14.3862 131.244 14.0565 133.279 14.0565C136.289 14.0565 138.654 14.8019 140.374 16.2925C142.123 17.7832 143.126 19.7612 143.384 22.2265H136.59C136.475 21.3952 136.103 20.7359 135.472 20.2485C134.87 19.7612 134.067 19.5175 133.064 19.5175C132.204 19.5175 131.545 19.6895 131.086 20.0335C130.627 20.3489 130.398 20.7932 130.398 21.3665C130.398 22.0545 130.756 22.5705 131.473 22.9145C132.218 23.2585 133.365 23.6025 134.913 23.9465C136.69 24.4052 138.138 24.8639 139.256 25.3225C140.374 25.7525 141.349 26.4692 142.18 27.4725C143.04 28.4472 143.484 29.7659 143.513 31.4285C143.513 32.8332 143.112 34.0945 142.309 35.2125C141.535 36.3019 140.403 37.1619 138.912 37.7925C137.45 38.4232 135.744 38.7385 133.795 38.7385ZM170.63 26.0105C170.63 26.6985 170.587 27.4152 170.501 28.1605H153.86C153.974 29.6512 154.447 30.7979 155.279 31.6005C156.139 32.3745 157.185 32.7615 158.418 32.7615C160.252 32.7615 161.528 31.9875 162.245 30.4395H170.071C169.669 32.0162 168.938 33.4352 167.878 34.6965C166.846 35.9579 165.541 36.9469 163.965 37.6635C162.388 38.3802 160.625 38.7385 158.676 38.7385C156.325 38.7385 154.232 38.2369 152.398 37.2335C150.563 36.2302 149.13 34.7969 148.098 32.9335C147.066 31.0702 146.55 28.8915 146.55 26.3975C146.55 23.9035 147.051 21.7249 148.055 19.8615C149.087 17.9982 150.52 16.5649 152.355 15.5615C154.189 14.5582 156.296 14.0565 158.676 14.0565C160.998 14.0565 163.062 14.5439 164.868 15.5185C166.674 16.4932 168.078 17.8835 169.082 19.6895C170.114 21.4955 170.63 23.6025 170.63 26.0105ZM163.105 24.0755C163.105 22.8142 162.675 21.8109 161.815 21.0655C160.955 20.3202 159.88 19.9475 158.59 19.9475C157.357 19.9475 156.311 20.3059 155.451 21.0225C154.619 21.7392 154.103 22.7569 153.903 24.0755H163.105ZM184.27 38.7385C182.177 38.7385 180.314 38.3802 178.68 37.6635C177.046 36.9469 175.756 35.9722 174.81 34.7395C173.864 33.4782 173.333 32.0735 173.219 30.5255H180.486C180.572 31.3569 180.959 32.0305 181.647 32.5465C182.335 33.0625 183.18 33.3205 184.184 33.3205C185.101 33.3205 185.803 33.1485 186.291 32.8045C186.807 32.4319 187.065 31.9589 187.065 31.3855C187.065 30.6975 186.706 30.1959 185.99 29.8805C185.273 29.5365 184.112 29.1639 182.507 28.7625C180.787 28.3612 179.353 27.9455 178.207 27.5155C177.06 27.0569 176.071 26.3545 175.24 25.4085C174.408 24.4339 173.993 23.1295 173.993 21.4955C173.993 20.1195 174.365 18.8725 175.111 17.7545C175.885 16.6079 177.003 15.7049 178.465 15.0455C179.955 14.3862 181.718 14.0565 183.754 14.0565C186.764 14.0565 189.129 14.8019 190.849 16.2925C192.597 17.7832 193.601 19.7612 193.859 22.2265H187.065C186.95 21.3952 186.577 20.7359 185.947 20.2485C185.345 19.7612 184.542 19.5175 183.539 19.5175C182.679 19.5175 182.019 19.6895 181.561 20.0335C181.102 20.3489 180.873 20.7932 180.873 21.3665C180.873 22.0545 181.231 22.5705 181.948 22.9145C182.693 23.2585 183.84 23.6025 185.388 23.9465C187.165 24.4052 188.613 24.8639 189.731 25.3225C190.849 25.7525 191.823 26.4692 192.655 27.4725C193.515 28.4472 193.959 29.7659 193.988 31.4285C193.988 32.8332 193.586 34.0945 192.784 35.2125C192.01 36.3019 190.877 37.1619 189.387 37.7925C187.925 38.4232 186.219 38.7385 184.27 38.7385ZM208.247 38.7385C206.155 38.7385 204.291 38.3802 202.657 37.6635C201.023 36.9469 199.733 35.9722 198.787 34.7395C197.841 33.4782 197.311 32.0735 197.196 30.5255H204.463C204.549 31.3569 204.936 32.0305 205.624 32.5465C206.312 33.0625 207.158 33.3205 208.161 33.3205C209.079 33.3205 209.781 33.1485 210.268 32.8045C210.784 32.4319 211.042 31.9589 211.042 31.3855C211.042 30.6975 210.684 30.1959 209.967 29.8805C209.251 29.5365 208.09 29.1639 206.484 28.7625C204.764 28.3612 203.331 27.9455 202.184 27.5155C201.038 27.0569 200.049 26.3545 199.217 25.4085C198.386 24.4339 197.97 23.1295 197.97 21.4955C197.97 20.1195 198.343 18.8725 199.088 17.7545C199.862 16.6079 200.98 15.7049 202.442 15.0455C203.933 14.3862 205.696 14.0565 207.731 14.0565C210.741 14.0565 213.106 14.8019 214.826 16.2925C216.575 17.7832 217.578 19.7612 217.836 22.2265H211.042C210.928 21.3952 210.555 20.7359 209.924 20.2485C209.322 19.7612 208.52 19.5175 207.516 19.5175C206.656 19.5175 205.997 19.6895 205.538 20.0335C205.08 20.3489 204.85 20.7932 204.85 21.3665C204.85 22.0545 205.209 22.5705 205.925 22.9145C206.671 23.2585 207.817 23.6025 209.365 23.9465C211.143 24.4052 212.59 24.8639 213.708 25.3225C214.826 25.7525 215.801 26.4692 216.632 27.4725C217.492 28.4472 217.937 29.7659 217.965 31.4285C217.965 32.8332 217.564 34.0945 216.761 35.2125C215.987 36.3019 214.855 37.1619 213.364 37.7925C211.902 38.4232 210.197 38.7385 208.247 38.7385ZM253.08 14.1425C256.061 14.1425 258.426 15.0455 260.175 16.8515C261.952 18.6575 262.841 21.1659 262.841 24.3765V38.3945H255.531V25.3655C255.531 23.8175 255.115 22.6279 254.284 21.7965C253.481 20.9365 252.363 20.5065 250.93 20.5065C249.497 20.5065 248.364 20.9365 247.533 21.7965C246.73 22.6279 246.329 23.8175 246.329 25.3655V38.3945H239.019V25.3655C239.019 23.8175 238.603 22.6279 237.772 21.7965C236.969 20.9365 235.851 20.5065 234.418 20.5065C232.985 20.5065 231.852 20.9365 231.021 21.7965C230.218 22.6279 229.817 23.8175 229.817 25.3655V38.3945H222.464V14.4005H229.817V17.4105C230.562 16.4072 231.537 15.6189 232.741 15.0455C233.945 14.4435 235.307 14.1425 236.826 14.1425C238.632 14.1425 240.237 14.5295 241.642 15.3035C243.075 16.0775 244.193 17.1812 244.996 18.6145C245.827 17.2959 246.96 16.2209 248.393 15.3895C249.826 14.5582 251.389 14.1425 253.08 14.1425ZM290.601 26.0105C290.601 26.6985 290.558 27.4152 290.472 28.1605H273.831C273.946 29.6512 274.419 30.7979 275.25 31.6005C276.11 32.3745 277.157 32.7615 278.389 32.7615C280.224 32.7615 281.5 31.9875 282.216 30.4395H290.042C289.641 32.0162 288.91 33.4352 287.849 34.6965C286.817 35.9579 285.513 36.9469 283.936 37.6635C282.36 38.3802 280.597 38.7385 278.647 38.7385C276.297 38.7385 274.204 38.2369 272.369 37.2335C270.535 36.2302 269.101 34.7969 268.069 32.9335C267.037 31.0702 266.521 28.8915 266.521 26.3975C266.521 23.9035 267.023 21.7249 268.026 19.8615C269.058 17.9982 270.492 16.5649 272.326 15.5615C274.161 14.5582 276.268 14.0565 278.647 14.0565C280.969 14.0565 283.033 14.5439 284.839 15.5185C286.645 16.4932 288.05 17.8835 289.053 19.6895C290.085 21.4955 290.601 23.6025 290.601 26.0105ZM283.076 24.0755C283.076 22.8142 282.646 21.8109 281.786 21.0655C280.926 20.3202 279.851 19.9475 278.561 19.9475C277.329 19.9475 276.282 20.3059 275.422 21.0225C274.591 21.7392 274.075 22.7569 273.874 24.0755H283.076ZM309.1 14.1425C311.91 14.1425 314.146 15.0599 315.808 16.8945C317.5 18.7005 318.345 21.1945 318.345 24.3765V38.3945H311.035V25.3655C311.035 23.7602 310.62 22.5132 309.788 21.6245C308.957 20.7359 307.839 20.2915 306.434 20.2915C305.03 20.2915 303.912 20.7359 303.08 21.6245C302.249 22.5132 301.833 23.7602 301.833 25.3655V38.3945H294.48V14.4005H301.833V17.5825C302.579 16.5219 303.582 15.6905 304.843 15.0885C306.105 14.4579 307.524 14.1425 309.1 14.1425ZM336.828 32.1595V38.3945H333.087C330.421 38.3945 328.343 37.7495 326.852 36.4595C325.361 35.1409 324.616 33.0052 324.616 30.0525V20.5065H321.692V14.4005H324.616V8.55253H331.969V14.4005H336.785V20.5065H331.969V30.1385C331.969 30.8552 332.141 31.3712 332.485 31.6865C332.829 32.0019 333.402 32.1595 334.205 32.1595H336.828Z" fill="black"/>
</svg>
