<svg width="357" height="73" viewBox="0 0 357 73" fill="none" xmlns="http://www.w3.org/2000/svg">
<path d="M30.1605 16.8307C30.1605 20.2246 29.0481 22.9586 26.8232 25.0326C24.5983 27.1067 21.261 28.1437 16.8112 28.1437H8.83558V45H4.87604V5.46119H16.8112C21.2233 5.46119 24.5417 6.49821 26.7666 8.57225C29.0292 10.6463 30.1605 13.3991 30.1605 16.8307ZM16.8112 24.7498C22.9956 24.7498 26.0878 22.1101 26.0878 16.8307C26.0878 14.191 25.3525 12.1924 23.8818 10.8348C22.4111 9.47729 20.0543 8.79851 16.8112 8.79851H8.83558V24.7498H16.8112Z" fill="black"/>
<path d="M48.796 45.396C46.194 45.396 43.8937 44.9434 41.8951 44.0384C39.9341 43.1334 38.388 41.8701 37.2567 40.2486C36.1254 38.627 35.5221 36.817 35.4467 34.8183H39.6325C39.821 36.7415 40.6695 38.4385 42.1779 39.9092C43.6863 41.3421 45.8923 42.0586 48.796 42.0586C51.4734 42.0586 53.5851 41.3799 55.1312 40.0223C56.715 38.627 57.507 36.8735 57.507 34.7618C57.507 33.0648 57.0733 31.7073 56.206 30.6891C55.3386 29.6332 54.2639 28.8602 52.9818 28.3699C51.6996 27.842 49.9273 27.2764 47.6647 26.673C45.025 25.9565 42.9321 25.2589 41.386 24.5801C39.8399 23.9013 38.52 22.8454 37.4264 21.4125C36.3329 19.9795 35.7861 18.0374 35.7861 15.5863C35.7861 13.55 36.314 11.7399 37.3699 10.1561C38.4258 8.53454 39.9153 7.27126 41.8385 6.36623C43.7617 5.46119 45.9677 5.00867 48.4566 5.00867C52.1144 5.00867 55.0558 5.91371 57.2807 7.72378C59.5433 9.49615 60.8443 11.7964 61.1837 14.6247H56.8847C56.6208 13.0032 55.7346 11.5702 54.2262 10.3258C52.7178 9.04363 50.6815 8.40256 48.1172 8.40256C45.7415 8.40256 43.7617 9.04363 42.1779 10.3258C40.5941 11.5702 39.8022 13.286 39.8022 15.4732C39.8022 17.1324 40.2358 18.4711 41.1032 19.4893C41.9705 20.5074 43.0452 21.2805 44.3273 21.8084C45.6472 22.3364 47.4196 22.902 49.6444 23.5054C52.2087 24.2219 54.2828 24.9383 55.8666 25.6548C57.4504 26.3336 58.7891 27.3895 59.8827 28.8225C60.9763 30.2554 61.5231 32.1786 61.5231 34.5921C61.5231 36.4399 61.0328 38.1934 60.0524 39.8526C59.0719 41.5118 57.6201 42.8505 55.6969 43.8687C53.7737 44.8869 51.4734 45.396 48.796 45.396Z" fill="#FE414D"/>
<circle cx="143.855" cy="33.1095" r="11.4171" stroke="#FE414D" stroke-width="2.28341"/>
<circle cx="144.069" cy="33.1511" r="2.69116" fill="black"/>
<path d="M150.329 28.3195L144.704 34.6434L142.851 32.2834L150.329 28.3195Z" fill="black"/>
<path d="M75.9031 1.67229H81.6801V28.0891L89.8204 20.0012H97.5407L86.7219 30.5049L98.381 45H90.8708L82.6254 34.4438L81.6801 35.3891V45H75.9031V1.67229ZM102.06 45V20.0012H107.889V22.312C109.885 20.3163 112.143 19.3185 114.717 19.3185C117.132 19.3185 119.181 19.9487 120.809 21.3667C122.752 23.0473 123.592 25.6207 123.592 29.6646V45H117.815V31.0301C117.815 26.1984 116.607 24.5178 113.141 24.5178C109.307 24.5178 107.889 26.6185 107.889 32.9733V45H102.06ZM159.885 20.0012H166.397L172.909 34.2862L179.999 17.7429L187.089 34.2862L193.549 20.0012H200.009L186.932 46.8907L179.999 30.7675L172.962 46.8907L159.885 20.0012Z" fill="black"/>
<path d="M219.486 6.4011V21.684H234.348V6.4011H244.642V46H234.348V29.6668H219.486V46H209.192V6.4011H219.486ZM261.921 26.2005C261.921 32.4502 266.753 37.4395 273.107 37.4395C279.147 37.4395 284.241 32.6603 284.241 26.3056C284.241 20.0034 279.095 15.2242 273.055 15.2242C267.12 15.2242 261.921 20.1084 261.921 26.2005ZM251.155 25.9905C251.155 14.594 260.398 5.24569 273.055 5.24569C285.869 5.24569 295.008 14.5415 295.008 26.3056C295.008 38.0697 285.974 47.418 272.897 47.418C260.451 47.418 251.155 38.1748 251.155 25.9905ZM296.745 6.4011H307.512L314.339 31.9776L322.742 6.4011H330.935L338.76 31.9776L346.218 6.4011H356.931L344.327 46H333.823L326.576 23.0494L319.013 46H308.562L296.745 6.4011Z" fill="black"/>
<path d="M11.552 61.128V62.312H8.512V72.28H7.056V62.312H4V61.128H11.552ZM15.2482 61.128V68.184C15.2482 69.176 15.4882 69.912 15.9682 70.392C16.4589 70.872 17.1362 71.112 18.0002 71.112C18.8536 71.112 19.5202 70.872 20.0002 70.392C20.4909 69.912 20.7362 69.176 20.7362 68.184V61.128H22.1922V68.168C22.1922 69.096 22.0056 69.88 21.6322 70.52C21.2589 71.1493 20.7522 71.6187 20.1122 71.928C19.4829 72.2373 18.7736 72.392 17.9842 72.392C17.1949 72.392 16.4802 72.2373 15.8402 71.928C15.2109 71.6187 14.7096 71.1493 14.3362 70.52C13.9736 69.88 13.7922 69.096 13.7922 68.168V61.128H15.2482ZM30.9731 72.28L28.3171 67.72H26.5571V72.28H25.1011V61.128H28.7011C29.5438 61.128 30.2531 61.272 30.8291 61.56C31.4158 61.848 31.8531 62.2373 32.1411 62.728C32.4291 63.2187 32.5731 63.7787 32.5731 64.408C32.5731 65.176 32.3491 65.8533 31.9011 66.44C31.4638 67.0267 30.8024 67.416 29.9171 67.608L32.7171 72.28H30.9731ZM26.5571 66.552H28.7011C29.4904 66.552 30.0824 66.36 30.4771 65.976C30.8718 65.5813 31.0691 65.0587 31.0691 64.408C31.0691 63.7467 30.8718 63.2347 30.4771 62.872C30.0931 62.5093 29.5011 62.328 28.7011 62.328H26.5571V66.552ZM44.0835 72.28H42.6275L36.7715 63.4V72.28H35.3155V61.112H36.7715L42.6275 69.976V61.112H44.0835V72.28ZM48.5015 61.128V72.28H47.0455V61.128H48.5015ZM60.231 72.28H58.775L52.919 63.4V72.28H51.463V61.112H52.919L58.775 69.976V61.112H60.231V72.28ZM71.641 64.36C71.3317 63.7093 70.8837 63.208 70.297 62.856C69.7103 62.4933 69.0277 62.312 68.249 62.312C67.4703 62.312 66.7663 62.4933 66.137 62.856C65.5183 63.208 65.0277 63.72 64.665 64.392C64.313 65.0533 64.137 65.8213 64.137 66.696C64.137 67.5707 64.313 68.3387 64.665 69C65.0277 69.6613 65.5183 70.1733 66.137 70.536C66.7663 70.888 67.4703 71.064 68.249 71.064C69.337 71.064 70.233 70.7387 70.937 70.088C71.641 69.4373 72.0517 68.5573 72.169 67.448H67.721V66.264H73.721V67.384C73.6357 68.3013 73.3477 69.144 72.857 69.912C72.3663 70.6693 71.721 71.272 70.921 71.72C70.121 72.1573 69.2303 72.376 68.249 72.376C67.2143 72.376 66.2703 72.136 65.417 71.656C64.5637 71.1653 63.8863 70.488 63.385 69.624C62.8943 68.76 62.649 67.784 62.649 66.696C62.649 65.608 62.8943 64.632 63.385 63.768C63.8863 62.8933 64.5637 62.216 65.417 61.736C66.2703 61.2453 67.2143 61 68.249 61C69.433 61 70.4783 61.2933 71.385 61.88C72.3023 62.4667 72.969 63.2933 73.385 64.36H71.641ZM86.9197 72.28L82.3277 67.192V72.28H80.8717V61.128H82.3277V66.296L86.9357 61.128H88.7758L83.7197 66.712L88.8238 72.28H86.9197ZM98.3858 64.392C98.3858 65.32 98.0658 66.0933 97.4258 66.712C96.7968 67.32 95.8308 67.624 94.5298 67.624H92.3858V72.28H90.9298V61.128H94.5298C95.7888 61.128 96.7428 61.432 97.3938 62.04C98.0548 62.648 98.3858 63.432 98.3858 64.392ZM94.5298 66.424C95.3408 66.424 95.9378 66.248 96.3218 65.896C96.7058 65.544 96.8978 65.0427 96.8978 64.392C96.8978 63.016 96.1088 62.328 94.5298 62.328H92.3858V66.424H94.5298ZM102.132 61.128V72.28H100.676V61.128H102.132ZM108.197 72.424C107.525 72.424 106.923 72.312 106.389 72.088C105.856 71.8533 105.435 71.5333 105.125 71.128C104.816 70.712 104.645 70.2373 104.613 69.704H106.117C106.16 70.1413 106.363 70.4987 106.725 70.776C107.099 71.0533 107.584 71.192 108.181 71.192C108.736 71.192 109.173 71.0693 109.493 70.824C109.813 70.5787 109.973 70.2693 109.973 69.896C109.973 69.512 109.803 69.2293 109.461 69.048C109.12 68.856 108.592 68.6693 107.877 68.488C107.227 68.3173 106.693 68.1467 106.277 67.976C105.872 67.7947 105.52 67.5333 105.221 67.192C104.933 66.84 104.789 66.3813 104.789 65.816C104.789 65.368 104.923 64.9573 105.189 64.584C105.456 64.2107 105.835 63.9173 106.325 63.704C106.816 63.48 107.376 63.368 108.005 63.368C108.976 63.368 109.76 63.6133 110.357 64.104C110.955 64.5947 111.275 65.2667 111.317 66.12H109.861C109.829 65.6613 109.643 65.2933 109.301 65.016C108.971 64.7387 108.523 64.6 107.957 64.6C107.435 64.6 107.019 64.712 106.709 64.936C106.4 65.16 106.245 65.4533 106.245 65.816C106.245 66.104 106.336 66.344 106.517 66.536C106.709 66.7173 106.944 66.8667 107.221 66.984C107.509 67.0907 107.904 67.2133 108.405 67.352C109.035 67.5227 109.547 67.6933 109.941 67.864C110.336 68.024 110.672 68.2693 110.949 68.6C111.237 68.9307 111.387 69.3627 111.397 69.896C111.397 70.376 111.264 70.808 110.997 71.192C110.731 71.576 110.352 71.88 109.861 72.104C109.381 72.3173 108.827 72.424 108.197 72.424ZM120.134 61.128V72.28H118.678V61.128H120.134ZM131.864 72.28H130.408L124.552 63.4V72.28H123.096V61.112H124.552L130.408 69.976V61.112H131.864V72.28ZM141.69 61.128V62.312H138.65V72.28H137.194V62.312H134.138V61.128H141.69ZM149.018 72.392C147.983 72.392 147.039 72.152 146.186 71.672C145.333 71.1813 144.655 70.504 144.154 69.64C143.663 68.7653 143.418 67.784 143.418 66.696C143.418 65.608 143.663 64.632 144.154 63.768C144.655 62.8933 145.333 62.216 146.186 61.736C147.039 61.2453 147.983 61 149.018 61C150.063 61 151.013 61.2453 151.866 61.736C152.719 62.216 153.391 62.888 153.882 63.752C154.373 64.616 154.618 65.5973 154.618 66.696C154.618 67.7947 154.373 68.776 153.882 69.64C153.391 70.504 152.719 71.1813 151.866 71.672C151.013 72.152 150.063 72.392 149.018 72.392ZM149.018 71.128C149.797 71.128 150.495 70.9467 151.114 70.584C151.743 70.2213 152.234 69.704 152.586 69.032C152.949 68.36 153.13 67.5813 153.13 66.696C153.13 65.8 152.949 65.0213 152.586 64.36C152.234 63.688 151.749 63.1707 151.13 62.808C150.511 62.4453 149.807 62.264 149.018 62.264C148.229 62.264 147.525 62.4453 146.906 62.808C146.287 63.1707 145.797 63.688 145.434 64.36C145.082 65.0213 144.906 65.8 144.906 66.696C144.906 67.5813 145.082 68.36 145.434 69.032C145.797 69.704 146.287 70.2213 146.906 70.584C147.535 70.9467 148.239 71.128 149.018 71.128ZM173.078 61.208V72.28H171.622V64.024L167.942 72.28H166.918L163.222 64.008V72.28H161.766V61.208H163.334L167.43 70.36L171.526 61.208H173.078ZM181.083 72.392C180.048 72.392 179.104 72.152 178.251 71.672C177.398 71.1813 176.72 70.504 176.219 69.64C175.728 68.7653 175.483 67.784 175.483 66.696C175.483 65.608 175.728 64.632 176.219 63.768C176.72 62.8933 177.398 62.216 178.251 61.736C179.104 61.2453 180.048 61 181.083 61C182.128 61 183.078 61.2453 183.931 61.736C184.784 62.216 185.456 62.888 185.947 63.752C186.438 64.616 186.683 65.5973 186.683 66.696C186.683 67.7947 186.438 68.776 185.947 69.64C185.456 70.504 184.784 71.1813 183.931 71.672C183.078 72.152 182.128 72.392 181.083 72.392ZM181.083 71.128C181.862 71.128 182.56 70.9467 183.179 70.584C183.808 70.2213 184.299 69.704 184.651 69.032C185.014 68.36 185.195 67.5813 185.195 66.696C185.195 65.8 185.014 65.0213 184.651 64.36C184.299 63.688 183.814 63.1707 183.195 62.808C182.576 62.4453 181.872 62.264 181.083 62.264C180.294 62.264 179.59 62.4453 178.971 62.808C178.352 63.1707 177.862 63.688 177.499 64.36C177.147 65.0213 176.971 65.8 176.971 66.696C176.971 67.5813 177.147 68.36 177.499 69.032C177.862 69.704 178.352 70.2213 178.971 70.584C179.6 70.9467 180.304 71.128 181.083 71.128ZM200.397 61.208V72.28H198.941V64.024L195.261 72.28H194.237L190.541 64.008V72.28H189.085V61.208H190.653L194.749 70.36L198.845 61.208H200.397ZM204.802 62.312V66.04H208.866V67.24H204.802V71.08H209.346V72.28H203.346V61.112H209.346V62.312H204.802ZM220.797 72.28H219.341L213.485 63.4V72.28H212.029V61.112H213.485L219.341 69.976V61.112H220.797V72.28ZM230.623 61.128V62.312H227.583V72.28H226.127V62.312H223.071V61.128H230.623ZM234.32 61.128V68.184C234.32 69.176 234.56 69.912 235.04 70.392C235.53 70.872 236.208 71.112 237.072 71.112C237.925 71.112 238.592 70.872 239.072 70.392C239.562 69.912 239.808 69.176 239.808 68.184V61.128H241.264V68.168C241.264 69.096 241.077 69.88 240.704 70.52C240.33 71.1493 239.824 71.6187 239.184 71.928C238.554 72.2373 237.845 72.392 237.056 72.392C236.266 72.392 235.552 72.2373 234.912 71.928C234.282 71.6187 233.781 71.1493 233.408 70.52C233.045 69.88 232.864 69.096 232.864 68.168V61.128H234.32ZM255.485 61.208V72.28H254.029V64.024L250.349 72.28H249.325L245.629 64.008V72.28H244.173V61.208H245.741L249.837 70.36L253.933 61.208H255.485Z" fill="#5C5C5C"/>
</svg>
