<svg width="287" height="73" viewBox="0 0 287 73" fill="none" xmlns="http://www.w3.org/2000/svg">
<path d="M148.7 6.4011V21.684H163.562V6.4011H173.856V46H163.562V29.6668H148.7V46H138.406V6.4011H148.7ZM191.135 26.2005C191.135 32.4502 195.967 37.4395 202.321 37.4395C208.361 37.4395 213.455 32.6603 213.455 26.3056C213.455 20.0034 208.308 15.2242 202.269 15.2242C196.334 15.2242 191.135 20.1084 191.135 26.2005ZM180.369 25.9905C180.369 14.594 189.612 5.24569 202.269 5.24569C215.083 5.24569 224.222 14.5415 224.222 26.3056C224.222 38.0697 215.188 47.418 202.111 47.418C189.664 47.418 180.369 38.1748 180.369 25.9905ZM225.959 6.4011H236.725L243.553 31.9776L251.956 6.4011H260.149L267.974 31.9776L275.432 6.4011H286.145L273.541 46H263.037L255.79 23.0494L248.227 46H237.776L225.959 6.4011Z" fill="black" style="fill:black;fill-opacity:1;"/>
<circle cx="77.5588" cy="33.5588" r="11.4171" stroke="#FE414D" style="stroke:#FE414D;stroke:color(display-p3 0.9961 0.2549 0.3020);stroke-opacity:1;" stroke-width="2.28341"/>
<circle cx="77.7727" cy="33.6003" r="2.69116" fill="black" style="fill:black;fill-opacity:1;"/>
<path d="M84.0326 28.7688L78.4072 35.0926L76.5544 32.7327L84.0326 28.7688Z" fill="black" style="fill:black;fill-opacity:1;"/>
<path d="M7.87312 6.4011V22.2091L23.3135 6.4011H31.2438L13.3876 24.3099L31.3489 46H23.3661L9.13356 28.4063L7.87312 29.6142V46H1.88601V6.4011H7.87312ZM35.6074 46V21.0012H41.4369V23.312C43.4326 21.3163 45.6909 20.3185 48.2643 20.3185C50.6802 20.3185 52.7284 20.9487 54.3564 22.3667C56.2996 24.0473 57.1399 26.6207 57.1399 30.6646V46H51.3629V32.0301C51.3629 27.1984 50.155 25.5178 46.6888 25.5178C42.8549 25.5178 41.4369 27.6185 41.4369 33.9733V46H35.6074ZM93.4322 21.0012H99.9445L106.457 35.2862L113.547 18.7429L120.637 35.2862L127.097 21.0012H133.556L120.479 47.8907L113.547 31.7675L106.509 47.8907L93.4322 21.0012Z" fill="black" style="fill:black;fill-opacity:1;"/>
<path d="M9.552 61.128V62.312H6.512V72.28H5.056V62.312H2V61.128H9.552ZM13.2482 61.128V68.184C13.2482 69.176 13.4882 69.912 13.9682 70.392C14.4589 70.872 15.1362 71.112 16.0002 71.112C16.8536 71.112 17.5202 70.872 18.0002 70.392C18.4909 69.912 18.7362 69.176 18.7362 68.184V61.128H20.1922V68.168C20.1922 69.096 20.0056 69.88 19.6322 70.52C19.2589 71.1493 18.7522 71.6187 18.1122 71.928C17.4829 72.2373 16.7736 72.392 15.9842 72.392C15.1949 72.392 14.4802 72.2373 13.8402 71.928C13.2109 71.6187 12.7096 71.1493 12.3362 70.52C11.9736 69.88 11.7922 69.096 11.7922 68.168V61.128H13.2482ZM28.9731 72.28L26.3171 67.72H24.5571V72.28H23.1011V61.128H26.7011C27.5438 61.128 28.2531 61.272 28.8291 61.56C29.4158 61.848 29.8531 62.2373 30.1411 62.728C30.4291 63.2187 30.5731 63.7787 30.5731 64.408C30.5731 65.176 30.3491 65.8533 29.9011 66.44C29.4638 67.0267 28.8024 67.416 27.9171 67.608L30.7171 72.28H28.9731ZM24.5571 66.552H26.7011C27.4904 66.552 28.0824 66.36 28.4771 65.976C28.8718 65.5813 29.0691 65.0587 29.0691 64.408C29.0691 63.7467 28.8718 63.2347 28.4771 62.872C28.0931 62.5093 27.5011 62.328 26.7011 62.328H24.5571V66.552ZM42.0835 72.28H40.6275L34.7715 63.4V72.28H33.3155V61.112H34.7715L40.6275 69.976V61.112H42.0835V72.28ZM46.5015 61.128V72.28H45.0455V61.128H46.5015ZM58.231 72.28H56.775L50.919 63.4V72.28H49.463V61.112H50.919L56.775 69.976V61.112H58.231V72.28ZM69.641 64.36C69.3317 63.7093 68.8837 63.208 68.297 62.856C67.7103 62.4933 67.0277 62.312 66.249 62.312C65.4703 62.312 64.7663 62.4933 64.137 62.856C63.5183 63.208 63.0277 63.72 62.665 64.392C62.313 65.0533 62.137 65.8213 62.137 66.696C62.137 67.5707 62.313 68.3387 62.665 69C63.0277 69.6613 63.5183 70.1733 64.137 70.536C64.7663 70.888 65.4703 71.064 66.249 71.064C67.337 71.064 68.233 70.7387 68.937 70.088C69.641 69.4373 70.0517 68.5573 70.169 67.448H65.721V66.264H71.721V67.384C71.6357 68.3013 71.3477 69.144 70.857 69.912C70.3663 70.6693 69.721 71.272 68.921 71.72C68.121 72.1573 67.2303 72.376 66.249 72.376C65.2143 72.376 64.2703 72.136 63.417 71.656C62.5637 71.1653 61.8863 70.488 61.385 69.624C60.8943 68.76 60.649 67.784 60.649 66.696C60.649 65.608 60.8943 64.632 61.385 63.768C61.8863 62.8933 62.5637 62.216 63.417 61.736C64.2703 61.2453 65.2143 61 66.249 61C67.433 61 68.4783 61.2933 69.385 61.88C70.3023 62.4667 70.969 63.2933 71.385 64.36H69.641ZM84.9197 72.28L80.3277 67.192V72.28H78.8717V61.128H80.3277V66.296L84.9357 61.128H86.7758L81.7197 66.712L86.8238 72.28H84.9197ZM96.3858 64.392C96.3858 65.32 96.0658 66.0933 95.4258 66.712C94.7968 67.32 93.8308 67.624 92.5298 67.624H90.3858V72.28H88.9298V61.128H92.5298C93.7888 61.128 94.7428 61.432 95.3938 62.04C96.0548 62.648 96.3858 63.432 96.3858 64.392ZM92.5298 66.424C93.3408 66.424 93.9378 66.248 94.3218 65.896C94.7058 65.544 94.8978 65.0427 94.8978 64.392C94.8978 63.016 94.1088 62.328 92.5298 62.328H90.3858V66.424H92.5298ZM100.132 61.128V72.28H98.6758V61.128H100.132ZM106.197 72.424C105.525 72.424 104.923 72.312 104.389 72.088C103.856 71.8533 103.435 71.5333 103.125 71.128C102.816 70.712 102.645 70.2373 102.613 69.704H104.117C104.16 70.1413 104.363 70.4987 104.725 70.776C105.099 71.0533 105.584 71.192 106.181 71.192C106.736 71.192 107.173 71.0693 107.493 70.824C107.813 70.5787 107.973 70.2693 107.973 69.896C107.973 69.512 107.803 69.2293 107.461 69.048C107.12 68.856 106.592 68.6693 105.877 68.488C105.227 68.3173 104.693 68.1467 104.277 67.976C103.872 67.7947 103.52 67.5333 103.221 67.192C102.933 66.84 102.789 66.3813 102.789 65.816C102.789 65.368 102.923 64.9573 103.189 64.584C103.456 64.2107 103.835 63.9173 104.325 63.704C104.816 63.48 105.376 63.368 106.005 63.368C106.976 63.368 107.76 63.6133 108.357 64.104C108.955 64.5947 109.275 65.2667 109.317 66.12H107.861C107.829 65.6613 107.643 65.2933 107.301 65.016C106.971 64.7387 106.523 64.6 105.957 64.6C105.435 64.6 105.019 64.712 104.709 64.936C104.4 65.16 104.245 65.4533 104.245 65.816C104.245 66.104 104.336 66.344 104.517 66.536C104.709 66.7173 104.944 66.8667 105.221 66.984C105.509 67.0907 105.904 67.2133 106.405 67.352C107.035 67.5227 107.547 67.6933 107.941 67.864C108.336 68.024 108.672 68.2693 108.949 68.6C109.237 68.9307 109.387 69.3627 109.397 69.896C109.397 70.376 109.264 70.808 108.997 71.192C108.731 71.576 108.352 71.88 107.861 72.104C107.381 72.3173 106.827 72.424 106.197 72.424ZM118.134 61.128V72.28H116.678V61.128H118.134ZM129.864 72.28H128.408L122.552 63.4V72.28H121.096V61.112H122.552L128.408 69.976V61.112H129.864V72.28ZM139.69 61.128V62.312H136.65V72.28H135.194V62.312H132.138V61.128H139.69ZM147.018 72.392C145.983 72.392 145.039 72.152 144.186 71.672C143.333 71.1813 142.655 70.504 142.154 69.64C141.663 68.7653 141.418 67.784 141.418 66.696C141.418 65.608 141.663 64.632 142.154 63.768C142.655 62.8933 143.333 62.216 144.186 61.736C145.039 61.2453 145.983 61 147.018 61C148.063 61 149.013 61.2453 149.866 61.736C150.719 62.216 151.391 62.888 151.882 63.752C152.373 64.616 152.618 65.5973 152.618 66.696C152.618 67.7947 152.373 68.776 151.882 69.64C151.391 70.504 150.719 71.1813 149.866 71.672C149.013 72.152 148.063 72.392 147.018 72.392ZM147.018 71.128C147.797 71.128 148.495 70.9467 149.114 70.584C149.743 70.2213 150.234 69.704 150.586 69.032C150.949 68.36 151.13 67.5813 151.13 66.696C151.13 65.8 150.949 65.0213 150.586 64.36C150.234 63.688 149.749 63.1707 149.13 62.808C148.511 62.4453 147.807 62.264 147.018 62.264C146.229 62.264 145.525 62.4453 144.906 62.808C144.287 63.1707 143.797 63.688 143.434 64.36C143.082 65.0213 142.906 65.8 142.906 66.696C142.906 67.5813 143.082 68.36 143.434 69.032C143.797 69.704 144.287 70.2213 144.906 70.584C145.535 70.9467 146.239 71.128 147.018 71.128ZM171.078 61.208V72.28H169.622V64.024L165.942 72.28H164.918L161.222 64.008V72.28H159.766V61.208H161.334L165.43 70.36L169.526 61.208H171.078ZM179.083 72.392C178.048 72.392 177.104 72.152 176.251 71.672C175.398 71.1813 174.72 70.504 174.219 69.64C173.728 68.7653 173.483 67.784 173.483 66.696C173.483 65.608 173.728 64.632 174.219 63.768C174.72 62.8933 175.398 62.216 176.251 61.736C177.104 61.2453 178.048 61 179.083 61C180.128 61 181.078 61.2453 181.931 61.736C182.784 62.216 183.456 62.888 183.947 63.752C184.438 64.616 184.683 65.5973 184.683 66.696C184.683 67.7947 184.438 68.776 183.947 69.64C183.456 70.504 182.784 71.1813 181.931 71.672C181.078 72.152 180.128 72.392 179.083 72.392ZM179.083 71.128C179.862 71.128 180.56 70.9467 181.179 70.584C181.808 70.2213 182.299 69.704 182.651 69.032C183.014 68.36 183.195 67.5813 183.195 66.696C183.195 65.8 183.014 65.0213 182.651 64.36C182.299 63.688 181.814 63.1707 181.195 62.808C180.576 62.4453 179.872 62.264 179.083 62.264C178.294 62.264 177.59 62.4453 176.971 62.808C176.352 63.1707 175.862 63.688 175.499 64.36C175.147 65.0213 174.971 65.8 174.971 66.696C174.971 67.5813 175.147 68.36 175.499 69.032C175.862 69.704 176.352 70.2213 176.971 70.584C177.6 70.9467 178.304 71.128 179.083 71.128ZM198.397 61.208V72.28H196.941V64.024L193.261 72.28H192.237L188.541 64.008V72.28H187.085V61.208H188.653L192.749 70.36L196.845 61.208H198.397ZM202.802 62.312V66.04H206.866V67.24H202.802V71.08H207.346V72.28H201.346V61.112H207.346V62.312H202.802ZM218.797 72.28H217.341L211.485 63.4V72.28H210.029V61.112H211.485L217.341 69.976V61.112H218.797V72.28ZM228.623 61.128V62.312H225.583V72.28H224.127V62.312H221.071V61.128H228.623ZM232.32 61.128V68.184C232.32 69.176 232.56 69.912 233.04 70.392C233.53 70.872 234.208 71.112 235.072 71.112C235.925 71.112 236.592 70.872 237.072 70.392C237.562 69.912 237.808 69.176 237.808 68.184V61.128H239.264V68.168C239.264 69.096 239.077 69.88 238.704 70.52C238.33 71.1493 237.824 71.6187 237.184 71.928C236.554 72.2373 235.845 72.392 235.056 72.392C234.266 72.392 233.552 72.2373 232.912 71.928C232.282 71.6187 231.781 71.1493 231.408 70.52C231.045 69.88 230.864 69.096 230.864 68.168V61.128H232.32ZM253.485 61.208V72.28H252.029V64.024L248.349 72.28H247.325L243.629 64.008V72.28H242.173V61.208H243.741L247.837 70.36L251.933 61.208H253.485Z" fill="#5C5C5C" style="fill:#5C5C5C;fill:color(display-p3 0.3625 0.3625 0.3625);fill-opacity:1;"/>
</svg>
