<svg width="255" height="71" viewBox="-10 0 255 71" fill="none" xmlns="http://www.w3.org/2000/svg">
<path d="M9.45462 65L6.79862 60.44H5.03862V65H3.58262V53.848H7.18262C8.02529 53.848 8.73462 53.992 9.31062 54.28C9.89729 54.568 10.3346 54.9573 10.6226 55.448C10.9106 55.9387 11.0546 56.4987 11.0546 57.128C11.0546 57.896 10.8306 58.5733 10.3826 59.16C9.94529 59.7467 9.28396 60.136 8.39862 60.328L11.1986 65H9.45462ZM5.03862 59.272H7.18262C7.97196 59.272 8.56396 59.08 8.95862 58.696C9.35329 58.3013 9.55062 57.7787 9.55062 57.128C9.55062 56.4667 9.35329 55.9547 8.95862 55.592C8.57462 55.2293 7.98262 55.048 7.18262 55.048H5.03862V59.272ZM15.253 55.032V58.76H19.317V59.96H15.253V63.8H19.797V65H13.797V53.832H19.797V55.032H15.253ZM28.7841 53.848V55.032H23.9361V58.792H27.8721V59.976H23.9361V65H22.4801V53.848H28.7841ZM32.4786 63.816H36.3826V65H31.0226V53.848H32.4786V63.816ZM39.8649 55.032V58.76H43.9289V59.96H39.8649V63.8H44.4089V65H38.4089V53.832H44.4089V55.032H39.8649ZM46.548 59.416C46.548 58.328 46.7933 57.352 47.284 56.488C47.7747 55.6133 48.4413 54.9307 49.284 54.44C50.1373 53.9493 51.0813 53.704 52.116 53.704C53.332 53.704 54.3933 53.9973 55.3 54.584C56.2067 55.1707 56.868 56.0027 57.284 57.08H55.54C55.2307 56.408 54.7827 55.8907 54.196 55.528C53.62 55.1653 52.9267 54.984 52.116 54.984C51.3373 54.984 50.6387 55.1653 50.02 55.528C49.4013 55.8907 48.916 56.408 48.564 57.08C48.212 57.7413 48.036 58.52 48.036 59.416C48.036 60.3013 48.212 61.08 48.564 61.752C48.916 62.4133 49.4013 62.9253 50.02 63.288C50.6387 63.6507 51.3373 63.832 52.116 63.832C52.9267 63.832 53.62 63.656 54.196 63.304C54.7827 62.9413 55.2307 62.424 55.54 61.752H57.284C56.868 62.8187 56.2067 63.6453 55.3 64.232C54.3933 64.808 53.332 65.096 52.116 65.096C51.0813 65.096 50.1373 64.856 49.284 64.376C48.4413 63.8853 47.7747 63.208 47.284 62.344C46.7933 61.48 46.548 60.504 46.548 59.416ZM66.7954 53.848V55.032H63.7554V65H62.2994V55.032H59.2434V53.848H66.7954ZM70.5716 62.984L68.7796 67.288H67.8036L68.9716 62.984H70.5716ZM84.0571 62.52H79.1931L78.2971 65H76.7611L80.7931 53.912H82.4731L86.4891 65H84.9531L84.0571 62.52ZM83.6411 61.336L81.6251 55.704L79.6091 61.336H83.6411ZM92.1984 53.848C93.4144 53.848 94.465 54.0773 95.3504 54.536C96.2464 54.984 96.929 55.6293 97.3984 56.472C97.8784 57.3147 98.1184 58.3067 98.1184 59.448C98.1184 60.5893 97.8784 61.5813 97.3984 62.424C96.929 63.256 96.2464 63.896 95.3504 64.344C94.465 64.7813 93.4144 65 92.1984 65H88.7264V53.848H92.1984ZM92.1984 63.8C93.6384 63.8 94.737 63.4213 95.4944 62.664C96.2517 61.896 96.6304 60.824 96.6304 59.448C96.6304 58.0613 96.2464 56.9787 95.4784 56.2C94.721 55.4213 93.6277 55.032 92.1984 55.032H90.1824V63.8H92.1984ZM107.111 62.52H102.247L101.351 65H99.8149L103.847 53.912H105.527L109.543 65H108.007L107.111 62.52ZM106.695 61.336L104.679 55.704L102.663 61.336H106.695ZM119.236 57.112C119.236 58.04 118.916 58.8133 118.276 59.432C117.647 60.04 116.681 60.344 115.38 60.344H113.236V65H111.78V53.848H115.38C116.639 53.848 117.593 54.152 118.244 54.76C118.905 55.368 119.236 56.152 119.236 57.112ZM115.38 59.144C116.191 59.144 116.788 58.968 117.172 58.616C117.556 58.264 117.748 57.7627 117.748 57.112C117.748 55.736 116.959 55.048 115.38 55.048H113.236V59.144H115.38ZM128.39 53.848V55.032H125.35V65H123.894V55.032H120.838V53.848H128.39ZM132.166 62.984L130.374 67.288H129.398L130.566 62.984H132.166ZM145.923 53.848V55.032H142.883V65H141.427V55.032H138.371V53.848H145.923ZM156.788 53.848V65H155.332V59.944H149.652V65H148.196V53.848H149.652V58.744H155.332V53.848H156.788ZM165.626 65L162.97 60.44H161.21V65H159.754V53.848H163.354C164.197 53.848 164.906 53.992 165.482 54.28C166.069 54.568 166.506 54.9573 166.794 55.448C167.082 55.9387 167.226 56.4987 167.226 57.128C167.226 57.896 167.002 58.5733 166.554 59.16C166.117 59.7467 165.455 60.136 164.57 60.328L167.37 65H165.626ZM161.21 59.272H163.354C164.143 59.272 164.735 59.08 165.13 58.696C165.525 58.3013 165.722 57.7787 165.722 57.128C165.722 56.4667 165.525 55.9547 165.13 55.592C164.746 55.2293 164.154 55.048 163.354 55.048H161.21V59.272ZM171.424 53.848V65H169.968V53.848H171.424ZM183.602 53.848L179.394 65H177.714L173.506 53.848H175.058L178.562 63.464L182.066 53.848H183.602ZM187.134 55.032V58.76H191.198V59.96H187.134V63.8H191.678V65H185.678V53.832H191.678V55.032H187.134Z" fill="#5C5C5C"/>
<path d="M25.6196 14.829C25.6196 17.555 24.6796 19.8267 22.7996 21.644C20.951 23.43 18.1153 24.323 14.2926 24.323H7.99463V38H3.71763V5.241H14.2926C17.99 5.241 20.7943 6.134 22.7056 7.92C24.6483 9.706 25.6196 12.009 25.6196 14.829ZM14.2926 20.798C16.674 20.798 18.4286 20.281 19.5566 19.247C20.6846 18.213 21.2486 16.7403 21.2486 14.829C21.2486 10.787 18.93 8.766 14.2926 8.766H7.99463V20.798H14.2926Z" fill="black"/>
<path d="M41.3224 38.329C39.1604 38.329 37.2177 37.953 35.4944 37.201C33.8024 36.4177 32.4707 35.3523 31.4994 34.005C30.5281 32.6263 30.0267 31.044 29.9954 29.258H34.5544C34.7111 30.7933 35.3377 32.0937 36.4344 33.159C37.5624 34.193 39.1917 34.71 41.3224 34.71C43.3591 34.71 44.9571 34.2087 46.1164 33.206C47.3071 32.172 47.9024 30.856 47.9024 29.258C47.9024 28.0047 47.5577 26.9863 46.8684 26.203C46.1791 25.4197 45.3174 24.8243 44.2834 24.417C43.2494 24.0097 41.8551 23.571 40.1004 23.101C37.9384 22.537 36.1994 21.973 34.8834 21.409C33.5987 20.845 32.4864 19.9677 31.5464 18.777C30.6377 17.555 30.1834 15.9257 30.1834 13.889C30.1834 12.103 30.6377 10.5207 31.5464 9.142C32.4551 7.76333 33.7241 6.698 35.3534 5.946C37.0141 5.194 38.9097 4.818 41.0404 4.818C44.1111 4.818 46.6177 5.58567 48.5604 7.121C50.5344 8.65633 51.6467 10.693 51.8974 13.231H47.1974C47.0407 11.9777 46.3827 10.881 45.2234 9.941C44.0641 8.96967 42.5287 8.484 40.6174 8.484C38.8314 8.484 37.3744 8.954 36.2464 9.894C35.1184 10.8027 34.5544 12.0873 34.5544 13.748C34.5544 14.9387 34.8834 15.91 35.5414 16.662C36.2307 17.414 37.0611 17.9937 38.0324 18.401C39.0351 18.777 40.4294 19.2157 42.2154 19.717C44.3774 20.3123 46.1164 20.9077 47.4324 21.503C48.7484 22.067 49.8764 22.96 50.8164 24.182C51.7564 25.3727 52.2264 27.002 52.2264 29.07C52.2264 30.668 51.8034 32.172 50.9574 33.582C50.1114 34.992 48.8581 36.1357 47.1974 37.013C45.5367 37.8903 43.5784 38.329 41.3224 38.329Z" fill="#E94955"/>
<path d="M76.0464 36L69.6224 24.34H67.8184V36H60.2944V5.112H72.9224C75.3571 5.112 77.4251 5.53733 79.1264 6.388C80.8571 7.23866 82.1477 8.412 82.9984 9.908C83.8491 11.3747 84.2744 13.0173 84.2744 14.836C84.2744 16.8893 83.6877 18.7227 82.5144 20.336C81.3704 21.9493 79.6691 23.0933 77.4104 23.768L84.5384 36H76.0464ZM67.8184 19.016H72.4824C73.8611 19.016 74.8877 18.6787 75.5624 18.004C76.2664 17.3293 76.6184 16.376 76.6184 15.144C76.6184 13.9707 76.2664 13.0467 75.5624 12.372C74.8877 11.6973 73.8611 11.36 72.4824 11.36H67.8184V19.016ZM96.5215 11.14V17.388H106.598V23.196H96.5215V29.972H107.918V36H88.9975V5.112H107.918V11.14H96.5215ZM135.022 5.112V11.14H126.838V36H119.314V11.14H111.13V5.112H135.022ZM154.55 36L148.126 24.34H146.322V36H138.798V5.112H151.426C153.861 5.112 155.929 5.53733 157.63 6.388C159.361 7.23866 160.652 8.412 161.502 9.908C162.353 11.3747 162.778 13.0173 162.778 14.836C162.778 16.8893 162.192 18.7227 161.018 20.336C159.874 21.9493 158.173 23.0933 155.914 23.768L163.042 36H154.55ZM146.322 19.016H150.986C152.365 19.016 153.392 18.6787 154.066 18.004C154.77 17.3293 155.122 16.376 155.122 15.144C155.122 13.9707 154.77 13.0467 154.066 12.372C153.392 11.6973 152.365 11.36 150.986 11.36H146.322V19.016ZM182.109 36.308C179.205 36.308 176.536 35.6333 174.101 34.284C171.696 32.9347 169.775 31.0573 168.337 28.652C166.929 26.2173 166.225 23.4893 166.225 20.468C166.225 17.4467 166.929 14.7333 168.337 12.328C169.775 9.92267 171.696 8.04533 174.101 6.696C176.536 5.34667 179.205 4.672 182.109 4.672C185.013 4.672 187.668 5.34667 190.073 6.696C192.508 8.04533 194.415 9.92267 195.793 12.328C197.201 14.7333 197.905 17.4467 197.905 20.468C197.905 23.4893 197.201 26.2173 195.793 28.652C194.385 31.0573 192.479 32.9347 190.073 34.284C187.668 35.6333 185.013 36.308 182.109 36.308ZM182.109 29.444C184.573 29.444 186.539 28.6227 188.005 26.98C189.501 25.3373 190.249 23.1667 190.249 20.468C190.249 17.74 189.501 15.5693 188.005 13.956C186.539 12.3133 184.573 11.492 182.109 11.492C179.616 11.492 177.621 12.2987 176.125 13.912C174.659 15.5253 173.925 17.7107 173.925 20.468C173.925 23.196 174.659 25.3813 176.125 27.024C177.621 28.6373 179.616 29.444 182.109 29.444ZM213.267 36.308C211.009 36.308 208.985 35.9413 207.195 35.208C205.406 34.4747 203.969 33.3893 202.883 31.952C201.827 30.5147 201.27 28.784 201.211 26.76H209.219C209.337 27.904 209.733 28.784 210.407 29.4C211.082 29.9867 211.962 30.28 213.047 30.28C214.162 30.28 215.042 30.0307 215.687 29.532C216.333 29.004 216.655 28.2853 216.655 27.376C216.655 26.6133 216.391 25.9827 215.863 25.484C215.365 24.9853 214.734 24.5747 213.971 24.252C213.238 23.9293 212.182 23.5627 210.803 23.152C208.809 22.536 207.181 21.92 205.919 21.304C204.658 20.688 203.573 19.7787 202.663 18.576C201.754 17.3733 201.299 15.804 201.299 13.868C201.299 10.9933 202.341 8.74933 204.423 7.136C206.506 5.49333 209.219 4.672 212.563 4.672C215.966 4.672 218.709 5.49333 220.791 7.136C222.874 8.74933 223.989 11.008 224.135 13.912H215.995C215.937 12.9147 215.57 12.1373 214.895 11.58C214.221 10.9933 213.355 10.7 212.299 10.7C211.39 10.7 210.657 10.9493 210.099 11.448C209.542 11.9173 209.263 12.6067 209.263 13.516C209.263 14.5133 209.733 15.2907 210.671 15.848C211.61 16.4053 213.077 17.0067 215.071 17.652C217.066 18.3267 218.679 18.972 219.911 19.588C221.173 20.204 222.258 21.0987 223.167 22.272C224.077 23.4453 224.531 24.956 224.531 26.804C224.531 28.564 224.077 30.1627 223.167 31.6C222.287 33.0373 220.997 34.1813 219.295 35.032C217.594 35.8827 215.585 36.308 213.267 36.308Z" fill="black"/>
</svg>
