<svg width="193" height="66" viewBox="0 0 193 66" fill="none" xmlns="http://www.w3.org/2000/svg">
<path d="M9.872 63.296L7.216 58.736H5.456V63.296H4V52.144H7.6C8.44267 52.144 9.152 52.288 9.728 52.576C10.3147 52.864 10.752 53.2533 11.04 53.744C11.328 54.2347 11.472 54.7947 11.472 55.424C11.472 56.192 11.248 56.8693 10.8 57.456C10.3627 58.0427 9.70134 58.432 8.816 58.624L11.616 63.296H9.872ZM5.456 57.568H7.6C8.38934 57.568 8.98134 57.376 9.376 56.992C9.77067 56.5973 9.968 56.0747 9.968 55.424C9.968 54.7627 9.77067 54.2507 9.376 53.888C8.992 53.5253 8.4 53.344 7.6 53.344H5.456V57.568ZM15.6704 53.328V57.056H19.7344V58.256H15.6704V62.096H20.2144V63.296H14.2144V52.128H20.2144V53.328H15.6704ZM29.2015 52.144V53.328H24.3535V57.088H28.2895V58.272H24.3535V63.296H22.8975V52.144H29.2015ZM32.896 62.112H36.8V63.296H31.44V52.144H32.896V62.112ZM40.2823 53.328V57.056H44.3463V58.256H40.2823V62.096H44.8263V63.296H38.8263V52.128H44.8263V53.328H40.2823ZM46.9654 57.712C46.9654 56.624 47.2107 55.648 47.7014 54.784C48.1921 53.9093 48.8587 53.2267 49.7014 52.736C50.5547 52.2453 51.4987 52 52.5334 52C53.7494 52 54.8107 52.2933 55.7174 52.88C56.6241 53.4667 57.2854 54.2987 57.7014 55.376H55.9574C55.6481 54.704 55.2001 54.1867 54.6134 53.824C54.0374 53.4613 53.3441 53.28 52.5334 53.28C51.7547 53.28 51.0561 53.4613 50.4374 53.824C49.8187 54.1867 49.3334 54.704 48.9814 55.376C48.6294 56.0373 48.4534 56.816 48.4534 57.712C48.4534 58.5973 48.6294 59.376 48.9814 60.048C49.3334 60.7093 49.8187 61.2213 50.4374 61.584C51.0561 61.9467 51.7547 62.128 52.5334 62.128C53.3441 62.128 54.0374 61.952 54.6134 61.6C55.2001 61.2373 55.6481 60.72 55.9574 60.048H57.7014C57.2854 61.1147 56.6241 61.9413 55.7174 62.528C54.8107 63.104 53.7494 63.392 52.5334 63.392C51.4987 63.392 50.5547 63.152 49.7014 62.672C48.8587 62.1813 48.1921 61.504 47.7014 60.64C47.2107 59.776 46.9654 58.8 46.9654 57.712ZM67.2128 52.144V53.328H64.1728V63.296H62.7168V53.328H59.6608V52.144H67.2128ZM70.989 61.28L69.197 65.584H68.221L69.389 61.28H70.989ZM84.4745 60.816H79.6105L78.7145 63.296H77.1785L81.2105 52.208H82.8905L86.9065 63.296H85.3705L84.4745 60.816ZM84.0585 59.632L82.0425 54L80.0265 59.632H84.0585ZM92.6158 52.144C93.8318 52.144 94.8824 52.3733 95.7678 52.832C96.6638 53.28 97.3464 53.9253 97.8158 54.768C98.2958 55.6107 98.5358 56.6027 98.5358 57.744C98.5358 58.8853 98.2958 59.8773 97.8158 60.72C97.3464 61.552 96.6638 62.192 95.7678 62.64C94.8824 63.0773 93.8318 63.296 92.6158 63.296H89.1438V52.144H92.6158ZM92.6158 62.096C94.0558 62.096 95.1544 61.7173 95.9118 60.96C96.6691 60.192 97.0478 59.12 97.0478 57.744C97.0478 56.3573 96.6638 55.2747 95.8958 54.496C95.1384 53.7173 94.0451 53.328 92.6158 53.328H90.5998V62.096H92.6158ZM107.528 60.816H102.664L101.768 63.296H100.232L104.264 52.208H105.944L109.96 63.296H108.424L107.528 60.816ZM107.112 59.632L105.096 54L103.08 59.632H107.112ZM119.653 55.408C119.653 56.336 119.333 57.1093 118.693 57.728C118.064 58.336 117.098 58.64 115.797 58.64H113.653V63.296H112.197V52.144H115.797C117.056 52.144 118.01 52.448 118.661 53.056C119.322 53.664 119.653 54.448 119.653 55.408ZM115.797 57.44C116.608 57.44 117.205 57.264 117.589 56.912C117.973 56.56 118.165 56.0587 118.165 55.408C118.165 54.032 117.376 53.344 115.797 53.344H113.653V57.44H115.797ZM128.807 52.144V53.328H125.767V63.296H124.311V53.328H121.255V52.144H128.807ZM132.583 61.28L130.791 65.584H129.815L130.983 61.28H132.583ZM146.34 52.144V53.328H143.3V63.296H141.844V53.328H138.788V52.144H146.34ZM157.205 52.144V63.296H155.749V58.24H150.069V63.296H148.613V52.144H150.069V57.04H155.749V52.144H157.205ZM166.043 63.296L163.387 58.736H161.627V63.296H160.171V52.144H163.771C164.614 52.144 165.323 52.288 165.899 52.576C166.486 52.864 166.923 53.2533 167.211 53.744C167.499 54.2347 167.643 54.7947 167.643 55.424C167.643 56.192 167.419 56.8693 166.971 57.456C166.534 58.0427 165.872 58.432 164.987 58.624L167.787 63.296H166.043ZM161.627 57.568H163.771C164.56 57.568 165.152 57.376 165.547 56.992C165.942 56.5973 166.139 56.0747 166.139 55.424C166.139 54.7627 165.942 54.2507 165.547 53.888C165.163 53.5253 164.571 53.344 163.771 53.344H161.627V57.568ZM171.841 52.144V63.296H170.385V52.144H171.841ZM184.019 52.144L179.811 63.296H178.131L173.923 52.144H175.475L178.979 61.76L182.483 52.144H184.019ZM187.551 53.328V57.056H191.615V58.256H187.551V62.096H192.095V63.296H186.095V52.128H192.095V53.328H187.551Z" fill="#5C5C5C" style="fill:#5C5C5C;fill:color(display-p3 0.3625 0.3625 0.3625);fill-opacity:1;"/>
<path d="M18.8713 35.1836L12.6738 23.9346H10.9333V35.1836H3.67457V5.38441H15.8574C18.2063 5.38441 20.2014 5.79475 21.8427 6.61543C23.5124 7.43611 24.7576 8.56808 25.5782 10.0113C26.3989 11.4263 26.8093 13.0111 26.8093 14.7656C26.8093 16.7466 26.2433 18.5153 25.1113 20.0718C24.0076 21.6282 22.3663 22.7319 20.1872 23.3828L27.064 35.1836H18.8713ZM10.9333 18.7983H15.4329C16.763 18.7983 17.7535 18.4728 18.4044 17.822C19.0835 17.1711 19.4231 16.2513 19.4231 15.0628C19.4231 13.9308 19.0835 13.0394 18.4044 12.3885C17.7535 11.7376 16.763 11.4122 15.4329 11.4122H10.9333V18.7983ZM38.6247 11.1999V17.2277H48.3455V22.8309H38.6247V29.3681H49.619V35.1836H31.3659V5.38441H49.619V11.1999H38.6247ZM75.7682 5.38441V11.1999H67.8727V35.1836H60.6139V11.1999H52.7184V5.38441H75.7682ZM94.6079 35.1836L88.4104 23.9346H86.6699V35.1836H79.4112V5.38441H91.594C93.9429 5.38441 95.938 5.79475 97.5793 6.61543C99.249 7.43611 100.494 8.56808 101.315 10.0113C102.136 11.4263 102.546 13.0111 102.546 14.7656C102.546 16.7466 101.98 18.5153 100.848 20.0718C99.7442 21.6282 98.1029 22.7319 95.9238 23.3828L102.801 35.1836H94.6079ZM86.6699 18.7983H91.1695C92.4996 18.7983 93.4901 18.4728 94.141 17.822C94.8202 17.1711 95.1597 16.2513 95.1597 15.0628C95.1597 13.9308 94.8202 13.0394 94.141 12.3885C93.4901 11.7376 92.4996 11.4122 91.1695 11.4122H86.6699V18.7983ZM121.196 35.4807C118.394 35.4807 115.819 34.8299 113.47 33.5281C111.149 32.2263 109.296 30.4152 107.909 28.0946C106.551 25.7458 105.871 23.1139 105.871 20.1991C105.871 17.2843 106.551 14.6666 107.909 12.346C109.296 10.0255 111.149 8.21434 113.47 6.91257C115.819 5.6108 118.394 4.95992 121.196 4.95992C123.997 4.95992 126.558 5.6108 128.879 6.91257C131.228 8.21434 133.067 10.0255 134.397 12.346C135.756 14.6666 136.435 17.2843 136.435 20.1991C136.435 23.1139 135.756 25.7458 134.397 28.0946C133.039 30.4152 131.199 32.2263 128.879 33.5281C126.558 34.8299 123.997 35.4807 121.196 35.4807ZM121.196 28.8587C123.573 28.8587 125.469 28.0663 126.884 26.4816C128.327 24.8968 129.049 22.8026 129.049 20.1991C129.049 17.5673 128.327 15.4731 126.884 13.9167C125.469 12.3319 123.573 11.5395 121.196 11.5395C118.79 11.5395 116.866 12.3177 115.423 13.8742C114.008 15.4307 113.3 17.539 113.3 20.1991C113.3 22.8309 114.008 24.9392 115.423 26.524C116.866 28.0805 118.79 28.8587 121.196 28.8587ZM151.255 35.4807C149.076 35.4807 147.123 35.127 145.397 34.4195C143.671 33.712 142.284 32.665 141.237 31.2783C140.218 29.8916 139.681 28.222 139.624 26.2693H147.35C147.463 27.373 147.845 28.222 148.496 28.8162C149.147 29.3822 149.996 29.6652 151.043 29.6652C152.118 29.6652 152.967 29.4247 153.59 28.9436C154.212 28.4342 154.524 27.7409 154.524 26.8636C154.524 26.1278 154.269 25.5194 153.76 25.0383C153.278 24.5572 152.67 24.161 151.934 23.8497C151.227 23.5384 150.208 23.1847 148.878 22.7885C146.954 22.1942 145.383 21.5999 144.166 21.0056C142.949 20.4113 141.902 19.5341 141.025 18.3738C140.148 17.2135 139.709 15.6995 139.709 13.8318C139.709 11.0584 140.714 8.89353 142.723 7.33706C144.732 5.7523 147.35 4.95992 150.576 4.95992C153.859 4.95992 156.505 5.7523 158.514 7.33706C160.523 8.89353 161.598 11.0726 161.74 13.8742H153.887C153.83 12.912 153.477 12.1621 152.826 11.6244C152.175 11.0584 151.34 10.7754 150.321 10.7754C149.444 10.7754 148.736 11.016 148.199 11.4971C147.661 11.9499 147.392 12.6149 147.392 13.4922C147.392 14.4543 147.845 15.2043 148.751 15.742C149.656 16.2796 151.071 16.8598 152.995 17.4824C154.92 18.1333 156.476 18.7558 157.665 19.3501C158.882 19.9444 159.929 20.8075 160.806 21.9395C161.683 23.0715 162.122 24.5289 162.122 26.3118C162.122 28.0097 161.683 29.552 160.806 30.9387C159.957 32.3254 158.712 33.429 157.071 34.2497C155.429 35.0704 153.491 35.4807 151.255 35.4807Z" fill="black" style="fill:black;fill-opacity:1;"/>
</svg>
