<svg width="281" height="66" viewBox="0 0 281 66" fill="none" xmlns="http://www.w3.org/2000/svg">
<path d="M9.872 63.296L7.216 58.736H5.456V63.296H4V52.144H7.6C8.44267 52.144 9.152 52.288 9.728 52.576C10.3147 52.864 10.752 53.2533 11.04 53.744C11.328 54.2347 11.472 54.7947 11.472 55.424C11.472 56.192 11.248 56.8693 10.8 57.456C10.3627 58.0427 9.70134 58.432 8.816 58.624L11.616 63.296H9.872ZM5.456 57.568H7.6C8.38934 57.568 8.98134 57.376 9.376 56.992C9.77067 56.5973 9.968 56.0747 9.968 55.424C9.968 54.7627 9.77067 54.2507 9.376 53.888C8.992 53.5253 8.4 53.344 7.6 53.344H5.456V57.568ZM15.6704 53.328V57.056H19.7344V58.256H15.6704V62.096H20.2144V63.296H14.2144V52.128H20.2144V53.328H15.6704ZM29.2015 52.144V53.328H24.3535V57.088H28.2895V58.272H24.3535V63.296H22.8975V52.144H29.2015ZM32.896 62.112H36.8V63.296H31.44V52.144H32.896V62.112ZM40.2823 53.328V57.056H44.3463V58.256H40.2823V62.096H44.8263V63.296H38.8263V52.128H44.8263V53.328H40.2823ZM46.9654 57.712C46.9654 56.624 47.2107 55.648 47.7014 54.784C48.1921 53.9093 48.8587 53.2267 49.7014 52.736C50.5547 52.2453 51.4987 52 52.5334 52C53.7494 52 54.8107 52.2933 55.7174 52.88C56.6241 53.4667 57.2854 54.2987 57.7014 55.376H55.9574C55.6481 54.704 55.2001 54.1867 54.6134 53.824C54.0374 53.4613 53.3441 53.28 52.5334 53.28C51.7547 53.28 51.0561 53.4613 50.4374 53.824C49.8187 54.1867 49.3334 54.704 48.9814 55.376C48.6294 56.0373 48.4534 56.816 48.4534 57.712C48.4534 58.5973 48.6294 59.376 48.9814 60.048C49.3334 60.7093 49.8187 61.2213 50.4374 61.584C51.0561 61.9467 51.7547 62.128 52.5334 62.128C53.3441 62.128 54.0374 61.952 54.6134 61.6C55.2001 61.2373 55.6481 60.72 55.9574 60.048H57.7014C57.2854 61.1147 56.6241 61.9413 55.7174 62.528C54.8107 63.104 53.7494 63.392 52.5334 63.392C51.4987 63.392 50.5547 63.152 49.7014 62.672C48.8587 62.1813 48.1921 61.504 47.7014 60.64C47.2107 59.776 46.9654 58.8 46.9654 57.712ZM67.2128 52.144V53.328H64.1728V63.296H62.7168V53.328H59.6608V52.144H67.2128ZM70.989 61.28L69.197 65.584H68.221L69.389 61.28H70.989ZM84.4745 60.816H79.6105L78.7145 63.296H77.1785L81.2105 52.208H82.8905L86.9065 63.296H85.3705L84.4745 60.816ZM84.0585 59.632L82.0425 54L80.0265 59.632H84.0585ZM92.6158 52.144C93.8318 52.144 94.8824 52.3733 95.7678 52.832C96.6638 53.28 97.3464 53.9253 97.8158 54.768C98.2958 55.6107 98.5358 56.6027 98.5358 57.744C98.5358 58.8853 98.2958 59.8773 97.8158 60.72C97.3464 61.552 96.6638 62.192 95.7678 62.64C94.8824 63.0773 93.8318 63.296 92.6158 63.296H89.1438V52.144H92.6158ZM92.6158 62.096C94.0558 62.096 95.1544 61.7173 95.9118 60.96C96.6691 60.192 97.0478 59.12 97.0478 57.744C97.0478 56.3573 96.6638 55.2747 95.8958 54.496C95.1384 53.7173 94.0451 53.328 92.6158 53.328H90.5998V62.096H92.6158ZM107.528 60.816H102.664L101.768 63.296H100.232L104.264 52.208H105.944L109.96 63.296H108.424L107.528 60.816ZM107.112 59.632L105.096 54L103.08 59.632H107.112ZM119.653 55.408C119.653 56.336 119.333 57.1093 118.693 57.728C118.064 58.336 117.098 58.64 115.797 58.64H113.653V63.296H112.197V52.144H115.797C117.056 52.144 118.01 52.448 118.661 53.056C119.322 53.664 119.653 54.448 119.653 55.408ZM115.797 57.44C116.608 57.44 117.205 57.264 117.589 56.912C117.973 56.56 118.165 56.0587 118.165 55.408C118.165 54.032 117.376 53.344 115.797 53.344H113.653V57.44H115.797ZM128.807 52.144V53.328H125.767V63.296H124.311V53.328H121.255V52.144H128.807ZM132.583 61.28L130.791 65.584H129.815L130.983 61.28H132.583ZM146.34 52.144V53.328H143.3V63.296H141.844V53.328H138.788V52.144H146.34ZM157.205 52.144V63.296H155.749V58.24H150.069V63.296H148.613V52.144H150.069V57.04H155.749V52.144H157.205ZM166.043 63.296L163.387 58.736H161.627V63.296H160.171V52.144H163.771C164.614 52.144 165.323 52.288 165.899 52.576C166.486 52.864 166.923 53.2533 167.211 53.744C167.499 54.2347 167.643 54.7947 167.643 55.424C167.643 56.192 167.419 56.8693 166.971 57.456C166.534 58.0427 165.872 58.432 164.987 58.624L167.787 63.296H166.043ZM161.627 57.568H163.771C164.56 57.568 165.152 57.376 165.547 56.992C165.942 56.5973 166.139 56.0747 166.139 55.424C166.139 54.7627 165.942 54.2507 165.547 53.888C165.163 53.5253 164.571 53.344 163.771 53.344H161.627V57.568ZM171.841 52.144V63.296H170.385V52.144H171.841ZM184.019 52.144L179.811 63.296H178.131L173.923 52.144H175.475L178.979 61.76L182.483 52.144H184.019ZM187.551 53.328V57.056H191.615V58.256H187.551V62.096H192.095V63.296H186.095V52.128H192.095V53.328H187.551Z" fill="#5C5C5C"/>
<path d="M25.2722 13.7824C25.2722 16.5256 24.373 18.7354 22.5747 20.4118C20.7764 22.0882 18.0789 22.9264 14.4823 22.9264H8.03589V36.5508H4.83552V4.59282H14.4823C18.0485 4.59282 20.7307 5.43101 22.529 7.1074C24.3578 8.78378 25.2722 11.0088 25.2722 13.7824ZM14.4823 20.1832C19.481 20.1832 21.9803 18.0496 21.9803 13.7824C21.9803 11.6489 21.386 10.0334 20.1973 8.93618C19.0086 7.83891 17.1036 7.29027 14.4823 7.29027H8.03589V20.1832H14.4823Z" fill="black"/>
<path d="M40.3346 36.8708C38.2315 36.8708 36.3722 36.5051 34.7568 35.7735C33.1719 35.042 31.9222 34.021 31.0078 32.7103C30.0934 31.3997 29.6057 29.9367 29.5448 28.3213H32.928C33.0804 29.8757 33.7662 31.2473 34.9854 32.436C36.2046 33.5943 37.9877 34.1734 40.3346 34.1734C42.4987 34.1734 44.2055 33.6247 45.4552 32.5275C46.7353 31.3997 47.3754 29.9824 47.3754 28.2755C47.3754 26.904 47.0249 25.8067 46.3239 24.9837C45.6228 24.1303 44.7542 23.5055 43.7178 23.1092C42.6815 22.6825 41.249 22.2253 39.4202 21.7377C37.2866 21.1585 35.595 20.5947 34.3453 20.046C33.0957 19.4974 32.0289 18.644 31.145 17.4857C30.2611 16.3275 29.8191 14.7578 29.8191 12.7766C29.8191 11.1307 30.2458 9.66769 31.0993 8.38754C31.9527 7.07692 33.1566 6.05585 34.7111 5.32433C36.2656 4.59282 38.0486 4.22707 40.0603 4.22707C43.0168 4.22707 45.3942 4.95858 47.1925 6.4216C49.0213 7.85415 50.0729 9.71341 50.3472 11.9994H46.8725C46.6591 10.6888 45.9429 9.53053 44.7237 8.5247C43.5045 7.48839 41.8586 6.97024 39.786 6.97024C37.8657 6.97024 36.2656 7.48839 34.9854 8.5247C33.7053 9.53053 33.0652 10.9174 33.0652 12.6852C33.0652 14.0263 33.4157 15.1083 34.1167 15.9313C34.8178 16.7542 35.6864 17.3791 36.7228 17.8058C37.7895 18.2325 39.2221 18.6897 41.0204 19.1774C43.093 19.7565 44.7694 20.3356 46.0495 20.9147C47.3297 21.4633 48.4117 22.3168 49.2956 23.475C50.1795 24.6332 50.6215 26.1877 50.6215 28.1384C50.6215 29.6319 50.2253 31.0492 49.4328 32.3903C48.6403 33.7314 47.4668 34.8134 45.9124 35.6364C44.3579 36.4593 42.4987 36.8708 40.3346 36.8708Z" fill="#FE414D"/>
<path d="M78.0935 35.1836L71.8959 23.9346H70.1555V35.1836H62.8967V5.38441H75.0796C77.4284 5.38441 79.4235 5.79475 81.0649 6.61543C82.7346 7.43611 83.9797 8.56808 84.8004 10.0113C85.6211 11.4263 86.0314 13.0111 86.0314 14.7656C86.0314 16.7466 85.4654 18.5153 84.3335 20.0718C83.2298 21.6282 81.5884 22.7319 79.4094 23.3828L86.2861 35.1836H78.0935ZM70.1555 18.7983H74.6551C75.9852 18.7983 76.9756 18.4728 77.6265 17.822C78.3057 17.1711 78.6453 16.2513 78.6453 15.0628C78.6453 13.9308 78.3057 13.0394 77.6265 12.3885C76.9756 11.7376 75.9852 11.4122 74.6551 11.4122H70.1555V18.7983ZM97.8468 11.1999V17.2277H107.568V22.8309H97.8468V29.3681H108.841V35.1836H90.5881V5.38441H108.841V11.1999H97.8468ZM134.99 5.38441V11.1999H127.095V35.1836H119.836V11.1999H111.941V5.38441H134.99ZM153.83 35.1836L147.633 23.9346H145.892V35.1836H138.633V5.38441H150.816C153.165 5.38441 155.16 5.79475 156.802 6.61543C158.471 7.43611 159.716 8.56808 160.537 10.0113C161.358 11.4263 161.768 13.0111 161.768 14.7656C161.768 16.7466 161.202 18.5153 160.07 20.0718C158.966 21.6282 157.325 22.7319 155.146 23.3828L162.023 35.1836H153.83ZM145.892 18.7983H150.392C151.722 18.7983 152.712 18.4728 153.363 17.822C154.042 17.1711 154.382 16.2513 154.382 15.0628C154.382 13.9308 154.042 13.0394 153.363 12.3885C152.712 11.7376 151.722 11.4122 150.392 11.4122H145.892V18.7983ZM180.418 35.4807C177.616 35.4807 175.041 34.8299 172.692 33.5281C170.371 32.2263 168.518 30.4152 167.131 28.0946C165.773 25.7458 165.094 23.1139 165.094 20.1991C165.094 17.2843 165.773 14.6666 167.131 12.346C168.518 10.0255 170.371 8.21434 172.692 6.91257C175.041 5.6108 177.616 4.95992 180.418 4.95992C183.219 4.95992 185.78 5.6108 188.101 6.91257C190.45 8.21434 192.289 10.0255 193.619 12.346C194.978 14.6666 195.657 17.2843 195.657 20.1991C195.657 23.1139 194.978 25.7458 193.619 28.0946C192.261 30.4152 190.422 32.2263 188.101 33.5281C185.78 34.8299 183.219 35.4807 180.418 35.4807ZM180.418 28.8587C182.795 28.8587 184.691 28.0663 186.106 26.4816C187.549 24.8968 188.271 22.8026 188.271 20.1991C188.271 17.5673 187.549 15.4731 186.106 13.9167C184.691 12.3319 182.795 11.5395 180.418 11.5395C178.012 11.5395 176.088 12.3177 174.645 13.8742C173.23 15.4307 172.522 17.539 172.522 20.1991C172.522 22.8309 173.23 24.9392 174.645 26.524C176.088 28.0805 178.012 28.8587 180.418 28.8587ZM210.477 35.4807C208.298 35.4807 206.346 35.127 204.619 34.4195C202.893 33.712 201.506 32.665 200.459 31.2783C199.44 29.8916 198.903 28.222 198.846 26.2693H206.572C206.685 27.373 207.067 28.222 207.718 28.8162C208.369 29.3822 209.218 29.6652 210.265 29.6652C211.34 29.6652 212.189 29.4247 212.812 28.9436C213.435 28.4342 213.746 27.7409 213.746 26.8636C213.746 26.1278 213.491 25.5194 212.982 25.0383C212.501 24.5572 211.892 24.161 211.156 23.8497C210.449 23.5384 209.43 23.1847 208.1 22.7885C206.176 22.1942 204.605 21.5999 203.388 21.0056C202.171 20.4113 201.124 19.5341 200.247 18.3738C199.37 17.2135 198.931 15.6995 198.931 13.8318C198.931 11.0584 199.936 8.89353 201.945 7.33706C203.954 5.7523 206.572 4.95992 209.798 4.95992C213.081 4.95992 215.727 5.7523 217.736 7.33706C219.745 8.89353 220.821 11.0726 220.962 13.8742H213.109C213.052 12.912 212.699 12.1621 212.048 11.6244C211.397 11.0584 210.562 10.7754 209.543 10.7754C208.666 10.7754 207.959 11.016 207.421 11.4971C206.883 11.9499 206.614 12.6149 206.614 13.4922C206.614 14.4543 207.067 15.2043 207.973 15.742C208.878 16.2796 210.293 16.8598 212.218 17.4824C214.142 18.1333 215.698 18.7558 216.887 19.3501C218.104 19.9444 219.151 20.8075 220.028 21.9395C220.906 23.0715 221.344 24.5289 221.344 26.3118C221.344 28.0097 220.906 29.552 220.028 30.9387C219.179 32.3254 217.934 33.429 216.293 34.2497C214.651 35.0704 212.713 35.4807 210.477 35.4807Z" fill="black"/>
</svg>
